<?xml version="1.0" standalone="yes"?>

<svg version="1.1" viewBox="0.0 0.0 960.0 720.0" fill="none" stroke="none" stroke-linecap="square" stroke-miterlimit="10" xmlns="http://www.w3.org/2000/svg" xmlns:xlink="http://www.w3.org/1999/xlink"><clipPath id="p.0"><path d="m0 0l960.0 0l0 720.0l-960.0 0l0 -720.0z" clip-rule="nonzero"></path></clipPath><g clip-path="url(#p.0)"><path fill="#000000" fill-opacity="0.0" d="m0 0l960.0 0l0 720.0l-960.0 0z" fill-rule="nonzero"></path><path fill="#ffffff" d="m265.79776 180.3913c-6.133789 -37.799484 14.003967 -75.218765 51.868134 -96.37955c37.864136 -21.160774 86.81415 -22.351929 126.07886 -3.0680084l0 0c13.90802 -21.979752 39.364624 -37.15532 68.66931 -40.936184c29.304688 -3.7808685 59.01538 4.2770653 80.144714 21.73632l0 0c11.848145 -19.927902 35.11267 -33.316944 61.537964 -35.4159c26.425232 -2.098957 52.27124 7.3892326 68.366394 25.097595l0 0c21.406006 -21.1223 55.463196 -30.015568 87.435 -22.831673c31.971802 7.183895 56.115784 29.154678 61.984863 56.405552l0 0c26.224731 5.9989395 48.069336 21.24881 59.890015 41.809593c11.820618 20.560783 12.457703 44.41552 1.7467041 65.40101l0 0c25.825623 28.1857 31.867249 65.743195 15.870117 98.656494c-15.997131 32.91327 -51.629578 56.237396 -93.59967 61.268097c-0.29577637 30.891357 -20.497437 59.236816 -52.818115 74.11066c-32.32068 14.87381 -71.71332 13.953339 -102.99402 -2.4066467c-13.324158 36.99759 -50.82788 64.22012 -96.30792 69.90628c-45.480103 5.6861877 -90.7832 -11.18338 -116.33655 -43.320312c-31.322845 15.840149 -68.90787 20.40326 -104.27643 12.659973c-35.36856 -7.7433167 -65.54138 -27.140778 -83.711945 -53.81665l0 0c-32.007843 3.1412354 -62.955048 -10.765839 -77.48277 -34.819183c-14.5277405 -24.053375 -9.543396 -53.13269 12.479309 -72.80609l0 0c-28.553345 -14.09314 -43.12303 -42.058685 -36.111526 -69.313705c7.011505 -27.25502 34.01538 -47.623383 66.930115 -50.483765z" fill-rule="nonzero"></path><path fill="#ffffff" d="m432.67926 553.1759c0 7.2091675 -5.8441772 13.053406 -13.053345 13.053406c-7.209198 0 -13.053375 -5.8442383 -13.053375 -13.053406c0 -7.2091675 5.8441772 -13.053345 13.053375 -13.053345c7.2091675 0 13.053345 5.8441772 13.053345 13.053345z" fill-rule="nonzero"></path><path fill="#ffffff" d="m454.3611 537.2304c0 14.418335 -11.688385 26.10675 -26.10675 26.10675c-14.4183655 0 -26.10675 -11.688416 -26.10675 -26.10675c0 -14.418335 11.688385 -26.10672 26.10675 -26.10672c14.4183655 0 26.10675 11.688385 26.10675 26.10672z" fill-rule="nonzero"></path><path fill="#ffffff" d="m488.46747 498.32422c0 21.627563 -17.532593 39.160095 -39.160126 39.160095c-21.627533 0 -39.160095 -17.532532 -39.160095 -39.160095c0 -21.627533 17.532562 -39.160095 39.160095 -39.160095c21.627533 0 39.160126 17.532562 39.160126 39.160095z" fill-rule="nonzero"></path><path fill="#000000" fill-opacity="0.0" d="m279.76456 308.46442l0 0c-15.567627 1.0219116 -31.13356 -1.9949036 -44.607864 -8.645447m83.96541 103.256256c-6.2600403 2.0896606 -12.82196 3.4809265 -19.51651 4.1379395m187.68399 41.32303l0 0c-4.7083435 -5.921417 -8.650421 -12.248932 -11.759033 -18.874786m229.22037 -28.191742c-0.6923218 7.023346 -2.2661743 13.965454 -4.6953125 20.71051m98.057434 -148.67398l0 0c35.294373 14.403351 57.567444 44.515747 57.252502 77.40341m77.793884 -159.84326c-5.7158813 11.198715 -14.441772 21.13298 -25.493652 29.023865m-35.681885 -136.71808l0 0c0.973999 4.5223846 1.4248047 9.112747 1.3460693 13.707451m-164.16077 -29.696518l0 0c3.3218384 -6.323803 7.7211304 -12.211891 13.060913 -17.480919m-135.21484 25.810272l0 0c1.3552246 -5.226013 3.4799805 -10.290291 6.3254395 -15.0761795m-149.68704 20.198318l0 0c8.30835 4.080452 15.994751 8.99173 22.89029 14.625946m-196.7475 100.32463l0 0c-1.8136597 -5.033249 -3.149475 -10.178879 -3.994873 -15.388748" fill-rule="nonzero"></path><path stroke="#4a86e8" stroke-width="1.0" stroke-linejoin="round" stroke-linecap="butt" d="m265.79776 180.3913c-6.133789 -37.799484 14.003967 -75.218765 51.868134 -96.37955c37.864136 -21.160774 86.81415 -22.351929 126.07886 -3.0680084l0 0c13.90802 -21.979752 39.364624 -37.15532 68.66931 -40.936184c29.304688 -3.7808685 59.01538 4.2770653 80.144714 21.73632l0 0c11.848145 -19.927902 35.11267 -33.316944 61.537964 -35.4159c26.425232 -2.098957 52.27124 7.3892326 68.366394 25.097595l0 0c21.406006 -21.1223 55.463196 -30.015568 87.435 -22.831673c31.971802 7.183895 56.115784 29.154678 61.984863 56.405552l0 0c26.224731 5.9989395 48.069336 21.24881 59.890015 41.809593c11.820618 20.560783 12.457703 44.41552 1.7467041 65.40101l0 0c25.825623 28.1857 31.867249 65.743195 15.870117 98.656494c-15.997131 32.91327 -51.629578 56.237396 -93.59967 61.268097c-0.29577637 30.891357 -20.497437 59.236816 -52.818115 74.11066c-32.32068 14.87381 -71.71332 13.953339 -102.99402 -2.4066467c-13.324158 36.99759 -50.82788 64.22012 -96.30792 69.90628c-45.480103 5.6861877 -90.7832 -11.18338 -116.33655 -43.320312c-31.322845 15.840149 -68.90787 20.40326 -104.27643 12.659973c-35.36856 -7.7433167 -65.54138 -27.140778 -83.711945 -53.81665l0 0c-32.007843 3.1412354 -62.955048 -10.765839 -77.48277 -34.819183c-14.5277405 -24.053375 -9.543396 -53.13269 12.479309 -72.80609l0 0c-28.553345 -14.09314 -43.12303 -42.058685 -36.111526 -69.313705c7.011505 -27.25502 34.01538 -47.623383 66.930115 -50.483765z" fill-rule="nonzero"></path><path stroke="#4a86e8" stroke-width="1.0" stroke-linejoin="round" stroke-linecap="butt" d="m432.67926 553.1759c0 7.2091675 -5.8441772 13.053406 -13.053345 13.053406c-7.209198 0 -13.053375 -5.8442383 -13.053375 -13.053406c0 -7.2091675 5.8441772 -13.053345 13.053375 -13.053345c7.2091675 0 13.053345 5.8441772 13.053345 13.053345z" fill-rule="nonzero"></path><path stroke="#4a86e8" stroke-width="1.0" stroke-linejoin="round" stroke-linecap="butt" d="m454.3611 537.2304c0 14.418335 -11.688385 26.10675 -26.10675 26.10675c-14.4183655 0 -26.10675 -11.688416 -26.10675 -26.10675c0 -14.418335 11.688385 -26.10672 26.10675 -26.10672c14.4183655 0 26.10675 11.688385 26.10675 26.10672z" fill-rule="nonzero"></path><path stroke="#4a86e8" stroke-width="1.0" stroke-linejoin="round" stroke-linecap="butt" d="m488.46747 498.32422c0 21.627563 -17.532593 39.160095 -39.160126 39.160095c-21.627533 0 -39.160095 -17.532532 -39.160095 -39.160095c0 -21.627533 17.532562 -39.160095 39.160095 -39.160095c21.627533 0 39.160126 17.532562 39.160126 39.160095z" fill-rule="nonzero"></path><path stroke="#4a86e8" stroke-width="1.0" stroke-linejoin="round" stroke-linecap="butt" d="m279.76456 308.46442l0 0c-15.567627 1.0219116 -31.13356 -1.9949036 -44.607864 -8.645447m83.96541 103.256256c-6.2600403 2.0896606 -12.82196 3.4809265 -19.51651 4.1379395m187.68399 41.32303l0 0c-4.7083435 -5.921417 -8.650421 -12.248932 -11.759033 -18.874786m229.22037 -28.191742c-0.6923218 7.023346 -2.2661743 13.965454 -4.6953125 20.71051m98.057434 -148.67398l0 0c35.294373 14.403351 57.567444 44.515747 57.252502 77.40341m77.793884 -159.84326c-5.7158813 11.198715 -14.441772 21.13298 -25.493652 29.023865m-35.681885 -136.71808l0 0c0.973999 4.5223846 1.4248047 9.112747 1.3460693 13.707451m-164.16077 -29.696518l0 0c3.3218384 -6.323803 7.7211304 -12.211891 13.060913 -17.480919m-135.21484 25.810272l0 0c1.3552246 -5.226013 3.4799805 -10.290291 6.3254395 -15.0761795m-149.68704 20.198318l0 0c8.30835 4.080452 15.994751 8.99173 22.89029 14.625946m-196.7475 100.32463l0 0c-1.8136597 -5.033249 -3.149475 -10.178879 -3.994873 -15.388748" fill-rule="nonzero"></path><path fill="#4a86e8" d="m513.3137 255.50645l0 -12.0l-4.46875 0l0 -1.59375l10.765625 0l0 1.59375l-4.5 0l0 12.0l-1.796875 0zm7.724121 0l0 -13.59375l1.671875 0l0 4.875q1.171875 -1.359375 2.953125 -1.359375q1.09375 0 1.890625 0.4375q0.8125 0.421875 1.15625 1.1875q0.359375 0.765625 0.359375 2.203125l0 6.25l-1.671875 0l0 -6.25q0 -1.25 -0.546875 -1.8125q-0.546875 -0.578125 -1.53125 -0.578125q-0.75 0 -1.40625 0.390625q-0.640625 0.375 -0.921875 1.046875q-0.28125 0.65625 -0.28125 1.8125l0 5.390625l-1.671875 0zm17.125732 -3.171875l1.71875 0.21875q-0.40625 1.5 -1.515625 2.34375q-1.09375 0.828125 -2.8125 0.828125q-2.15625 0 -3.421875 -1.328125q-1.265625 -1.328125 -1.265625 -3.734375q0 -2.484375 1.265625 -3.859375q1.28125 -1.375 3.328125 -1.375q1.984375 0 3.234375 1.34375q1.25 1.34375 1.25 3.796875q0 0.140625 -0.015625 0.4375l-7.34375 0q0.09375 1.625 0.921875 2.484375q0.828125 0.859375 2.0625 0.859375q0.90625 0 1.546875 -0.46875q0.65625 -0.484375 1.046875 -1.546875zm-5.484375 -2.703125l5.5 0q-0.109375 -1.234375 -0.625 -1.859375q-0.796875 -0.96875 -2.078125 -0.96875q-1.140625 0 -1.9375 0.78125q-0.78125 0.765625 -0.859375 2.046875zm24.215271 1.109375l1.796875 0.453125q-0.5625 2.21875 -2.03125 3.390625q-1.46875 1.15625 -3.59375 1.15625q-2.203125 0 -3.578125 -0.890625q-1.375 -0.90625 -2.09375 -2.59375q-0.71875 -1.703125 -0.71875 -3.65625q0 -2.125 0.796875 -3.703125q0.8125 -1.578125 2.3125 -2.390625q1.5 -0.828125 3.296875 -0.828125q2.046875 0 3.4375 1.046875q1.390625 1.03125 1.9375 2.90625l-1.765625 0.421875q-0.46875 -1.484375 -1.375 -2.15625q-0.90625 -0.6875 -2.265625 -0.6875q-1.5625 0 -2.625 0.75q-1.046875 0.75 -1.484375 2.03125q-0.421875 1.265625 -0.421875 2.609375q0 1.734375 0.5 3.03125q0.515625 1.28125 1.578125 1.921875q1.078125 0.640625 2.3125 0.640625q1.515625 0 2.5625 -0.859375q1.046875 -0.875 1.421875 -2.59375zm3.5198364 4.765625l0 -13.59375l1.671875 0l0 13.59375l-1.671875 0zm3.5510254 -4.921875q0 -2.734375 1.53125 -4.0625q1.265625 -1.09375 3.09375 -1.09375q2.03125 0 3.3125 1.34375q1.296875 1.328125 1.296875 3.671875q0 1.90625 -0.578125 3.0q-0.5625 1.078125 -1.65625 1.6875q-1.078125 0.59375 -2.375 0.59375q-2.0625 0 -3.34375 -1.328125q-1.28125 -1.328125 -1.28125 -3.8125zm1.71875 0q0 1.890625 0.828125 2.828125q0.828125 0.9375 2.078125 0.9375q1.25 0 2.0625 -0.9375q0.828125 -0.953125 0.828125 -2.890625q0 -1.828125 -0.828125 -2.765625q-0.828125 -0.9375 -2.0625 -0.9375q-1.25 0 -2.078125 0.9375q-0.828125 0.9375 -0.828125 2.828125zm15.735107 4.921875l0 -1.453125q-1.140625 1.671875 -3.125 1.671875q-0.859375 0 -1.625 -0.328125q-0.75 -0.34375 -1.125 -0.84375q-0.359375 -0.5 -0.515625 -1.234375q-0.09375 -0.5 -0.09375 -1.5625l0 -6.109375l1.671875 0l0 5.46875q0 1.3125 0.09375 1.765625q0.15625 0.65625 0.671875 1.03125q0.515625 0.375 1.265625 0.375q0.75 0 1.40625 -0.375q0.65625 -0.390625 0.921875 -1.046875q0.28125 -0.671875 0.28125 -1.9375l0 -5.28125l1.671875 0l0 9.859375l-1.5 0zm10.313232 0l0 -1.25q-0.9375 1.46875 -2.75 1.46875q-1.171875 0 -2.171875 -0.640625q-0.984375 -0.65625 -1.53125 -1.8125q-0.53125 -1.171875 -0.53125 -2.6875q0 -1.46875 0.484375 -2.671875q0.5 -1.203125 1.46875 -1.84375q0.984375 -0.640625 2.203125 -0.640625q0.890625 0 1.578125 0.375q0.703125 0.375 1.140625 0.984375l0 -4.875l1.65625 0l0 13.59375l-1.546875 0zm-5.28125 -4.921875q0 1.890625 0.796875 2.828125q0.8125 0.9375 1.890625 0.9375q1.09375 0 1.859375 -0.890625q0.765625 -0.890625 0.765625 -2.734375q0 -2.015625 -0.78125 -2.953125q-0.78125 -0.953125 -1.921875 -0.953125q-1.109375 0 -1.859375 0.90625q-0.75 0.90625 -0.75 2.859375z" fill-rule="nonzero"></path><path fill="#c9daf8" d="m660.7953 229.83096l0 0c0 -7.088516 5.746399 -12.8349 12.8349 -12.8349l128.31445 0c3.4039917 0 6.66864 1.3522491 9.075623 3.759262c2.4070435 2.4069977 3.7592773 5.6716156 3.7592773 9.075638l0 51.338074c0 7.0885315 -5.746399 12.8349 -12.8349 12.8349l-128.31445 0c-7.088501 0 -12.8349 -5.7463684 -12.8349 -12.8349z" fill-rule="nonzero"></path><path stroke="#000000" stroke-width="1.0" stroke-linejoin="round" stroke-linecap="butt" d="m660.7953 229.83096l0 0c0 -7.088516 5.746399 -12.8349 12.8349 -12.8349l128.31445 0c3.4039917 0 6.66864 1.3522491 9.075623 3.759262c2.4070435 2.4069977 3.7592773 5.6716156 3.7592773 9.075638l0 51.338074c0 7.0885315 -5.746399 12.8349 -12.8349 12.8349l-128.31445 0c-7.088501 0 -12.8349 -5.7463684 -12.8349 -12.8349z" fill-rule="nonzero"></path><path fill="#d9ead3" d="m294.80316 614.831l0 0c0 -7.088562 5.7463684 -12.834961 12.8349 -12.834961l128.31442 0c3.4040527 0 6.66864 1.3522949 9.075653 3.7592773c2.407013 2.4070435 3.7592773 5.671631 3.7592773 9.075684l0 51.338013c0 7.088562 -5.746399 12.834961 -12.83493 12.834961l-128.31442 0c-7.0885315 0 -12.8349 -5.746399 -12.8349 -12.834961z" fill-rule="nonzero"></path><path stroke="#000000" stroke-width="1.0" stroke-linejoin="round" stroke-linecap="butt" d="m294.80316 614.831l0 0c0 -7.088562 5.7463684 -12.834961 12.8349 -12.834961l128.31442 0c3.4040527 0 6.66864 1.3522949 9.075653 3.7592773c2.407013 2.4070435 3.7592773 5.671631 3.7592773 9.075684l0 51.338013c0 7.088562 -5.746399 12.834961 -12.83493 12.834961l-128.31442 0c-7.0885315 0 -12.8349 -5.746399 -12.8349 -12.834961z" fill-rule="nonzero"></path><path fill="#d9ead3" d="m43.136482 237.84671l0 0c0 -7.088516 5.7463837 -12.8349 12.834904 -12.8349l128.31444 0c3.4040375 0 6.66864 1.3522491 9.075653 3.759262c2.407013 2.407013 3.7592468 5.6716156 3.7592468 9.075638l0 51.338074c0 7.0885315 -5.7463684 12.8349 -12.8349 12.8349l-128.31444 0c-7.08852 0 -12.834904 -5.7463684 -12.834904 -12.8349z" fill-rule="nonzero"></path><path stroke="#000000" stroke-width="1.0" stroke-linejoin="round" stroke-linecap="butt" d="m43.136482 237.84671l0 0c0 -7.088516 5.7463837 -12.8349 12.834904 -12.8349l128.31444 0c3.4040375 0 6.66864 1.3522491 9.075653 3.759262c2.407013 2.407013 3.7592468 5.6716156 3.7592468 9.075638l0 51.338074c0 7.0885315 -5.7463684 12.8349 -12.8349 12.8349l-128.31444 0c-7.08852 0 -12.834904 -5.7463684 -12.834904 -12.8349z" fill-rule="nonzero"></path><path fill="#000000" d="m61.008606 270.43573l5.234375 -13.59375l1.9375 0l5.5625 13.59375l-2.046875 0l-1.59375 -4.125l-5.6875 0l-1.484375 4.125l-1.921875 0zm3.921875 -5.578125l4.609375 0l-1.40625 -3.78125q-0.65625 -1.703125 -0.96875 -2.8125q-0.265625 1.3125 -0.734375 2.59375l-1.5 4.0zm16.193573 5.578125l0 -1.25q-0.9375 1.46875 -2.75 1.46875q-1.171875 0 -2.171875 -0.640625q-0.984375 -0.65625 -1.53125 -1.8125q-0.53125 -1.171875 -0.53125 -2.6875q0 -1.46875 0.484375 -2.671875q0.5 -1.203125 1.46875 -1.84375q0.984375 -0.640625 2.203125 -0.640625q0.890625 0 1.578125 0.375q0.703125 0.375 1.140625 0.984375l0 -4.875l1.65625 0l0 13.59375l-1.546875 0zm-5.28125 -4.921875q0 1.890625 0.796875 2.828125q0.8125 0.9375 1.890625 0.9375q1.09375 0 1.859375 -0.890625q0.765625 -0.890625 0.765625 -2.734375q0 -2.015625 -0.78125 -2.953125q-0.78125 -0.953125 -1.921875 -0.953125q-1.109375 0 -1.859375 0.90625q-0.75 0.90625 -0.75 2.859375zm9.266342 4.921875l0 -9.859375l1.5 0l0 1.390625q0.453125 -0.71875 1.21875 -1.15625q0.78125 -0.453125 1.765625 -0.453125q1.09375 0 1.796875 0.453125q0.703125 0.453125 0.984375 1.28125q1.171875 -1.734375 3.046875 -1.734375q1.46875 0 2.25 0.8125q0.796875 0.8125 0.796875 2.5l0 6.765625l-1.671875 0l0 -6.203125q0 -1.0 -0.15625 -1.4375q-0.15625 -0.453125 -0.59375 -0.71875q-0.421875 -0.265625 -1.0 -0.265625q-1.03125 0 -1.71875 0.6875q-0.6875 0.6875 -0.6875 2.21875l0 5.71875l-1.671875 0l0 -6.40625q0 -1.109375 -0.40625 -1.65625q-0.40625 -0.5625 -1.34375 -0.5625q-0.703125 0 -1.3125 0.375q-0.59375 0.359375 -0.859375 1.078125q-0.265625 0.71875 -0.265625 2.0625l0 5.109375l-1.671875 0zm15.556427 -11.6875l0 -1.90625l1.671875 0l0 1.90625l-1.671875 0zm0 11.6875l0 -9.859375l1.671875 0l0 9.859375l-1.671875 0zm4.129196 0l0 -9.859375l1.5 0l0 1.40625q1.09375 -1.625 3.140625 -1.625q0.890625 0 1.640625 0.328125q0.75 0.3125 1.109375 0.84375q0.375 0.515625 0.53125 1.21875q0.09375 0.46875 0.09375 1.625l0 6.0625l-1.671875 0l0 -6.0q0 -1.015625 -0.203125 -1.515625q-0.1875 -0.515625 -0.6875 -0.8125q-0.5 -0.296875 -1.171875 -0.296875q-1.0625 0 -1.84375 0.671875q-0.765625 0.671875 -0.765625 2.578125l0 5.375l-1.671875 0zm15.824646 0l0 -13.59375l1.8125 0l0 5.578125l7.0625 0l0 -5.578125l1.796875 0l0 13.59375l-1.796875 0l0 -6.40625l-7.0625 0l0 6.40625l-1.8125 0zm12.582321 -4.921875q0 -2.734375 1.53125 -4.0625q1.265625 -1.09375 3.09375 -1.09375q2.03125 0 3.3125 1.34375q1.296875 1.328125 1.296875 3.671875q0 1.90625 -0.578125 3.0q-0.5625 1.078125 -1.65625 1.6875q-1.078125 0.59375 -2.375 0.59375q-2.0625 0 -3.34375 -1.328125q-1.28125 -1.328125 -1.28125 -3.8125zm1.71875 0q0 1.890625 0.828125 2.828125q0.828125 0.9375 2.078125 0.9375q1.25 0 2.0625 -0.9375q0.828125 -0.953125 0.828125 -2.890625q0 -1.828125 -0.828125 -2.765625q-0.828125 -0.9375 -2.0625 -0.9375q-1.25 0 -2.078125 0.9375q-0.828125 0.9375 -0.828125 2.828125zm8.610092 1.984375l1.65625 -0.265625q0.140625 1.0 0.765625 1.53125q0.640625 0.515625 1.78125 0.515625q1.15625 0 1.703125 -0.46875q0.5625 -0.46875 0.5625 -1.09375q0 -0.5625 -0.484375 -0.890625q-0.34375 -0.21875 -1.703125 -0.5625q-1.84375 -0.46875 -2.5625 -0.796875q-0.703125 -0.34375 -1.078125 -0.9375q-0.359375 -0.609375 -0.359375 -1.328125q0 -0.65625 0.296875 -1.21875q0.3125 -0.5625 0.828125 -0.9375q0.390625 -0.28125 1.0625 -0.484375q0.671875 -0.203125 1.4375 -0.203125q1.171875 0 2.046875 0.34375q0.875 0.328125 1.28125 0.90625q0.421875 0.5625 0.578125 1.515625l-1.625 0.21875q-0.109375 -0.75 -0.65625 -1.171875q-0.53125 -0.4375 -1.5 -0.4375q-1.15625 0 -1.640625 0.390625q-0.484375 0.375 -0.484375 0.875q0 0.328125 0.203125 0.59375q0.203125 0.265625 0.640625 0.4375q0.25 0.09375 1.46875 0.4375q1.765625 0.46875 2.46875 0.765625q0.703125 0.296875 1.09375 0.875q0.40625 0.578125 0.40625 1.4375q0 0.828125 -0.484375 1.578125q-0.484375 0.734375 -1.40625 1.140625q-0.921875 0.390625 -2.078125 0.390625q-1.921875 0 -2.9375 -0.796875q-1.0 -0.796875 -1.28125 -2.359375zm13.65625 1.4375l0.234375 1.484375q-0.703125 0.140625 -1.265625 0.140625q-0.90625 0 -1.40625 -0.28125q-0.5 -0.296875 -0.703125 -0.75q-0.203125 -0.46875 -0.203125 -1.984375l0 -5.65625l-1.234375 0l0 -1.3125l1.234375 0l0 -2.4375l1.65625 -1.0l0 3.4375l1.6875 0l0 1.3125l-1.6875 0l0 5.75q0 0.71875 0.078125 0.921875q0.09375 0.203125 0.296875 0.328125q0.203125 0.125 0.578125 0.125q0.265625 0 0.734375 -0.078125zm4.714554 5.5q-1.375 -1.75 -2.328125 -4.078125q-0.953125 -2.34375 -0.953125 -4.84375q0 -2.21875 0.703125 -4.234375q0.84375 -2.34375 2.578125 -4.671875l1.203125 0q-1.125 1.921875 -1.484375 2.75q-0.5625 1.28125 -0.890625 2.671875q-0.40625 1.734375 -0.40625 3.484375q0 4.46875 2.78125 8.921875l-1.203125 0zm2.353302 -6.9375l1.65625 -0.265625q0.140625 1.0 0.765625 1.53125q0.640625 0.515625 1.78125 0.515625q1.15625 0 1.703125 -0.46875q0.5625 -0.46875 0.5625 -1.09375q0 -0.5625 -0.484375 -0.890625q-0.34375 -0.21875 -1.703125 -0.5625q-1.84375 -0.46875 -2.5625 -0.796875q-0.703125 -0.34375 -1.078125 -0.9375q-0.359375 -0.609375 -0.359375 -1.328125q0 -0.65625 0.296875 -1.21875q0.3125 -0.5625 0.828125 -0.9375q0.390625 -0.28125 1.0625 -0.484375q0.671875 -0.203125 1.4375 -0.203125q1.171875 0 2.046875 0.34375q0.875 0.328125 1.28125 0.90625q0.421875 0.5625 0.578125 1.515625l-1.625 0.21875q-0.109375 -0.75 -0.65625 -1.171875q-0.53125 -0.4375 -1.5 -0.4375q-1.15625 0 -1.640625 0.390625q-0.484375 0.375 -0.484375 0.875q0 0.328125 0.203125 0.59375q0.203125 0.265625 0.640625 0.4375q0.25 0.09375 1.46875 0.4375q1.765625 0.46875 2.46875 0.765625q0.703125 0.296875 1.09375 0.875q0.40625 0.578125 0.40625 1.4375q0 0.828125 -0.484375 1.578125q-0.484375 0.734375 -1.40625 1.140625q-0.921875 0.390625 -2.078125 0.390625q-1.921875 0 -2.9375 -0.796875q-1.0 -0.796875 -1.28125 -2.359375zm11.093735 6.9375l-1.1874847 0q2.7656097 -4.453125 2.7656097 -8.921875q0 -1.734375 -0.390625 -3.453125q-0.328125 -1.390625 -0.890625 -2.671875q-0.359375 -0.84375 -1.4843597 -2.78125l1.1874847 0q1.75 2.328125 2.578125 4.671875q0.71875 2.015625 0.71875 4.234375q0 2.5 -0.96875 4.84375q-0.953125 2.328125 -2.328125 4.078125z" fill-rule="nonzero"></path><path fill="#c9daf8" d="m676.7953 245.83096l0 0c0 -7.088516 5.746399 -12.8349 12.8349 -12.8349l128.31445 0c3.4039917 0 6.66864 1.3522491 9.075623 3.759262c2.4070435 2.4069977 3.7592773 5.6716156 3.7592773 9.075638l0 51.338074c0 7.0885315 -5.746399 12.8349 -12.8349 12.8349l-128.31445 0c-7.088501 0 -12.8349 -5.7463684 -12.8349 -12.8349z" fill-rule="nonzero"></path><path stroke="#000000" stroke-width="1.0" stroke-linejoin="round" stroke-linecap="butt" d="m676.7953 245.83096l0 0c0 -7.088516 5.746399 -12.8349 12.8349 -12.8349l128.31445 0c3.4039917 0 6.66864 1.3522491 9.075623 3.759262c2.4070435 2.4069977 3.7592773 5.6716156 3.7592773 9.075638l0 51.338074c0 7.0885315 -5.746399 12.8349 -12.8349 12.8349l-128.31445 0c-7.088501 0 -12.8349 -5.7463684 -12.8349 -12.8349z" fill-rule="nonzero"></path><path fill="#c9daf8" d="m692.7953 261.83096l0 0c0 -7.088516 5.746399 -12.8349 12.8349 -12.8349l128.31445 0c3.4039917 0 6.66864 1.3522491 9.075623 3.759262c2.4070435 2.4069977 3.7592773 5.6716156 3.7592773 9.075638l0 51.338074c0 7.0885315 -5.746399 12.8349 -12.8349 12.8349l-128.31445 0c-7.088501 0 -12.8349 -5.7463684 -12.8349 -12.8349z" fill-rule="nonzero"></path><path stroke="#000000" stroke-width="1.0" stroke-linejoin="round" stroke-linecap="butt" d="m692.7953 261.83096l0 0c0 -7.088516 5.746399 -12.8349 12.8349 -12.8349l128.31445 0c3.4039917 0 6.66864 1.3522491 9.075623 3.759262c2.4070435 2.4069977 3.7592773 5.6716156 3.7592773 9.075638l0 51.338074c0 7.0885315 -5.746399 12.8349 -12.8349 12.8349l-128.31445 0c-7.088501 0 -12.8349 -5.7463684 -12.8349 -12.8349z" fill-rule="nonzero"></path><path fill="#000000" d="m713.5085 294.41998l-3.609375 -13.59375l1.84375 0l2.0625 8.90625q0.34375 1.40625 0.578125 2.78125q0.515625 -2.171875 0.609375 -2.515625l2.59375 -9.171875l2.171875 0l1.953125 6.875q0.734375 2.5625 1.046875 4.8125q0.265625 -1.28125 0.6875 -2.953125l2.125 -8.734375l1.8125 0l-3.734375 13.59375l-1.734375 0l-2.859375 -10.359375q-0.359375 -1.296875 -0.421875 -1.59375q-0.21875 0.9375 -0.40625 1.59375l-2.890625 10.359375l-1.828125 0zm21.764893 -3.171875l1.71875 0.21875q-0.40625 1.5 -1.515625 2.34375q-1.09375 0.828125 -2.8125 0.828125q-2.15625 0 -3.421875 -1.328125q-1.265625 -1.328125 -1.265625 -3.734375q0 -2.484375 1.265625 -3.859375q1.28125 -1.375 3.328125 -1.375q1.984375 0 3.234375 1.34375q1.25 1.34375 1.25 3.796875q0 0.140625 -0.015625 0.4375l-7.34375 0q0.09375 1.625 0.921875 2.484375q0.828125 0.859375 2.0625 0.859375q0.90625 0 1.546875 -0.46875q0.65625 -0.484375 1.046875 -1.546875zm-5.484375 -2.703125l5.5 0q-0.109375 -1.234375 -0.625 -1.859375q-0.796875 -0.96875 -2.078125 -0.96875q-1.140625 0 -1.9375 0.78125q-0.78125 0.765625 -0.859375 2.046875zm10.656982 5.875l-1.546875 0l0 -13.59375l1.65625 0l0 4.84375q1.0625 -1.328125 2.703125 -1.328125q0.90625 0 1.71875 0.375q0.8125 0.359375 1.328125 1.03125q0.53125 0.65625 0.828125 1.59375q0.296875 0.9375 0.296875 2.0q0 2.53125 -1.25 3.921875q-1.25 1.375 -3.0 1.375q-1.75 0 -2.734375 -1.453125l0 1.234375zm-0.015625 -5.0q0 1.765625 0.46875 2.5625q0.796875 1.28125 2.140625 1.28125q1.09375 0 1.890625 -0.9375q0.796875 -0.953125 0.796875 -2.84375q0 -1.921875 -0.765625 -2.84375q-0.765625 -0.921875 -1.84375 -0.921875q-1.09375 0 -1.890625 0.953125q-0.796875 0.953125 -0.796875 2.75zm13.637146 0.625l1.6875 -0.140625q0.125 1.015625 0.5625 1.671875q0.4375 0.65625 1.359375 1.0625q0.9375 0.40625 2.09375 0.40625q1.03125 0 1.8125 -0.3125q0.796875 -0.3125 1.1875 -0.84375q0.390625 -0.53125 0.390625 -1.15625q0 -0.640625 -0.375 -1.109375q-0.375 -0.484375 -1.234375 -0.8125q-0.546875 -0.21875 -2.421875 -0.65625q-1.875 -0.453125 -2.625 -0.859375q-0.96875 -0.515625 -1.453125 -1.265625q-0.46875 -0.75 -0.46875 -1.6875q0 -1.03125 0.578125 -1.921875q0.59375 -0.90625 1.703125 -1.359375q1.125 -0.46875 2.5 -0.46875q1.515625 0 2.671875 0.484375q1.15625 0.484375 1.765625 1.4375q0.625 0.9375 0.671875 2.140625l-1.71875 0.125q-0.140625 -1.28125 -0.953125 -1.9375q-0.796875 -0.671875 -2.359375 -0.671875q-1.625 0 -2.375 0.609375q-0.75 0.59375 -0.75 1.4375q0 0.734375 0.53125 1.203125q0.515625 0.46875 2.703125 0.96875q2.203125 0.5 3.015625 0.875q1.1875 0.546875 1.75 1.390625q0.578125 0.828125 0.578125 1.921875q0 1.09375 -0.625 2.0625q-0.625 0.953125 -1.796875 1.484375q-1.15625 0.53125 -2.609375 0.53125q-1.84375 0 -3.09375 -0.53125q-1.25 -0.546875 -1.96875 -1.625q-0.703125 -1.078125 -0.734375 -2.453125zm19.584167 1.203125l1.71875 0.21875q-0.40625 1.5 -1.515625 2.34375q-1.09375 0.828125 -2.8125 0.828125q-2.15625 0 -3.421875 -1.328125q-1.265625 -1.328125 -1.265625 -3.734375q0 -2.484375 1.265625 -3.859375q1.28125 -1.375 3.328125 -1.375q1.984375 0 3.234375 1.34375q1.25 1.34375 1.25 3.796875q0 0.140625 -0.015625 0.4375l-7.34375 0q0.09375 1.625 0.921875 2.484375q0.828125 0.859375 2.0625 0.859375q0.90625 0 1.546875 -0.46875q0.65625 -0.484375 1.046875 -1.546875zm-5.484375 -2.703125l5.5 0q-0.109375 -1.234375 -0.625 -1.859375q-0.796875 -0.96875 -2.078125 -0.96875q-1.140625 0 -1.9375 0.78125q-0.78125 0.765625 -0.859375 2.046875zm9.094482 5.875l0 -9.859375l1.5 0l0 1.5q0.578125 -1.046875 1.0625 -1.375q0.484375 -0.34375 1.078125 -0.34375q0.84375 0 1.71875 0.546875l-0.578125 1.546875q-0.609375 -0.359375 -1.234375 -0.359375q-0.546875 0 -0.984375 0.328125q-0.421875 0.328125 -0.609375 0.90625q-0.28125 0.890625 -0.28125 1.953125l0 5.15625l-1.671875 0zm8.9627075 0l-3.75 -9.859375l1.765625 0l2.125 5.90625q0.34375 0.953125 0.625 1.984375q0.21875 -0.78125 0.625 -1.875l2.1875 -6.015625l1.71875 0l-3.734375 9.859375l-1.5625 0zm13.34375 -3.171875l1.71875 0.21875q-0.40625 1.5 -1.515625 2.34375q-1.09375 0.828125 -2.8125 0.828125q-2.15625 0 -3.421875 -1.328125q-1.265625 -1.328125 -1.265625 -3.734375q0 -2.484375 1.265625 -3.859375q1.28125 -1.375 3.328125 -1.375q1.984375 0 3.234375 1.34375q1.25 1.34375 1.25 3.796875q0 0.140625 -0.015625 0.4375l-7.34375 0q0.09375 1.625 0.921875 2.484375q0.828125 0.859375 2.0625 0.859375q0.90625 0 1.546875 -0.46875q0.65625 -0.484375 1.046875 -1.546875zm-5.484375 -2.703125l5.5 0q-0.109375 -1.234375 -0.625 -1.859375q-0.796875 -0.96875 -2.078125 -0.96875q-1.140625 0 -1.9375 0.78125q-0.78125 0.765625 -0.859375 2.046875zm9.094421 5.875l0 -9.859375l1.5 0l0 1.5q0.578125 -1.046875 1.0625 -1.375q0.484375 -0.34375 1.078125 -0.34375q0.84375 0 1.71875 0.546875l-0.578125 1.546875q-0.609375 -0.359375 -1.234375 -0.359375q-0.546875 0 -0.984375 0.328125q-0.421875 0.328125 -0.609375 0.90625q-0.28125 0.890625 -0.28125 1.953125l0 5.15625l-1.671875 0zm9.4158325 4.0q-1.375 -1.75 -2.328125 -4.078125q-0.953125 -2.34375 -0.953125 -4.84375q0 -2.21875 0.703125 -4.234375q0.84375 -2.34375 2.578125 -4.671875l1.203125 0q-1.125 1.921875 -1.484375 2.75q-0.5625 1.28125 -0.890625 2.671875q-0.40625 1.734375 -0.40625 3.484375q0 4.46875 2.78125 8.921875l-1.203125 0zm2.3532715 -6.9375l1.65625 -0.265625q0.140625 1.0 0.765625 1.53125q0.640625 0.515625 1.78125 0.515625q1.15625 0 1.703125 -0.46875q0.5625 -0.46875 0.5625 -1.09375q0 -0.5625 -0.484375 -0.890625q-0.34375 -0.21875 -1.703125 -0.5625q-1.84375 -0.46875 -2.5625 -0.796875q-0.703125 -0.34375 -1.078125 -0.9375q-0.359375 -0.609375 -0.359375 -1.328125q0 -0.65625 0.296875 -1.21875q0.3125 -0.5625 0.828125 -0.9375q0.390625 -0.28125 1.0625 -0.484375q0.671875 -0.203125 1.4375 -0.203125q1.171875 0 2.046875 0.34375q0.875 0.328125 1.28125 0.90625q0.421875 0.5625 0.578125 1.515625l-1.625 0.21875q-0.109375 -0.75 -0.65625 -1.171875q-0.53125 -0.4375 -1.5 -0.4375q-1.15625 0 -1.640625 0.390625q-0.484375 0.375 -0.484375 0.875q0 0.328125 0.203125 0.59375q0.203125 0.265625 0.640625 0.4375q0.25 0.09375 1.46875 0.4375q1.765625 0.46875 2.46875 0.765625q0.703125 0.296875 1.09375 0.875q0.40625 0.578125 0.40625 1.4375q0 0.828125 -0.484375 1.578125q-0.484375 0.734375 -1.40625 1.140625q-0.921875 0.390625 -2.078125 0.390625q-1.921875 0 -2.9375 -0.796875q-1.0 -0.796875 -1.28125 -2.359375zm11.09375 6.9375l-1.1875 0q2.765625 -4.453125 2.765625 -8.921875q0 -1.734375 -0.390625 -3.453125q-0.328125 -1.390625 -0.890625 -2.671875q-0.359375 -0.84375 -1.484375 -2.78125l1.1875 0q1.75 2.328125 2.578125 4.671875q0.71875 2.015625 0.71875 4.234375q0 2.5 -0.96875 4.84375q-0.953125 2.328125 -2.328125 4.078125z" fill-rule="nonzero"></path><path fill="#d9ead3" d="m310.80316 630.831l0 0c0 -7.088562 5.7463684 -12.834961 12.8349 -12.834961l128.31442 0c3.4040527 0 6.66864 1.3522949 9.075653 3.7592773c2.407013 2.4070435 3.7592773 5.671631 3.7592773 9.075684l0 51.338013c0 7.088562 -5.746399 12.834961 -12.83493 12.834961l-128.31442 0c-7.0885315 0 -12.8349 -5.746399 -12.8349 -12.834961z" fill-rule="nonzero"></path><path stroke="#000000" stroke-width="1.0" stroke-linejoin="round" stroke-linecap="butt" d="m310.80316 630.831l0 0c0 -7.088562 5.7463684 -12.834961 12.8349 -12.834961l128.31442 0c3.4040527 0 6.66864 1.3522949 9.075653 3.7592773c2.407013 2.4070435 3.7592773 5.671631 3.7592773 9.075684l0 51.338013c0 7.088562 -5.746399 12.834961 -12.83493 12.834961l-128.31442 0c-7.0885315 0 -12.8349 -5.746399 -12.8349 -12.834961z" fill-rule="nonzero"></path><path fill="#d9ead3" d="m326.80316 646.831l0 0c0 -7.088562 5.7463684 -12.834961 12.8349 -12.834961l128.31442 0c3.4040527 0 6.66864 1.3522949 9.075653 3.7592773c2.407013 2.4070435 3.7592773 5.671631 3.7592773 9.075684l0 51.338013c0 7.088562 -5.746399 12.834961 -12.83493 12.834961l-128.31442 0c-7.0885315 0 -12.8349 -5.746399 -12.8349 -12.834961z" fill-rule="nonzero"></path><path stroke="#000000" stroke-width="1.0" stroke-linejoin="round" stroke-linecap="butt" d="m326.80316 646.831l0 0c0 -7.088562 5.7463684 -12.834961 12.8349 -12.834961l128.31442 0c3.4040527 0 6.66864 1.3522949 9.075653 3.7592773c2.407013 2.4070435 3.7592773 5.671631 3.7592773 9.075684l0 51.338013c0 7.088562 -5.746399 12.834961 -12.83493 12.834961l-128.31442 0c-7.0885315 0 -12.8349 -5.746399 -12.8349 -12.834961z" fill-rule="nonzero"></path><path fill="#000000" d="m351.65662 679.42l-3.609375 -13.59375l1.84375 0l2.0625 8.90625q0.34375 1.40625 0.578125 2.78125q0.515625 -2.171875 0.609375 -2.515625l2.59375 -9.171875l2.171875 0l1.953125 6.875q0.734375 2.5625 1.046875 4.8125q0.265625 -1.28125 0.6875 -2.953125l2.125 -8.734375l1.8125 0l-3.734375 13.59375l-1.734375 0l-2.859375 -10.359375q-0.359375 -1.296875 -0.421875 -1.59375q-0.21875 0.9375 -0.40625 1.59375l-2.890625 10.359375l-1.828125 0zm21.764893 -3.171875l1.71875 0.21875q-0.40625 1.5 -1.515625 2.34375q-1.09375 0.828125 -2.8125 0.828125q-2.15625 0 -3.421875 -1.328125q-1.265625 -1.328125 -1.265625 -3.734375q0 -2.484375 1.265625 -3.859375q1.28125 -1.375 3.328125 -1.375q1.984375 0 3.234375 1.34375q1.25 1.34375 1.25 3.796875q0 0.140625 -0.015625 0.4375l-7.34375 0q0.09375 1.625 0.921875 2.484375q0.828125 0.859375 2.0625 0.859375q0.90625 0 1.546875 -0.46875q0.65625 -0.484375 1.046875 -1.546875zm-5.484375 -2.703125l5.5 0q-0.109375 -1.234375 -0.625 -1.859375q-0.796875 -0.96875 -2.078125 -0.96875q-1.140625 0 -1.9375 0.78125q-0.78125 0.765625 -0.859375 2.046875zm10.656982 5.875l-1.546875 0l0 -13.59375l1.65625 0l0 4.84375q1.0625 -1.328125 2.703125 -1.328125q0.90625 0 1.71875 0.375q0.8125 0.359375 1.328125 1.03125q0.53125 0.65625 0.828125 1.59375q0.296875 0.9375 0.296875 2.0q0 2.53125 -1.25 3.921875q-1.25 1.375 -3.0 1.375q-1.75 0 -2.734375 -1.453125l0 1.234375zm-0.015625 -5.0q0 1.765625 0.46875 2.5625q0.796875 1.28125 2.140625 1.28125q1.09375 0 1.890625 -0.9375q0.796875 -0.953125 0.796875 -2.84375q0 -1.921875 -0.765625 -2.84375q-0.765625 -0.921875 -1.84375 -0.921875q-1.09375 0 -1.890625 0.953125q-0.796875 0.953125 -0.796875 2.75zm14.168396 5.0l0 -13.59375l5.109375 0q1.546875 0 2.484375 0.40625q0.953125 0.40625 1.484375 1.265625q0.53125 0.859375 0.53125 1.796875q0 0.875 -0.46875 1.65625q-0.46875 0.765625 -1.4375 1.234375q1.234375 0.359375 1.890625 1.234375q0.671875 0.875 0.671875 2.0625q0 0.953125 -0.40625 1.78125q-0.390625 0.8125 -0.984375 1.265625q-0.59375 0.4375 -1.5 0.671875q-0.890625 0.21875 -2.1875 0.21875l-5.1875 0zm1.796875 -7.890625l2.9375 0q1.203125 0 1.71875 -0.15625q0.6875 -0.203125 1.03125 -0.671875q0.359375 -0.46875 0.359375 -1.1875q0 -0.671875 -0.328125 -1.1875q-0.328125 -0.515625 -0.9375 -0.703125q-0.59375 -0.203125 -2.0625 -0.203125l-2.71875 0l0 4.109375zm0 6.28125l3.390625 0q0.875 0 1.21875 -0.0625q0.625 -0.109375 1.046875 -0.359375q0.421875 -0.265625 0.6875 -0.765625q0.265625 -0.5 0.265625 -1.140625q0 -0.765625 -0.390625 -1.328125q-0.390625 -0.5625 -1.078125 -0.78125q-0.6875 -0.234375 -1.984375 -0.234375l-3.15625 0l0 4.671875zm10.490448 1.609375l0 -9.859375l1.5 0l0 1.5q0.578125 -1.046875 1.0625 -1.375q0.484375 -0.34375 1.078125 -0.34375q0.84375 0 1.71875 0.546875l-0.578125 1.546875q-0.609375 -0.359375 -1.234375 -0.359375q-0.546875 0 -0.984375 0.328125q-0.421875 0.328125 -0.609375 0.90625q-0.28125 0.890625 -0.28125 1.953125l0 5.15625l-1.671875 0zm5.603302 -4.921875q0 -2.734375 1.53125 -4.0625q1.265625 -1.09375 3.09375 -1.09375q2.03125 0 3.3125 1.34375q1.296875 1.328125 1.296875 3.671875q0 1.90625 -0.578125 3.0q-0.5625 1.078125 -1.65625 1.6875q-1.078125 0.59375 -2.375 0.59375q-2.0625 0 -3.34375 -1.328125q-1.28125 -1.328125 -1.28125 -3.8125zm1.71875 0q0 1.890625 0.828125 2.828125q0.828125 0.9375 2.078125 0.9375q1.25 0 2.0625 -0.9375q0.828125 -0.953125 0.828125 -2.890625q0 -1.828125 -0.828125 -2.765625q-0.828125 -0.9375 -2.0625 -0.9375q-1.25 0 -2.078125 0.9375q-0.828125 0.9375 -0.828125 2.828125zm11.110077 4.921875l-3.015625 -9.859375l1.71875 0l1.5625 5.6875l0.59375 2.125q0.03125 -0.15625 0.5 -2.03125l1.578125 -5.78125l1.71875 0l1.46875 5.71875l0.484375 1.890625l0.578125 -1.90625l1.6875 -5.703125l1.625 0l-3.078125 9.859375l-1.734375 0l-1.578125 -5.90625l-0.375 -1.671875l-2.0 7.578125l-1.734375 0zm10.972961 -2.9375l1.65625 -0.265625q0.140625 1.0 0.765625 1.53125q0.640625 0.515625 1.78125 0.515625q1.15625 0 1.703125 -0.46875q0.5625 -0.46875 0.5625 -1.09375q0 -0.5625 -0.484375 -0.890625q-0.34375 -0.21875 -1.703125 -0.5625q-1.84375 -0.46875 -2.5625 -0.796875q-0.703125 -0.34375 -1.078125 -0.9375q-0.359375 -0.609375 -0.359375 -1.328125q0 -0.65625 0.296875 -1.21875q0.3125 -0.5625 0.828125 -0.9375q0.390625 -0.28125 1.0625 -0.484375q0.671875 -0.203125 1.4375 -0.203125q1.171875 0 2.046875 0.34375q0.875 0.328125 1.28125 0.90625q0.421875 0.5625 0.578125 1.515625l-1.625 0.21875q-0.109375 -0.75 -0.65625 -1.171875q-0.53125 -0.4375 -1.5 -0.4375q-1.15625 0 -1.640625 0.390625q-0.484375 0.375 -0.484375 0.875q0 0.328125 0.203125 0.59375q0.203125 0.265625 0.640625 0.4375q0.25 0.09375 1.46875 0.4375q1.765625 0.46875 2.46875 0.765625q0.703125 0.296875 1.09375 0.875q0.40625 0.578125 0.40625 1.4375q0 0.828125 -0.484375 1.578125q-0.484375 0.734375 -1.40625 1.140625q-0.921875 0.390625 -2.078125 0.390625q-1.921875 0 -2.9375 -0.796875q-1.0 -0.796875 -1.28125 -2.359375zm16.75 -0.234375l1.71875 0.21875q-0.40625 1.5 -1.515625 2.34375q-1.09375 0.828125 -2.8125 0.828125q-2.15625 0 -3.421875 -1.328125q-1.265625 -1.328125 -1.265625 -3.734375q0 -2.484375 1.265625 -3.859375q1.28125 -1.375 3.328125 -1.375q1.984375 0 3.234375 1.34375q1.25 1.34375 1.25 3.796875q0 0.140625 -0.015625 0.4375l-7.34375 0q0.09375 1.625 0.921875 2.484375q0.828125 0.859375 2.0625 0.859375q0.90625 0 1.546875 -0.46875q0.65625 -0.484375 1.046875 -1.546875zm-5.484375 -2.703125l5.5 0q-0.109375 -1.234375 -0.625 -1.859375q-0.796875 -0.96875 -2.078125 -0.96875q-1.140625 0 -1.9375 0.78125q-0.78125 0.765625 -0.859375 2.046875zm9.094452 5.875l0 -9.859375l1.5 0l0 1.5q0.578125 -1.046875 1.0625 -1.375q0.484375 -0.34375 1.078125 -0.34375q0.8437805 0 1.7187805 0.546875l-0.578125 1.546875q-0.609375 -0.359375 -1.2344055 -0.359375q-0.546875 0 -0.984375 0.328125q-0.421875 0.328125 -0.609375 0.90625q-0.28125 0.890625 -0.28125 1.953125l0 5.15625l-1.671875 0z" fill-rule="nonzero"></path><path fill="#000000" fill-opacity="0.0" d="m120.12861 225.01181c0 -12.5 158.41733 -26.0 316.83466 -25.0c158.4173 1.0 316.83466 16.5 316.83466 33.0" fill-rule="nonzero"></path><path stroke="#cc0000" stroke-width="2.0" stroke-linejoin="round" stroke-linecap="butt" d="m120.12861 225.01181c0 -12.5 158.41733 -26.0 316.83466 -25.0c79.20868 0.5 158.4173 4.625 217.82379 10.6875c29.703247 3.03125 54.455994 6.546875 71.78284 10.3359375c8.663452 1.8945465 15.470459 3.8574219 20.111633 5.8623047c0.58013916 0.2506256 1.1264038 0.50187683 1.6383057 0.75375366c0.25585938 0.12593079 0.5031738 0.25201416 0.7418823 0.37823486l0.018493652 0.010009766" fill-rule="evenodd"></path><path fill="#cc0000" stroke="#cc0000" stroke-width="2.0" stroke-linecap="butt" d="m749.0802 228.03957l-3.1796875 -0.08354187l5.8849487 2.9347534l-2.621704 -6.0309143z" fill-rule="evenodd"></path><path fill="#000000" fill-opacity="0.0" d="m769.7874 326.00394c0 173.24408 -144.50397 346.4882 -289.00787 346.4882" fill-rule="nonzero"></path><path stroke="#cc0000" stroke-width="2.0" stroke-linejoin="round" stroke-linecap="butt" d="m769.7874 326.00394c0 86.62204 -36.125977 173.24408 -90.315 238.2106c-27.094482 32.483276 -58.704712 59.552673 -92.572815 78.50128c-16.934021 9.474243 -34.432556 16.918396 -52.213318 21.993896c-8.890381 2.5377197 -17.851318 4.4833374 -26.847534 5.7944946c-4.498108 0.6555786 -9.005035 1.1525879 -13.516388 1.4856567c-1.1278381 0.08325195 -2.2559204 0.15631104 -3.3842468 0.21899414c-0.56417847 0.031311035 -1.1283875 0.06011963 -1.692627 0.08630371l-1.6130066 0.06738281" fill-rule="evenodd"></path><path fill="#cc0000" stroke="#cc0000" stroke-width="2.0" stroke-linecap="butt" d="m487.63248 672.36255l2.2062378 -2.2912598l-6.135895 2.3655396l6.2209473 2.131958z" fill-rule="evenodd"></path><path fill="#000000" fill-opacity="0.0" d="m692.7953 287.5c-152.50397 0 -305.00787 165.24408 -305.00787 330.48816" fill-rule="nonzero"></path><path stroke="#bf9000" stroke-width="2.0" stroke-linejoin="round" stroke-linecap="butt" d="m692.7953 287.5c-76.25195 0 -152.50397 41.311035 -209.69293 103.27756c-28.594482 30.983276 -52.423218 67.1304 -69.10333 105.8595c-8.340057 19.364532 -14.892975 39.374603 -19.36087 59.707367c-2.2339478 10.166382 -3.9466248 20.413391 -5.10083 30.700867c-0.5771179 5.1436768 -1.0145569 10.297485 -1.3078003 15.456299c-0.14660645 2.5794067 -0.2571106 5.160095 -0.33102417 7.741394l-0.022338867 0.89160156" fill-rule="evenodd"></path><path fill="#bf9000" stroke="#bf9000" stroke-width="2.0" stroke-linecap="butt" d="m387.87616 611.1346l-2.2198486 -2.2780762l2.1689453 6.20813l2.32901 -6.1499023z" fill-rule="evenodd"></path><path fill="#f4cccc" d="m722.2913 532.8091l0 0c0 2.658142 -2.1548462 4.8129883 -4.8129883 4.8129883l0 -4.8129883c0 1.3290405 -1.0773926 2.4064941 -2.4064941 2.4064941c-1.3290405 0 -2.4064941 -1.0774536 -2.4064941 -2.4064941l0 4.8129883l-178.56891 0l0 0c-2.658142 0 -4.8129883 2.1548462 -4.8129883 4.8129883l0 57.75586c0 2.658142 2.1548462 4.8130493 4.8129883 4.8130493c2.658142 0 4.8129883 -2.1549072 4.8129883 -4.8130493l0 -4.8129883l178.56891 0c2.658142 0 4.8129883 -2.1548462 4.8129883 -4.8129883zm-188.19489 14.438965c2.658142 0 4.8129883 -2.1548462 4.8129883 -4.8129883c0 -1.3291016 -1.0773926 -2.4064941 -2.4064941 -2.4064941c-1.3290405 0 -2.4064941 1.0773926 -2.4064941 2.4064941z" fill-rule="nonzero"></path><path fill="#c3a3a3" d="m534.09644 547.24805c2.658142 0 4.8129883 -2.1548462 4.8129883 -4.8129883c0 -1.3291016 -1.0773926 -2.4064941 -2.4064941 -2.4064941c-1.3290405 0 -2.4064941 1.0773926 -2.4064941 2.4064941zm183.3819 -9.625977c2.658142 0 4.8129883 -2.1548462 4.8129883 -4.8129883c0 -2.658142 -2.1548462 -4.8130493 -4.8129883 -4.8130493c-2.658142 0 -4.8129883 2.1549072 -4.8129883 4.8130493c0 1.3290405 1.0774536 2.4064941 2.4064941 2.4064941c1.3291016 0 2.4064941 -1.0774536 2.4064941 -2.4064941z" fill-rule="nonzero"></path><path fill="#000000" fill-opacity="0.0" d="m529.28345 542.43506c0 -2.658142 2.1548462 -4.8129883 4.8129883 -4.8129883l178.56891 0l0 -4.8129883l0 0c0 -2.658142 2.1548462 -4.8130493 4.8129883 -4.8130493c2.658142 0 4.8129883 2.1549072 4.8129883 4.8130493l0 57.75586c0 2.658142 -2.1548462 4.8129883 -4.8129883 4.8129883l-178.56891 0l0 4.8129883c0 2.658142 -2.1548462 4.8130493 -4.8129883 4.8130493c-2.658142 0 -4.8129883 -2.1549072 -4.8129883 -4.8130493zm183.3819 -4.8129883l4.8129883 0c2.658142 0 4.8129883 -2.1548462 4.8129883 -4.8129883m-4.8129883 4.8129883l0 -4.8129883c0 1.3290405 -1.0773926 2.4064941 -2.4064941 2.4064941c-1.3290405 0 -2.4064941 -1.0774536 -2.4064941 -2.4064941m-178.56891 14.438965l0 -4.8129883l0 0c0 -1.3291016 1.0774536 -2.4064941 2.4064941 -2.4064941c1.3291016 0 2.4064941 1.0773926 2.4064941 2.4064941c0 2.658142 -2.1548462 4.8129883 -4.8129883 4.8129883c-2.658142 0 -4.8129883 -2.1548462 -4.8129883 -4.8129883m9.625977 0l0 52.94287" fill-rule="nonzero"></path><path stroke="#cc0000" stroke-width="1.0" stroke-linejoin="round" stroke-linecap="butt" d="m529.28345 542.43506c0 -2.658142 2.1548462 -4.8129883 4.8129883 -4.8129883l178.56891 0l0 -4.8129883l0 0c0 -2.658142 2.1548462 -4.8130493 4.8129883 -4.8130493c2.658142 0 4.8129883 2.1549072 4.8129883 4.8130493l0 57.75586c0 2.658142 -2.1548462 4.8129883 -4.8129883 4.8129883l-178.56891 0l0 4.8129883c0 2.658142 -2.1548462 4.8130493 -4.8129883 4.8130493c-2.658142 0 -4.8129883 -2.1549072 -4.8129883 -4.8130493zm183.3819 -4.8129883l4.8129883 0c2.658142 0 4.8129883 -2.1548462 4.8129883 -4.8129883m-4.8129883 4.8129883l0 -4.8129883c0 1.3290405 -1.0773926 2.4064941 -2.4064941 2.4064941c-1.3290405 0 -2.4064941 -1.0774536 -2.4064941 -2.4064941m-178.56891 14.438965l0 -4.8129883l0 0c0 -1.3291016 1.0774536 -2.4064941 2.4064941 -2.4064941c1.3291016 0 2.4064941 1.0773926 2.4064941 2.4064941c0 2.658142 -2.1548462 4.8129883 -4.8129883 4.8129883c-2.658142 0 -4.8129883 -2.1548462 -4.8129883 -4.8129883m9.625977 0l0 52.94287" fill-rule="nonzero"></path><path fill="#000000" d="m586.20844 562.42l0 -13.59375l9.171875 0l0 1.59375l-7.375 0l0 4.21875l6.375 0l0 1.609375l-6.375 0l0 6.171875l-1.796875 0zm17.833496 -3.171875l1.71875 0.21875q-0.40625 1.5 -1.515625 2.34375q-1.09375 0.828125 -2.8125 0.828125q-2.15625 0 -3.421875 -1.328125q-1.265625 -1.328125 -1.265625 -3.734375q0 -2.484375 1.265625 -3.859375q1.28125 -1.375 3.328125 -1.375q1.984375 0 3.234375 1.34375q1.25 1.34375 1.25 3.796875q0 0.140625 -0.015625 0.4375l-7.34375 0q0.09375 1.625 0.921875 2.484375q0.828125 0.859375 2.0625 0.859375q0.90625 0 1.546875 -0.46875q0.65625 -0.484375 1.046875 -1.546875zm-5.484375 -2.703125l5.5 0q-0.109375 -1.234375 -0.625 -1.859375q-0.796875 -0.96875 -2.078125 -0.96875q-1.140625 0 -1.9375 0.78125q-0.78125 0.765625 -0.859375 2.046875zm15.860107 2.703125l1.71875 0.21875q-0.40625 1.5 -1.515625 2.34375q-1.09375 0.828125 -2.8125 0.828125q-2.15625 0 -3.421875 -1.328125q-1.265625 -1.328125 -1.265625 -3.734375q0 -2.484375 1.265625 -3.859375q1.28125 -1.375 3.328125 -1.375q1.984375 0 3.234375 1.34375q1.25 1.34375 1.25 3.796875q0 0.140625 -0.015625 0.4375l-7.34375 0q0.09375 1.625 0.921875 2.484375q0.828125 0.859375 2.0625 0.859375q0.90625 0 1.546875 -0.46875q0.65625 -0.484375 1.046875 -1.546875zm-5.484375 -2.703125l5.5 0q-0.109375 -1.234375 -0.625 -1.859375q-0.796875 -0.96875 -2.078125 -0.96875q-1.140625 0 -1.9375 0.78125q-0.78125 0.765625 -0.859375 2.046875zm15.500671 5.875l0 -1.25q-0.9375 1.46875 -2.75 1.46875q-1.171875 0 -2.171875 -0.640625q-0.984375 -0.65625 -1.53125 -1.8125q-0.53125 -1.171875 -0.53125 -2.6875q0 -1.46875 0.484375 -2.671875q0.5 -1.203125 1.46875 -1.84375q0.984375 -0.640625 2.203125 -0.640625q0.890625 0 1.578125 0.375q0.703125 0.375 1.140625 0.984375l0 -4.875l1.65625 0l0 13.59375l-1.546875 0zm-5.28125 -4.921875q0 1.890625 0.796875 2.828125q0.8125 0.9375 1.890625 0.9375q1.09375 0 1.859375 -0.890625q0.765625 -0.890625 0.765625 -2.734375q0 -2.015625 -0.78125 -2.953125q-0.78125 -0.953125 -1.921875 -0.953125q-1.109375 0 -1.859375 0.90625q-0.75 0.90625 -0.75 2.859375zm14.762146 4.921875l0 -13.59375l9.171875 0l0 1.59375l-7.375 0l0 4.21875l6.375 0l0 1.609375l-6.375 0l0 6.171875l-1.796875 0zm11.099121 -11.6875l0 -1.90625l1.671875 0l0 1.90625l-1.671875 0zm0 11.6875l0 -9.859375l1.671875 0l0 9.859375l-1.671875 0zm4.0979614 0l0 -13.59375l1.671875 0l0 13.59375l-1.671875 0zm10.926086 -3.171875l1.71875 0.21875q-0.40625 1.5 -1.515625 2.34375q-1.09375 0.828125 -2.8125 0.828125q-2.15625 0 -3.421875 -1.328125q-1.265625 -1.328125 -1.265625 -3.734375q0 -2.484375 1.265625 -3.859375q1.28125 -1.375 3.328125 -1.375q1.984375 0 3.234375 1.34375q1.25 1.34375 1.25 3.796875q0 0.140625 -0.015625 0.4375l-7.34375 0q0.09375 1.625 0.921875 2.484375q0.828125 0.859375 2.0625 0.859375q0.90625 0 1.546875 -0.46875q0.65625 -0.484375 1.046875 -1.546875zm-5.484375 -2.703125l5.5 0q-0.109375 -1.234375 -0.625 -1.859375q-0.796875 -0.96875 -2.078125 -0.96875q-1.140625 0 -1.9375 0.78125q-0.78125 0.765625 -0.859375 2.046875zm8.438171 2.9375l1.65625 -0.265625q0.140625 1.0 0.765625 1.53125q0.640625 0.515625 1.78125 0.515625q1.15625 0 1.703125 -0.46875q0.5625 -0.46875 0.5625 -1.09375q0 -0.5625 -0.484375 -0.890625q-0.34375 -0.21875 -1.703125 -0.5625q-1.84375 -0.46875 -2.5625 -0.796875q-0.703125 -0.34375 -1.078125 -0.9375q-0.359375 -0.609375 -0.359375 -1.328125q0 -0.65625 0.296875 -1.21875q0.3125 -0.5625 0.828125 -0.9375q0.390625 -0.28125 1.0625 -0.484375q0.671875 -0.203125 1.4375 -0.203125q1.171875 0 2.046875 0.34375q0.875 0.328125 1.28125 0.90625q0.421875 0.5625 0.578125 1.515625l-1.625 0.21875q-0.109375 -0.75 -0.65625 -1.171875q-0.53125 -0.4375 -1.5 -0.4375q-1.15625 0 -1.640625 0.390625q-0.484375 0.375 -0.484375 0.875q0 0.328125 0.203125 0.59375q0.203125 0.265625 0.640625 0.4375q0.25 0.09375 1.46875 0.4375q1.765625 0.46875 2.46875 0.765625q0.703125 0.296875 1.09375 0.875q0.40625 0.578125 0.40625 1.4375q0 0.828125 -0.484375 1.578125q-0.484375 0.734375 -1.40625 1.140625q-0.921875 0.390625 -2.078125 0.390625q-1.921875 0 -2.9375 -0.796875q-1.0 -0.796875 -1.28125 -2.359375z" fill-rule="nonzero"></path><path fill="#000000" d="m610.34503 588.42q-1.375 -1.75 -2.328125 -4.078125q-0.953125 -2.34375 -0.953125 -4.84375q0 -2.21875 0.703125 -4.234375q0.84375 -2.34375 2.578125 -4.671875l1.203125 0q-1.125 1.921875 -1.484375 2.75q-0.5625 1.28125 -0.890625 2.671875q-0.40625 1.734375 -0.40625 3.484375q0 4.46875 2.78125 8.921875l-1.203125 0zm2.3688965 -15.109375l0.421875 -1.3125q1.484375 0.515625 2.140625 0.90625q-0.171875 -1.6875 -0.171875 -2.3125l1.34375 0q-0.03125 0.90625 -0.21875 2.296875q0.953125 -0.484375 2.1875 -0.890625l0.421875 1.3125q-1.171875 0.390625 -2.296875 0.53125q0.5625 0.484375 1.59375 1.75l-1.109375 0.78125q-0.546875 -0.734375 -1.28125 -1.984375q-0.6875 1.296875 -1.203125 1.984375l-1.09375 -0.78125q1.078125 -1.328125 1.53125 -1.75q-1.1875 -0.234375 -2.265625 -0.53125zm8.385254 11.109375l0 -1.90625l1.90625 0l0 1.90625l-1.90625 0zm4.4177246 0.8125l1.609375 0.25q0.109375 0.75 0.578125 1.09375q0.609375 0.453125 1.6875 0.453125q1.171875 0 1.796875 -0.46875q0.625 -0.453125 0.859375 -1.28125q0.125 -0.515625 0.109375 -2.15625q-1.09375 1.296875 -2.71875 1.296875q-2.03125 0 -3.15625 -1.46875q-1.109375 -1.46875 -1.109375 -3.515625q0 -1.40625 0.515625 -2.59375q0.515625 -1.203125 1.484375 -1.84375q0.96875 -0.65625 2.265625 -0.65625q1.75 0 2.875 1.40625l0 -1.1875l1.546875 0l0 8.515625q0 2.3125 -0.46875 3.265625q-0.46875 0.96875 -1.484375 1.515625q-1.015625 0.5625 -2.5 0.5625q-1.765625 0 -2.859375 -0.796875q-1.078125 -0.796875 -1.03125 -2.390625zm1.375 -5.921875q0 1.953125 0.765625 2.84375q0.78125 0.890625 1.9375 0.890625q1.140625 0 1.921875 -0.890625q0.78125 -0.890625 0.78125 -2.78125q0 -1.8125 -0.8125 -2.71875q-0.796875 -0.921875 -1.921875 -0.921875q-1.109375 0 -1.890625 0.90625q-0.78125 0.890625 -0.78125 2.671875zm8.422546 5.109375l0 -1.359375l6.265625 -7.1875q-1.0625 0.046875 -1.875 0.046875l-4.015625 0l0 -1.359375l8.046875 0l0 1.109375l-5.34375 6.25l-1.015625 1.140625q1.109375 -0.078125 2.09375 -0.078125l4.5625 0l0 1.4375l-8.71875 0zm11.296875 4.0l-1.1875 0q2.765625 -4.453125 2.765625 -8.921875q0 -1.734375 -0.390625 -3.453125q-0.328125 -1.390625 -0.890625 -2.671875q-0.359375 -0.84375 -1.484375 -2.78125l1.1875 0q1.75 2.328125 2.578125 4.671875q0.71875 2.015625 0.71875 4.234375q0 2.5 -0.96875 4.84375q-0.953125 2.328125 -2.328125 4.078125z" fill-rule="nonzero"></path><path fill="#000000" fill-opacity="0.0" d="m120.12861 302.01968c0 12.499939 92.48225 25.36789 158.4147 24.999908c65.932465 -0.36801147 105.315155 -13.971893 158.4147 -27.759796c53.09958 -13.787903 119.916016 -27.759796 239.83203 -27.759796" fill-rule="nonzero"></path><path stroke="#bf9000" stroke-width="2.0" stroke-linejoin="round" stroke-linecap="butt" d="m120.12861 302.01968c0 12.499939 92.48225 25.36789 158.4147 24.999908c65.932465 -0.36801147 105.315155 -13.971893 158.4147 -27.759796c26.549774 -6.8939514 56.528778 -13.833893 94.8598 -19.050354c19.165588 -2.6082458 40.41913 -4.7855835 64.37598 -6.310913c11.978516 -0.7626343 24.632751 -1.3622742 38.039856 -1.7712402c6.7035522 -0.20449829 13.595276 -0.36132812 20.684814 -0.4670105c3.5447388 -0.052856445 7.138977 -0.092926025 10.783813 -0.119781494c0.91119385 -0.006713867 1.8255615 -0.01260376 2.743164 -0.01763916l1.4904175 -0.0068359375" fill-rule="evenodd"></path><path fill="#bf9000" stroke="#bf9000" stroke-width="2.0" stroke-linecap="butt" d="m669.93585 271.51602l-2.2438965 2.2543945l6.1742554 -2.2635803l-6.1847534 -2.2347412z" fill-rule="evenodd"></path><path fill="#f4cccc" d="m564.2992 160.81955l0 0c0 2.658142 -2.1548462 4.8130035 -4.8129883 4.8130035l0 -4.8130035c0 1.329071 -1.0773926 2.4064941 -2.4064941 2.4064941c-1.3290405 0 -2.4064941 -1.0774231 -2.4064941 -2.4064941l0 4.8130035l-178.56888 0l0 0c-2.658142 0 -4.8129883 2.1548462 -4.8129883 4.8129883l0 57.755905c0 2.658142 2.1548462 4.8129883 4.8129883 4.8129883c2.658142 0 4.8129883 -2.1548462 4.8129883 -4.8129883l0 -4.8129883l178.56888 0c2.658142 0 4.8129883 -2.1548615 4.8129883 -4.8130035zm-188.19485 14.43898c2.658142 0 4.8129883 -2.1548462 4.8129883 -4.8129883c0 -1.329071 -1.0774231 -2.4064941 -2.4064941 -2.4064941c-1.329071 0 -2.4064941 1.0774231 -2.4064941 2.4064941z" fill-rule="nonzero"></path><path fill="#c3a3a3" d="m376.10434 175.25853c2.658142 0 4.8129883 -2.1548462 4.8129883 -4.8129883c0 -1.329071 -1.0774231 -2.4064941 -2.4064941 -2.4064941c-1.329071 0 -2.4064941 1.0774231 -2.4064941 2.4064941zm183.38187 -9.625977c2.658142 0 4.8129883 -2.1548615 4.8129883 -4.8130035c0 -2.658142 -2.1548462 -4.8129883 -4.8129883 -4.8129883c-2.658142 0 -4.8129883 2.1548462 -4.8129883 4.8129883c0 1.329071 1.0774536 2.4064941 2.4064941 2.4064941c1.3291016 0 2.4064941 -1.0774231 2.4064941 -2.4064941z" fill-rule="nonzero"></path><path fill="#000000" fill-opacity="0.0" d="m371.29135 170.44554c0 -2.658142 2.1548462 -4.8129883 4.8129883 -4.8129883l178.56888 0l0 -4.8130035l0 0c0 -2.658142 2.1548462 -4.8129883 4.8129883 -4.8129883c2.658142 0 4.8129883 2.1548462 4.8129883 4.8129883l0 57.755905c0 2.658142 -2.1548462 4.8130035 -4.8129883 4.8130035l-178.56888 0l0 4.8129883c0 2.658142 -2.1548462 4.8129883 -4.8129883 4.8129883c-2.658142 0 -4.8129883 -2.1548462 -4.8129883 -4.8129883zm183.38187 -4.8129883l4.8129883 0c2.658142 0 4.8129883 -2.1548615 4.8129883 -4.8130035m-4.8129883 4.8130035l0 -4.8130035c0 1.329071 -1.0773926 2.4064941 -2.4064941 2.4064941c-1.3290405 0 -2.4064941 -1.0774231 -2.4064941 -2.4064941m-178.56888 14.43898l0 -4.8129883l0 0c0 -1.329071 1.0774231 -2.4064941 2.4064941 -2.4064941c1.329071 0 2.4064941 1.0774231 2.4064941 2.4064941c0 2.658142 -2.1548462 4.8129883 -4.8129883 4.8129883c-2.658142 0 -4.8129883 -2.1548462 -4.8129883 -4.8129883m9.625977 0l0 52.942917" fill-rule="nonzero"></path><path stroke="#cc0000" stroke-width="1.0" stroke-linejoin="round" stroke-linecap="butt" d="m371.29135 170.44554c0 -2.658142 2.1548462 -4.8129883 4.8129883 -4.8129883l178.56888 0l0 -4.8130035l0 0c0 -2.658142 2.1548462 -4.8129883 4.8129883 -4.8129883c2.658142 0 4.8129883 2.1548462 4.8129883 4.8129883l0 57.755905c0 2.658142 -2.1548462 4.8130035 -4.8129883 4.8130035l-178.56888 0l0 4.8129883c0 2.658142 -2.1548462 4.8129883 -4.8129883 4.8129883c-2.658142 0 -4.8129883 -2.1548462 -4.8129883 -4.8129883zm183.38187 -4.8129883l4.8129883 0c2.658142 0 4.8129883 -2.1548615 4.8129883 -4.8130035m-4.8129883 4.8130035l0 -4.8130035c0 1.329071 -1.0773926 2.4064941 -2.4064941 2.4064941c-1.3290405 0 -2.4064941 -1.0774231 -2.4064941 -2.4064941m-178.56888 14.43898l0 -4.8129883l0 0c0 -1.329071 1.0774231 -2.4064941 2.4064941 -2.4064941c1.329071 0 2.4064941 1.0774231 2.4064941 2.4064941c0 2.658142 -2.1548462 4.8129883 -4.8129883 4.8129883c-2.658142 0 -4.8129883 -2.1548462 -4.8129883 -4.8129883m9.625977 0l0 52.942917" fill-rule="nonzero"></path><path fill="#000000" d="m428.2163 190.4305l0 -13.59375l9.171875 0l0 1.59375l-7.375 0l0 4.21875l6.375 0l0 1.609375l-6.375 0l0 6.171875l-1.796875 0zm17.833496 -3.171875l1.71875 0.21875q-0.40625 1.5 -1.515625 2.34375q-1.09375 0.828125 -2.8125 0.828125q-2.15625 0 -3.421875 -1.328125q-1.265625 -1.328125 -1.265625 -3.734375q0 -2.484375 1.265625 -3.859375q1.28125 -1.375 3.328125 -1.375q1.984375 0 3.234375 1.34375q1.25 1.34375 1.25 3.796875q0 0.140625 -0.015625 0.4375l-7.34375 0q0.09375 1.625 0.921875 2.484375q0.828125 0.859375 2.0625 0.859375q0.90625 0 1.546875 -0.46875q0.65625 -0.484375 1.046875 -1.546875zm-5.484375 -2.703125l5.5 0q-0.109375 -1.234375 -0.625 -1.859375q-0.796875 -0.96875 -2.078125 -0.96875q-1.140625 0 -1.9375 0.78125q-0.78125 0.765625 -0.859375 2.046875zm15.860077 2.703125l1.71875 0.21875q-0.40625 1.5 -1.515625 2.34375q-1.09375 0.828125 -2.8125 0.828125q-2.15625 0 -3.421875 -1.328125q-1.265625 -1.328125 -1.265625 -3.734375q0 -2.484375 1.265625 -3.859375q1.28125 -1.375 3.328125 -1.375q1.984375 0 3.234375 1.34375q1.25 1.34375 1.25 3.796875q0 0.140625 -0.015625 0.4375l-7.34375 0q0.09375 1.625 0.921875 2.484375q0.828125 0.859375 2.0625 0.859375q0.90625 0 1.546875 -0.46875q0.65625 -0.484375 1.046875 -1.546875zm-5.484375 -2.703125l5.5 0q-0.109375 -1.234375 -0.625 -1.859375q-0.796875 -0.96875 -2.078125 -0.96875q-1.140625 0 -1.9375 0.78125q-0.78125 0.765625 -0.859375 2.046875zm15.500732 5.875l0 -1.25q-0.9375 1.46875 -2.75 1.46875q-1.171875 0 -2.171875 -0.640625q-0.984375 -0.65625 -1.53125 -1.8125q-0.53125 -1.171875 -0.53125 -2.6875q0 -1.46875 0.484375 -2.671875q0.5 -1.203125 1.46875 -1.84375q0.984375 -0.640625 2.203125 -0.640625q0.890625 0 1.578125 0.375q0.703125 0.375 1.140625 0.984375l0 -4.875l1.65625 0l0 13.59375l-1.546875 0zm-5.28125 -4.921875q0 1.890625 0.796875 2.828125q0.8125 0.9375 1.890625 0.9375q1.09375 0 1.859375 -0.890625q0.765625 -0.890625 0.765625 -2.734375q0 -2.015625 -0.78125 -2.953125q-0.78125 -0.953125 -1.921875 -0.953125q-1.109375 0 -1.859375 0.90625q-0.75 0.90625 -0.75 2.859375zm14.762146 4.921875l0 -13.59375l9.171875 0l0 1.59375l-7.375 0l0 4.21875l6.375 0l0 1.609375l-6.375 0l0 6.171875l-1.796875 0zm11.099091 -11.6875l0 -1.90625l1.671875 0l0 1.90625l-1.671875 0zm0 11.6875l0 -9.859375l1.671875 0l0 9.859375l-1.671875 0zm4.0979614 0l0 -13.59375l1.671875 0l0 13.59375l-1.671875 0zm10.926056 -3.171875l1.71875 0.21875q-0.40625 1.5 -1.515625 2.34375q-1.09375 0.828125 -2.8125 0.828125q-2.15625 0 -3.421875 -1.328125q-1.265625 -1.328125 -1.265625 -3.734375q0 -2.484375 1.265625 -3.859375q1.28125 -1.375 3.328125 -1.375q1.984375 0 3.234375 1.34375q1.25 1.34375 1.25 3.796875q0 0.140625 -0.015625 0.4375l-7.34375 0q0.09375 1.625 0.921875 2.484375q0.828125 0.859375 2.0625 0.859375q0.90625 0 1.546875 -0.46875q0.65625 -0.484375 1.046875 -1.546875zm-5.484375 -2.703125l5.5 0q-0.109375 -1.234375 -0.625 -1.859375q-0.796875 -0.96875 -2.078125 -0.96875q-1.140625 0 -1.9375 0.78125q-0.78125 0.765625 -0.859375 2.046875zm8.438232 2.9375l1.65625 -0.265625q0.140625 1.0 0.765625 1.53125q0.640625 0.515625 1.78125 0.515625q1.15625 0 1.703125 -0.46875q0.5625 -0.46875 0.5625 -1.09375q0 -0.5625 -0.484375 -0.890625q-0.34375 -0.21875 -1.703125 -0.5625q-1.84375 -0.46875 -2.5625 -0.796875q-0.703125 -0.34375 -1.078125 -0.9375q-0.359375 -0.609375 -0.359375 -1.328125q0 -0.65625 0.296875 -1.21875q0.3125 -0.5625 0.828125 -0.9375q0.390625 -0.28125 1.0625 -0.484375q0.671875 -0.203125 1.4375 -0.203125q1.171875 0 2.046875 0.34375q0.875 0.328125 1.2812195 0.90625q0.421875 0.5625 0.578125 1.515625l-1.6249695 0.21875q-0.109375 -0.75 -0.65625 -1.171875q-0.53125 -0.4375 -1.5 -0.4375q-1.15625 0 -1.640625 0.390625q-0.484375 0.375 -0.484375 0.875q0 0.328125 0.203125 0.59375q0.203125 0.265625 0.640625 0.4375q0.25 0.09375 1.46875 0.4375q1.765625 0.46875 2.46875 0.765625q0.7030945 0.296875 1.0937195 0.875q0.40625 0.578125 0.40625 1.4375q0 0.828125 -0.484375 1.578125q-0.484375 0.734375 -1.4062195 1.140625q-0.921875 0.390625 -2.078125 0.390625q-1.921875 0 -2.9375 -0.796875q-1.0 -0.796875 -1.28125 -2.359375z" fill-rule="nonzero"></path><path fill="#000000" d="m452.35287 216.4305q-1.375 -1.75 -2.328125 -4.078125q-0.953125 -2.34375 -0.953125 -4.84375q0 -2.21875 0.703125 -4.234375q0.84375 -2.34375 2.578125 -4.671875l1.203125 0q-1.125 1.921875 -1.484375 2.75q-0.5625 1.28125 -0.890625 2.671875q-0.40625 1.734375 -0.40625 3.484375q0 4.46875 2.78125 8.921875l-1.203125 0zm2.368927 -15.109375l0.421875 -1.3125q1.484375 0.515625 2.140625 0.90625q-0.171875 -1.6875 -0.171875 -2.3125l1.34375 0q-0.03125 0.90625 -0.21875 2.296875q0.953125 -0.484375 2.1875 -0.890625l0.421875 1.3125q-1.171875 0.390625 -2.296875 0.53125q0.5625 0.484375 1.59375 1.75l-1.109375 0.78125q-0.546875 -0.734375 -1.28125 -1.984375q-0.6875 1.296875 -1.203125 1.984375l-1.09375 -0.78125q1.078125 -1.328125 1.53125 -1.75q-1.1875 -0.234375 -2.265625 -0.53125zm8.385284 11.109375l0 -1.90625l1.90625 0l0 1.90625l-1.90625 0zm4.4176636 0.8125l1.609375 0.25q0.109375 0.75 0.578125 1.09375q0.609375 0.453125 1.6875 0.453125q1.171875 0 1.796875 -0.46875q0.625 -0.453125 0.859375 -1.28125q0.125 -0.515625 0.109375 -2.15625q-1.09375 1.296875 -2.71875 1.296875q-2.03125 0 -3.15625 -1.46875q-1.109375 -1.46875 -1.109375 -3.515625q0 -1.40625 0.515625 -2.59375q0.515625 -1.203125 1.484375 -1.84375q0.96875 -0.65625 2.265625 -0.65625q1.75 0 2.875 1.40625l0 -1.1875l1.546875 0l0 8.515625q0 2.3125 -0.46875 3.265625q-0.46875 0.96875 -1.484375 1.515625q-1.015625 0.5625 -2.5 0.5625q-1.765625 0 -2.859375 -0.796875q-1.078125 -0.796875 -1.03125 -2.390625zm1.375 -5.921875q0 1.953125 0.765625 2.84375q0.78125 0.890625 1.9375 0.890625q1.140625 0 1.921875 -0.890625q0.78125 -0.890625 0.78125 -2.78125q0 -1.8125 -0.8125 -2.71875q-0.796875 -0.921875 -1.921875 -0.921875q-1.109375 0 -1.890625 0.90625q-0.78125 0.890625 -0.78125 2.671875zm8.422607 5.109375l0 -1.359375l6.265625 -7.1875q-1.0625 0.046875 -1.875 0.046875l-4.015625 0l0 -1.359375l8.046875 0l0 1.109375l-5.34375 6.25l-1.015625 1.140625q1.109375 -0.078125 2.09375 -0.078125l4.5625 0l0 1.4375l-8.71875 0zm11.296875 4.0l-1.1875 0q2.765625 -4.453125 2.765625 -8.921875q0 -1.734375 -0.390625 -3.453125q-0.328125 -1.390625 -0.890625 -2.671875q-0.359375 -0.84375 -1.484375 -2.78125l1.1875 0q1.75 2.328125 2.578125 4.671875q0.71875 2.015625 0.71875 4.234375q0 2.5 -0.96875 4.84375q-0.953125 2.328125 -2.328125 4.078125z" fill-rule="nonzero"></path><path fill="#fff2cc" d="m564.2992 306.83398l0 0c0 2.658142 -2.1548462 4.8129883 -4.8129883 4.8129883l0 -4.8129883c0 1.329071 -1.0773926 2.4064941 -2.4064941 2.4064941c-1.3290405 0 -2.4064941 -1.0774231 -2.4064941 -2.4064941l0 4.8129883l-178.56888 0l0 0c-2.658142 0 -4.8129883 2.1548462 -4.8129883 4.8129883l0 57.75592c0 2.658142 2.1548462 4.8129883 4.8129883 4.8129883c2.658142 0 4.8129883 -2.1548462 4.8129883 -4.8129883l0 -4.8129883l178.56888 0c2.658142 0 4.8129883 -2.1548462 4.8129883 -4.8129883zm-188.19485 14.438995c2.658142 0 4.8129883 -2.1548767 4.8129883 -4.813019c0 -1.329071 -1.0774231 -2.4064941 -2.4064941 -2.4064941c-1.329071 0 -2.4064941 1.0774231 -2.4064941 2.4064941z" fill-rule="nonzero"></path><path fill="#cbc1a3" d="m376.10434 321.27298c2.658142 0 4.8129883 -2.1548767 4.8129883 -4.813019c0 -1.329071 -1.0774231 -2.4064941 -2.4064941 -2.4064941c-1.329071 0 -2.4064941 1.0774231 -2.4064941 2.4064941zm183.38187 -9.626007c2.658142 0 4.8129883 -2.1548462 4.8129883 -4.8129883c0 -2.658142 -2.1548462 -4.8129883 -4.8129883 -4.8129883c-2.658142 0 -4.8129883 2.1548462 -4.8129883 4.8129883c0 1.329071 1.0774536 2.4064941 2.4064941 2.4064941c1.3291016 0 2.4064941 -1.0774231 2.4064941 -2.4064941z" fill-rule="nonzero"></path><path fill="#000000" fill-opacity="0.0" d="m371.29135 316.45996c0 -2.658142 2.1548462 -4.8129883 4.8129883 -4.8129883l178.56888 0l0 -4.8129883l0 0c0 -2.658142 2.1548462 -4.8129883 4.8129883 -4.8129883c2.658142 0 4.8129883 2.1548462 4.8129883 4.8129883l0 57.75592c0 2.658142 -2.1548462 4.8129883 -4.8129883 4.8129883l-178.56888 0l0 4.8129883c0 2.658142 -2.1548462 4.8129883 -4.8129883 4.8129883c-2.658142 0 -4.8129883 -2.1548462 -4.8129883 -4.8129883zm183.38187 -4.8129883l4.8129883 0c2.658142 0 4.8129883 -2.1548462 4.8129883 -4.8129883m-4.8129883 4.8129883l0 -4.8129883c0 1.329071 -1.0773926 2.4064941 -2.4064941 2.4064941c-1.3290405 0 -2.4064941 -1.0774231 -2.4064941 -2.4064941m-178.56888 14.438995l0 -4.813019l0 0c0 -1.329071 1.0774231 -2.4064941 2.4064941 -2.4064941c1.329071 0 2.4064941 1.0774231 2.4064941 2.4064941c0 2.658142 -2.1548462 4.813019 -4.8129883 4.813019c-2.658142 0 -4.8129883 -2.1548767 -4.8129883 -4.813019m9.625977 0l0 52.942932" fill-rule="nonzero"></path><path stroke="#bf9000" stroke-width="1.0" stroke-linejoin="round" stroke-linecap="butt" d="m371.29135 316.45996c0 -2.658142 2.1548462 -4.8129883 4.8129883 -4.8129883l178.56888 0l0 -4.8129883l0 0c0 -2.658142 2.1548462 -4.8129883 4.8129883 -4.8129883c2.658142 0 4.8129883 2.1548462 4.8129883 4.8129883l0 57.75592c0 2.658142 -2.1548462 4.8129883 -4.8129883 4.8129883l-178.56888 0l0 4.8129883c0 2.658142 -2.1548462 4.8129883 -4.8129883 4.8129883c-2.658142 0 -4.8129883 -2.1548462 -4.8129883 -4.8129883zm183.38187 -4.8129883l4.8129883 0c2.658142 0 4.8129883 -2.1548462 4.8129883 -4.8129883m-4.8129883 4.8129883l0 -4.8129883c0 1.329071 -1.0773926 2.4064941 -2.4064941 2.4064941c-1.3290405 0 -2.4064941 -1.0774231 -2.4064941 -2.4064941m-178.56888 14.438995l0 -4.813019l0 0c0 -1.329071 1.0774231 -2.4064941 2.4064941 -2.4064941c1.329071 0 2.4064941 1.0774231 2.4064941 2.4064941c0 2.658142 -2.1548462 4.813019 -4.8129883 4.813019c-2.658142 0 -4.8129883 -2.1548767 -4.8129883 -4.813019m9.625977 0l0 52.942932" fill-rule="nonzero"></path><path fill="#000000" d="m424.0383 336.44495l0 -13.59375l1.8125 0l0 5.578125l7.0625 0l0 -5.578125l1.796875 0l0 13.59375l-1.796875 0l0 -6.40625l-7.0625 0l0 6.40625l-1.8125 0zm16.87918 0l0 -12.0l-4.46875 0l0 -1.59375l10.765625 0l0 1.59375l-4.5 0l0 12.0l-1.796875 0zm7.880371 0l0 -13.59375l2.71875 0l3.21875 9.625q0.4375 1.34375 0.640625 2.015625q0.234375 -0.75 0.734375 -2.1875l3.25 -9.453125l2.421875 0l0 13.59375l-1.734375 0l0 -11.390625l-3.953125 11.390625l-1.625 0l-3.9375 -11.578125l0 11.578125l-1.734375 0zm15.525177 0l0 -13.59375l1.796875 0l0 11.984375l6.703125 0l0 1.609375l-8.5 0zm15.730896 0l0 -13.59375l9.171875 0l0 1.59375l-7.375 0l0 4.21875l6.375 0l0 1.609375l-6.375 0l0 6.171875l-1.796875 0zm11.099091 -11.6875l0 -1.90625l1.671875 0l0 1.90625l-1.671875 0zm0 11.6875l0 -9.859375l1.671875 0l0 9.859375l-1.671875 0zm4.0979614 0l0 -13.59375l1.671875 0l0 13.59375l-1.671875 0zm10.926056 -3.171875l1.71875 0.21875q-0.40625 1.5 -1.515625 2.34375q-1.09375 0.828125 -2.8125 0.828125q-2.15625 0 -3.421875 -1.328125q-1.265625 -1.328125 -1.265625 -3.734375q0 -2.484375 1.265625 -3.859375q1.28125 -1.375 3.328125 -1.375q1.984375 0 3.234375 1.34375q1.25 1.34375 1.25 3.796875q0 0.140625 -0.015625 0.4375l-7.34375 0q0.09375 1.625 0.921875 2.484375q0.828125 0.859375 2.0625 0.859375q0.90625 0 1.546875 -0.46875q0.65625 -0.484375 1.046875 -1.546875zm-5.484375 -2.703125l5.5 0q-0.109375 -1.234375 -0.625 -1.859375q-0.796875 -0.96875 -2.078125 -0.96875q-1.140625 0 -1.9375 0.78125q-0.78125 0.765625 -0.859375 2.046875zm8.438232 2.9375l1.65625 -0.265625q0.140625 1.0 0.765625 1.53125q0.6405945 0.515625 1.7812195 0.515625q1.15625 0 1.703125 -0.46875q0.5625 -0.46875 0.5625 -1.09375q0 -0.5625 -0.484375 -0.890625q-0.34375 -0.21875 -1.703125 -0.5625q-1.8437195 -0.46875 -2.5624695 -0.796875q-0.703125 -0.34375 -1.078125 -0.9375q-0.359375 -0.609375 -0.359375 -1.328125q0 -0.65625 0.296875 -1.21875q0.3125 -0.5625 0.828125 -0.9375q0.390625 -0.28125 1.0625 -0.484375q0.6718445 -0.203125 1.4374695 -0.203125q1.171875 0 2.046875 0.34375q0.875 0.328125 1.28125 0.90625q0.421875 0.5625 0.578125 1.515625l-1.625 0.21875q-0.109375 -0.75 -0.65625 -1.171875q-0.53125 -0.4375 -1.5 -0.4375q-1.15625 0 -1.6405945 0.390625q-0.484375 0.375 -0.484375 0.875q0 0.328125 0.203125 0.59375q0.203125 0.265625 0.640625 0.4375q0.24996948 0.09375 1.4687195 0.4375q1.765625 0.46875 2.46875 0.765625q0.703125 0.296875 1.09375 0.875q0.40625 0.578125 0.40625 1.4375q0 0.828125 -0.484375 1.578125q-0.484375 0.734375 -1.40625 1.140625q-0.921875 0.390625 -2.078125 0.390625q-1.9218445 0 -2.9374695 -0.796875q-1.0 -0.796875 -1.28125 -2.359375z" fill-rule="nonzero"></path><path fill="#000000" d="m407.06958 362.44495q-1.375 -1.75 -2.328125 -4.078125q-0.953125 -2.34375 -0.953125 -4.84375q0 -2.21875 0.703125 -4.234375q0.84375 -2.34375 2.578125 -4.671875l1.203125 0q-1.125 1.921875 -1.484375 2.75q-0.5625 1.28125 -0.890625 2.671875q-0.40625 1.734375 -0.40625 3.484375q0 4.46875 2.78125 8.921875l-1.203125 0zm2.368927 -15.109375l0.421875 -1.3125q1.484375 0.515625 2.140625 0.90625q-0.171875 -1.6875 -0.171875 -2.3125l1.34375 0q-0.03125 0.90625 -0.21875 2.296875q0.953125 -0.484375 2.1875 -0.890625l0.421875 1.3125q-1.171875 0.390625 -2.296875 0.53125q0.5625 0.484375 1.59375 1.75l-1.109375 0.78125q-0.546875 -0.734375 -1.28125 -1.984375q-0.6875 1.296875 -1.203125 1.984375l-1.09375 -0.78125q1.078125 -1.328125 1.53125 -1.75q-1.1875 -0.234375 -2.265625 -0.53125zm8.385254 11.109375l0 -1.90625l1.90625 0l0 1.90625l-1.90625 0zm4.714569 0l0 -13.59375l1.671875 0l0 4.875q1.171875 -1.359375 2.953125 -1.359375q1.09375 0 1.890625 0.4375q0.8125 0.421875 1.15625 1.1875q0.359375 0.765625 0.359375 2.203125l0 6.25l-1.671875 0l0 -6.25q0 -1.25 -0.546875 -1.8125q-0.546875 -0.578125 -1.53125 -0.578125q-0.75 0 -1.40625 0.390625q-0.640625 0.375 -0.921875 1.046875q-0.28125 0.65625 -0.28125 1.8125l0 5.390625l-1.671875 0zm14.031952 -1.5l0.234375 1.484375q-0.703125 0.140625 -1.265625 0.140625q-0.90625 0 -1.40625 -0.28125q-0.5 -0.296875 -0.703125 -0.75q-0.203125 -0.46875 -0.203125 -1.984375l0 -5.65625l-1.234375 0l0 -1.3125l1.234375 0l0 -2.4375l1.65625 -1.0l0 3.4375l1.6875 0l0 1.3125l-1.6875 0l0 5.75q0 0.71875 0.078125 0.921875q0.09375 0.203125 0.296875 0.328125q0.203125 0.125 0.578125 0.125q0.265625 0 0.734375 -0.078125zm1.5270691 1.5l0 -9.859375l1.5 0l0 1.390625q0.453125 -0.71875 1.21875 -1.15625q0.78125 -0.453125 1.765625 -0.453125q1.09375 0 1.796875 0.453125q0.703125 0.453125 0.984375 1.28125q1.171875 -1.734375 3.046875 -1.734375q1.46875 0 2.25 0.8125q0.796875 0.8125 0.796875 2.5l0 6.765625l-1.671875 0l0 -6.203125q0 -1.0 -0.15625 -1.4375q-0.15625 -0.453125 -0.59375 -0.71875q-0.421875 -0.265625 -1.0 -0.265625q-1.03125 0 -1.71875 0.6875q-0.6875 0.6875 -0.6875 2.21875l0 5.71875l-1.671875 0l0 -6.40625q0 -1.109375 -0.40625 -1.65625q-0.40625 -0.5625 -1.34375 -0.5625q-0.703125 0 -1.3125 0.375q-0.59375 0.359375 -0.859375 1.078125q-0.265625 0.71875 -0.265625 2.0625l0 5.109375l-1.671875 0zm15.509552 0l0 -13.59375l1.671875 0l0 13.59375l-1.671875 0zm9.859375 4.0l0 -17.828125l1.453125 0l0 17.828125l-1.453125 0zm9.529541 -15.65625l0 -1.9375l1.65625 0l0 1.9375l-1.65625 0zm-2.125 15.484375l0.3125 -1.421875q0.5 0.125 0.796875 0.125q0.515625 0 0.765625 -0.34375q0.25 -0.328125 0.25 -1.6875l0 -10.359375l1.65625 0l0 10.390625q0 1.828125 -0.46875 2.546875q-0.59375 0.921875 -2.0 0.921875q-0.671875 0 -1.3125 -0.171875zm5.5979614 -6.765625l1.65625 -0.265625q0.140625 1.0 0.765625 1.53125q0.640625 0.515625 1.78125 0.515625q1.15625 0 1.703125 -0.46875q0.5625 -0.46875 0.5625 -1.09375q0 -0.5625 -0.484375 -0.890625q-0.34375 -0.21875 -1.703125 -0.5625q-1.84375 -0.46875 -2.5625 -0.796875q-0.703125 -0.34375 -1.078125 -0.9375q-0.359375 -0.609375 -0.359375 -1.328125q0 -0.65625 0.296875 -1.21875q0.3125 -0.5625 0.828125 -0.9375q0.390625 -0.28125 1.0625 -0.484375q0.671875 -0.203125 1.4375 -0.203125q1.171875 0 2.046875 0.34375q0.875 0.328125 1.28125 0.90625q0.421875 0.5625 0.578125 1.515625l-1.625 0.21875q-0.109375 -0.75 -0.65625 -1.171875q-0.53125 -0.4375 -1.5 -0.4375q-1.15625 0 -1.640625 0.390625q-0.484375 0.375 -0.484375 0.875q0 0.328125 0.203125 0.59375q0.203125 0.265625 0.640625 0.4375q0.25 0.09375 1.46875 0.4375q1.765625 0.46875 2.46875 0.765625q0.703125 0.296875 1.09375 0.875q0.40625 0.578125 0.40625 1.4375q0 0.828125 -0.484375 1.578125q-0.484375 0.734375 -1.40625 1.140625q-0.921875 0.390625 -2.078125 0.390625q-1.921875 0 -2.9375 -0.796875q-1.0 -0.796875 -1.28125 -2.359375zm15.683289 6.9375l0 -17.828125l1.453125 0l0 17.828125l-1.453125 0zm9.529572 -0.21875l0 -13.640625l1.53125 0l0 1.28125q0.53125 -0.75 1.203125 -1.125q0.6875 -0.375 1.640625 -0.375q1.265625 0 2.234375 0.65625q0.96875 0.640625 1.453125 1.828125q0.5 1.1875 0.5 2.59375q0 1.515625 -0.546875 2.734375q-0.546875 1.203125 -1.578125 1.84375q-1.03125 0.640625 -2.171875 0.640625q-0.84375 0 -1.515625 -0.34375q-0.65625 -0.359375 -1.078125 -0.890625l0 4.796875l-1.671875 0zm1.515625 -8.65625q0 1.90625 0.765625 2.8125q0.78125 0.90625 1.875 0.90625q1.109375 0 1.890625 -0.9375q0.796875 -0.9375 0.796875 -2.921875q0 -1.875 -0.78125 -2.8125q-0.765625 -0.9375 -1.84375 -0.9375q-1.0625 0 -1.890625 1.0q-0.8125 1.0 -0.8125 2.890625zm8.860107 4.875l0 -9.859375l1.5 0l0 1.40625q1.09375 -1.625 3.140625 -1.625q0.890625 0 1.640625 0.328125q0.75 0.3125 1.109375 0.84375q0.375 0.515625 0.53125 1.21875q0.09375 0.46875 0.09375 1.625l0 6.0625l-1.671875 0l0 -6.0q0 -1.015625 -0.203125 -1.515625q-0.1875 -0.515625 -0.6875 -0.8125q-0.5 -0.296875 -1.171875 -0.296875q-1.0625 0 -1.84375 0.671875q-0.765625 0.671875 -0.765625 2.578125l0 5.375l-1.671875 0zm10.078796 0.8125l1.609375 0.25q0.109375 0.75 0.578125 1.09375q0.609375 0.453125 1.6875 0.453125q1.171875 0 1.796875 -0.46875q0.625 -0.453125 0.859375 -1.28125q0.125 -0.515625 0.109375 -2.15625q-1.09375 1.296875 -2.71875 1.296875q-2.03125 0 -3.15625 -1.46875q-1.109375 -1.46875 -1.109375 -3.515625q0 -1.40625 0.515625 -2.59375q0.515625 -1.203125 1.484375 -1.84375q0.96875 -0.65625 2.265625 -0.65625q1.75 0 2.875 1.40625l0 -1.1875l1.546875 0l0 8.515625q0 2.3125 -0.46875 3.265625q-0.46875 0.96875 -1.484375 1.515625q-1.015625 0.5625 -2.5 0.5625q-1.765625 0 -2.859375 -0.796875q-1.078125 -0.796875 -1.03125 -2.390625zm1.375 -5.921875q0 1.953125 0.765625 2.84375q0.78125 0.890625 1.9375 0.890625q1.140625 0 1.921875 -0.890625q0.78125 -0.890625 0.78125 -2.78125q0 -1.8125 -0.8125 -2.71875q-0.796875 -0.921875 -1.921875 -0.921875q-1.109375 0 -1.890625 0.90625q-0.78125 0.890625 -0.78125 2.671875zm10.391357 9.109375l-1.1875 0q2.765625 -4.453125 2.765625 -8.921875q0 -1.734375 -0.390625 -3.453125q-0.328125 -1.390625 -0.890625 -2.671875q-0.359375 -0.84375 -1.484375 -2.78125l1.1875 0q1.75 2.328125 2.578125 4.671875q0.71875 2.015625 0.71875 4.234375q0 2.5 -0.96875 4.84375q-0.953125 2.328125 -2.328125 4.078125z" fill-rule="nonzero"></path><path fill="#d9d2e9" d="m564.2992 29.326115l0 0c0 2.658142 -2.1548462 4.812992 -4.8129883 4.812992l0 -4.812992c0 1.329071 -1.0773926 2.406496 -2.4064941 2.406496c-1.3290405 0 -2.4064941 -1.077425 -2.4064941 -2.406496l0 4.812992l-178.56888 0l0 0c-2.658142 0 -4.8129883 2.15485 -4.8129883 4.812992l0 57.75591c0 2.658142 2.1548462 4.8129883 4.8129883 4.8129883c2.658142 0 4.8129883 -2.1548462 4.8129883 -4.8129883l0 -4.812996l178.56888 0c2.658142 0 4.8129883 -2.1548462 4.8129883 -4.8129883zm-188.19485 14.438976c2.658142 0 4.8129883 -2.15485 4.8129883 -4.812992c0 -1.329071 -1.0774231 -2.4064941 -2.4064941 -2.4064941c-1.329071 0 -2.4064941 1.0774231 -2.4064941 2.4064941z" fill-rule="nonzero"></path><path fill="#ada7ba" d="m376.10434 43.76509c2.658142 0 4.8129883 -2.15485 4.8129883 -4.812992c0 -1.329071 -1.0774231 -2.4064941 -2.4064941 -2.4064941c-1.329071 0 -2.4064941 1.0774231 -2.4064941 2.4064941zm183.38187 -9.625984c2.658142 0 4.8129883 -2.15485 4.8129883 -4.812992c0 -2.658142 -2.1548462 -4.812992 -4.8129883 -4.812992c-2.658142 0 -4.8129883 2.15485 -4.8129883 4.812992c0 1.329071 1.0774536 2.406496 2.4064941 2.406496c1.3291016 0 2.4064941 -1.077425 2.4064941 -2.406496z" fill-rule="nonzero"></path><path fill="#000000" fill-opacity="0.0" d="m371.29135 38.9521c0 -2.658142 2.1548462 -4.812992 4.8129883 -4.812992l178.56888 0l0 -4.812992l0 0c0 -2.658142 2.1548462 -4.812992 4.8129883 -4.812992c2.658142 0 4.8129883 2.15485 4.8129883 4.812992l0 57.75591c0 2.658142 -2.1548462 4.8129883 -4.8129883 4.8129883l-178.56888 0l0 4.812996c0 2.658142 -2.1548462 4.8129883 -4.8129883 4.8129883c-2.658142 0 -4.8129883 -2.1548462 -4.8129883 -4.8129883zm183.38187 -4.812992l4.8129883 0c2.658142 0 4.8129883 -2.15485 4.8129883 -4.812992m-4.8129883 4.812992l0 -4.812992c0 1.329071 -1.0773926 2.406496 -2.4064941 2.406496c-1.3290405 0 -2.4064941 -1.077425 -2.4064941 -2.406496m-178.56888 14.438976l0 -4.812992l0 0c0 -1.329071 1.0774231 -2.4064941 2.4064941 -2.4064941c1.329071 0 2.4064941 1.0774231 2.4064941 2.4064941c0 2.658142 -2.1548462 4.812992 -4.8129883 4.812992c-2.658142 0 -4.8129883 -2.15485 -4.8129883 -4.812992m9.625977 0l0 52.942913" fill-rule="nonzero"></path><path stroke="#9900ff" stroke-width="1.0" stroke-linejoin="round" stroke-linecap="butt" d="m371.29135 38.9521c0 -2.658142 2.1548462 -4.812992 4.8129883 -4.812992l178.56888 0l0 -4.812992l0 0c0 -2.658142 2.1548462 -4.812992 4.8129883 -4.812992c2.658142 0 4.8129883 2.15485 4.8129883 4.812992l0 57.75591c0 2.658142 -2.1548462 4.8129883 -4.8129883 4.8129883l-178.56888 0l0 4.812996c0 2.658142 -2.1548462 4.8129883 -4.8129883 4.8129883c-2.658142 0 -4.8129883 -2.1548462 -4.8129883 -4.8129883zm183.38187 -4.812992l4.8129883 0c2.658142 0 4.8129883 -2.15485 4.8129883 -4.812992m-4.8129883 4.812992l0 -4.812992c0 1.329071 -1.0773926 2.406496 -2.4064941 2.406496c-1.3290405 0 -2.4064941 -1.077425 -2.4064941 -2.406496m-178.56888 14.438976l0 -4.812992l0 0c0 -1.329071 1.0774231 -2.4064941 2.4064941 -2.4064941c1.329071 0 2.4064941 1.0774231 2.4064941 2.4064941c0 2.658142 -2.1548462 4.812992 -4.8129883 4.812992c-2.658142 0 -4.8129883 -2.15485 -4.8129883 -4.812992m9.625977 0l0 52.942913" fill-rule="nonzero"></path><path fill="#000000" d="m396.5126 58.937057l0 -13.59375l5.125 0q1.359375 0 2.078125 0.125q1.0 0.171875 1.671875 0.640625q0.671875 0.46875 1.078125 1.3125q0.421875 0.84375 0.421875 1.84375q0 1.734375 -1.109375 2.9375q-1.09375 1.203125 -3.984375 1.203125l-3.484375 0l0 5.53125l-1.796875 0zm1.796875 -7.140625l3.515625 0q1.75 0 2.46875 -0.640625q0.734375 -0.65625 0.734375 -1.828125q0 -0.859375 -0.4375 -1.46875q-0.421875 -0.609375 -1.125 -0.796875q-0.453125 -0.125 -1.671875 -0.125l-3.484375 0l0 4.859375zm16.881073 7.140625l0 -1.453125q-1.140625 1.671875 -3.125 1.671875q-0.859375 0 -1.625 -0.328125q-0.75 -0.34375 -1.125 -0.84375q-0.359375 -0.5 -0.515625 -1.234375q-0.09375 -0.5 -0.09375 -1.5625l0 -6.109375l1.671875 0l0 5.46875q0 1.3125 0.09375 1.765625q0.15625 0.65625 0.671875 1.03125q0.515625 0.375 1.265625 0.375q0.75 0 1.40625 -0.375q0.65625 -0.390625 0.921875 -1.046875q0.28125 -0.671875 0.28125 -1.9375l0 -5.28125l1.671875 0l0 9.859375l-1.5 0zm5.4694824 0l-1.546875 0l0 -13.59375l1.65625 0l0 4.84375q1.0625 -1.328125 2.703125 -1.328125q0.90625 0 1.71875 0.375q0.8125 0.359375 1.328125 1.03125q0.53125 0.65625 0.828125 1.59375q0.296875 0.9375 0.296875 2.0q0 2.53125 -1.25 3.921875q-1.25 1.375 -3.0 1.375q-1.75 0 -2.734375 -1.453125l0 1.234375zm-0.015625 -5.0q0 1.765625 0.46875 2.5625q0.796875 1.28125 2.140625 1.28125q1.09375 0 1.890625 -0.9375q0.796875 -0.953125 0.796875 -2.84375q0 -1.921875 -0.765625 -2.84375q-0.765625 -0.921875 -1.84375 -0.921875q-1.09375 0 -1.890625 0.953125q-0.796875 0.953125 -0.796875 2.75zm8.813202 5.0l0 -13.59375l1.671875 0l0 13.59375l-1.671875 0zm4.1917114 -11.6875l0 -1.90625l1.671875 0l0 1.90625l-1.671875 0zm0 11.6875l0 -9.859375l1.671875 0l0 9.859375l-1.671875 0zm10.566681 -3.609375l1.640625 0.21875q-0.265625 1.6875 -1.375 2.65625q-1.109375 0.953125 -2.734375 0.953125q-2.015625 0 -3.25 -1.3125q-1.21875 -1.328125 -1.21875 -3.796875q0 -1.59375 0.515625 -2.78125q0.53125 -1.203125 1.609375 -1.796875q1.09375 -0.609375 2.359375 -0.609375q1.609375 0 2.625 0.8125q1.015625 0.8125 1.3125 2.3125l-1.625 0.25q-0.234375 -1.0 -0.828125 -1.5q-0.59375 -0.5 -1.421875 -0.5q-1.265625 0 -2.0625 0.90625q-0.78125 0.90625 -0.78125 2.859375q0 1.984375 0.765625 2.890625q0.765625 0.890625 1.984375 0.890625q0.984375 0 1.640625 -0.59375q0.65625 -0.609375 0.84375 -1.859375zm14.652069 -1.71875l0 -1.609375l5.765625 0l0 5.046875q-1.328125 1.0625 -2.75 1.59375q-1.40625 0.53125 -2.890625 0.53125q-2.0 0 -3.640625 -0.859375q-1.625 -0.859375 -2.46875 -2.484375q-0.828125 -1.625 -0.828125 -3.625q0 -1.984375 0.828125 -3.703125q0.828125 -1.71875 2.390625 -2.546875q1.5625 -0.84375 3.59375 -0.84375q1.46875 0 2.65625 0.484375q1.203125 0.46875 1.875 1.328125q0.671875 0.84375 1.03125 2.21875l-1.625 0.4375q-0.3125 -1.03125 -0.765625 -1.625q-0.453125 -0.59375 -1.296875 -0.953125q-0.84375 -0.359375 -1.875 -0.359375q-1.234375 0 -2.140625 0.375q-0.890625 0.375 -1.453125 1.0q-0.546875 0.609375 -0.84375 1.34375q-0.53125 1.25 -0.53125 2.734375q0 1.8125 0.625 3.046875q0.640625 1.21875 1.828125 1.8125q1.203125 0.59375 2.546875 0.59375q1.171875 0 2.28125 -0.453125q1.109375 -0.453125 1.6875 -0.953125l0 -2.53125l-4.0 0zm11.605164 5.328125l0 -12.0l-4.46875 0l0 -1.59375l10.765625 0l0 1.59375l-4.5 0l0 12.0l-1.796875 0zm8.036621 0l0 -13.59375l9.171875 0l0 1.59375l-7.375 0l0 4.21875l6.375 0l0 1.609375l-6.375 0l0 6.171875l-1.796875 0zm10.692841 -4.375l1.6875 -0.140625q0.125 1.015625 0.5625 1.671875q0.4375 0.65625 1.359375 1.0625q0.9375 0.40625 2.09375 0.40625q1.03125 0 1.8125 -0.3125q0.796875 -0.3125 1.1875 -0.84375q0.390625 -0.53125 0.390625 -1.15625q0 -0.640625 -0.375 -1.109375q-0.375 -0.484375 -1.234375 -0.8125q-0.546875 -0.21875 -2.421875 -0.65625q-1.875 -0.453125 -2.625 -0.859375q-0.96875 -0.515625 -1.453125 -1.265625q-0.46875 -0.75 -0.46875 -1.6875q0 -1.03125 0.578125 -1.921875q0.59375 -0.90625 1.703125 -1.359375q1.125 -0.46875 2.5 -0.46875q1.515625 0 2.671875 0.484375q1.15625 0.484375 1.765625 1.4375q0.625 0.9375 0.671875 2.140625l-1.71875 0.125q-0.140625 -1.28125 -0.953125 -1.9375q-0.796875 -0.671875 -2.359375 -0.671875q-1.625 0 -2.375 0.609375q-0.75 0.59375 -0.75 1.4375q0 0.734375 0.53125 1.203125q0.515625 0.46875 2.703125 0.96875q2.203125 0.5 3.015625 0.875q1.1875 0.546875 1.75 1.390625q0.578125 0.828125 0.578125 1.921875q0 1.09375 -0.625 2.0625q-0.625 0.953125 -1.796875 1.484375q-1.15625 0.53125 -2.609375 0.53125q-1.84375 0 -3.09375 -0.53125q-1.25 -0.546875 -1.96875 -1.625q-0.703125 -1.078125 -0.734375 -2.453125zm18.330017 4.375l0 -13.59375l9.171875 0l0 1.59375l-7.375 0l0 4.21875l6.375 0l0 1.609375l-6.375 0l0 6.171875l-1.796875 0zm11.099121 -11.6875l0 -1.90625l1.671875 0l0 1.90625l-1.671875 0zm0 11.6875l0 -9.859375l1.671875 0l0 9.859375l-1.671875 0zm4.0979004 0l0 -13.59375l1.671875 0l0 13.59375l-1.671875 0zm10.926086 -3.171875l1.71875 0.21875q-0.40625 1.5 -1.515625 2.34375q-1.09375 0.828125 -2.8125 0.828125q-2.15625 0 -3.421875 -1.328125q-1.265625 -1.328125 -1.265625 -3.734375q0 -2.484375 1.265625 -3.859375q1.28125 -1.375 3.328125 -1.375q1.984375 0 3.234375 1.34375q1.25 1.34375 1.25 3.796875q0 0.140625 -0.015625 0.4375l-7.34375 0q0.09375 1.625 0.921875 2.484375q0.828125 0.859375 2.0625 0.859375q0.90625 0 1.546875 -0.46875q0.65625 -0.484375 1.046875 -1.546875zm-5.484375 -2.703125l5.5 0q-0.109375 -1.234375 -0.625 -1.859375q-0.796875 -0.96875 -2.078125 -0.96875q-1.140625 0 -1.9375 0.78125q-0.78125 0.765625 -0.859375 2.046875zm8.438232 2.9375l1.65625 -0.265625q0.140625 1.0 0.765625 1.53125q0.640625 0.515625 1.78125 0.515625q1.15625 0 1.703125 -0.46875q0.5625 -0.46875 0.5625 -1.09375q0 -0.5625 -0.484375 -0.890625q-0.34375 -0.21875 -1.703125 -0.5625q-1.84375 -0.46875 -2.5625 -0.796875q-0.703125 -0.34375 -1.078125 -0.9375q-0.359375 -0.609375 -0.359375 -1.328125q0 -0.65625 0.296875 -1.21875q0.3125 -0.5625 0.828125 -0.9375q0.390625 -0.28125 1.0625 -0.484375q0.671875 -0.203125 1.4375 -0.203125q1.171875 0 2.046875 0.34375q0.875 0.328125 1.28125 0.90625q0.421875 0.5625 0.578125 1.515625l-1.625 0.21875q-0.109375 -0.75 -0.65625 -1.171875q-0.53125 -0.4375 -1.5 -0.4375q-1.15625 0 -1.640625 0.390625q-0.484375 0.375 -0.484375 0.875q0 0.328125 0.203125 0.59375q0.203125 0.265625 0.640625 0.4375q0.25 0.09375 1.46875 0.4375q1.765625 0.46875 2.46875 0.765625q0.703125 0.296875 1.09375 0.875q0.40625 0.578125 0.40625 1.4375q0 0.828125 -0.484375 1.578125q-0.484375 0.734375 -1.40625 1.140625q-0.921875 0.390625 -2.078125 0.390625q-1.921875 0 -2.9375 -0.796875q-1.0 -0.796875 -1.28125 -2.359375z" fill-rule="nonzero"></path><path fill="#000000" d="m450.2805 84.93706q-1.375 -1.75 -2.328125 -4.078125q-0.953125 -2.34375 -0.953125 -4.84375q0 -2.21875 0.703125 -4.234375q0.84375 -2.34375 2.578125 -4.671875l1.203125 0q-1.125 1.921875 -1.484375 2.75q-0.5625 1.28125 -0.890625 2.671875q-0.40625 1.734375 -0.40625 3.484375q0 4.46875 2.78125 8.921875l-1.203125 0zm2.368927 -15.109375l0.421875 -1.3125q1.484375 0.515625 2.140625 0.90625q-0.171875 -1.6875 -0.171875 -2.3125l1.34375 0q-0.03125 0.90625 -0.21875 2.296875q0.953125 -0.484375 2.1875 -0.890625l0.421875 1.3125q-1.171875 0.390625 -2.296875 0.53125q0.5625 0.484375 1.59375 1.75l-1.109375 0.78125q-0.546875 -0.734375 -1.28125 -1.984375q-0.6875 1.296875 -1.203125 1.984375l-1.09375 -0.78125q1.078125 -1.328125 1.53125 -1.75q-1.1875 -0.234375 -2.265625 -0.53125zm8.385254 11.109375l0 -1.90625l1.90625 0l0 1.90625l-1.90625 0zm3.839569 0l0 -1.359375l6.265625 -7.1875q-1.0625 0.046875 -1.875 0.046875l-4.015625 0l0 -1.359375l8.046875 0l0 1.109375l-5.34375 6.25l-1.015625 1.140625q1.109375 -0.078125 2.09375 -0.078125l4.5625 0l0 1.4375l-8.71875 0zm10.21875 -11.6875l0 -1.90625l1.671875 0l0 1.90625l-1.671875 0zm0 11.6875l0 -9.859375l1.671875 0l0 9.859375l-1.671875 0zm4.129181 3.78125l0 -13.640625l1.53125 0l0 1.28125q0.53125 -0.75 1.203125 -1.125q0.6875 -0.375 1.640625 -0.375q1.265625 0 2.234375 0.65625q0.96875 0.640625 1.453125 1.828125q0.5 1.1875 0.5 2.59375q0 1.515625 -0.546875 2.734375q-0.546875 1.203125 -1.578125 1.84375q-1.03125 0.640625 -2.171875 0.640625q-0.84375 0 -1.515625 -0.34375q-0.65625 -0.359375 -1.078125 -0.890625l0 4.796875l-1.671875 0zm1.515625 -8.65625q0 1.90625 0.765625 2.8125q0.78125 0.90625 1.875 0.90625q1.109375 0 1.890625 -0.9375q0.796875 -0.9375 0.796875 -2.921875q0 -1.875 -0.78125 -2.8125q-0.765625 -0.9375 -1.84375 -0.9375q-1.0625 0 -1.890625 1.0q-0.8125 1.0 -0.8125 2.890625zm9.953857 8.875l-1.1875 0q2.765625 -4.453125 2.765625 -8.921875q0 -1.734375 -0.390625 -3.453125q-0.328125 -1.390625 -0.890625 -2.671875q-0.359375 -0.84375 -1.484375 -2.78125l1.1875 0q1.75 2.328125 2.578125 4.671875q0.71875 2.015625 0.71875 4.234375q0 2.5 -0.96875 4.84375q-0.953125 2.328125 -2.328125 4.078125z" fill-rule="nonzero"></path><path fill="#000000" fill-opacity="0.0" d="m371.29135 63.01706c-125.574814 0 -251.14963 80.99213 -251.14963 161.98425" fill-rule="nonzero"></path><path stroke="#9900ff" stroke-width="2.0" stroke-linejoin="round" stroke-linecap="butt" d="m371.29135 63.01706c-62.787415 0 -125.574814 20.248032 -172.66536 50.62008c-23.545288 15.186028 -43.16635 32.903053 -56.901093 51.885582c-6.8673706 9.491257 -12.263168 19.298904 -15.942108 29.264725c-1.8394775 4.98291 -3.249733 10.005386 -4.2001343 15.047607c-0.47519684 2.5211182 -0.83543396 5.04718 -1.0768661 7.5757294l-0.06655121 0.74282837" fill-rule="evenodd"></path><path fill="#9900ff" stroke="#9900ff" stroke-width="2.0" stroke-linecap="butt" d="m120.43925 218.1536l-2.1494217 -2.3446655l1.9788208 6.271332l2.515274 -6.0760803z" fill-rule="evenodd"></path></g></svg>

