<?xml version="1.0" standalone="yes"?>

<svg version="1.1" viewBox="0.0 0.0 960.0 720.0" fill="none" stroke="none" stroke-linecap="square" stroke-miterlimit="10" xmlns="http://www.w3.org/2000/svg" xmlns:xlink="http://www.w3.org/1999/xlink"><clipPath id="p.0"><path d="m0 0l960.0 0l0 720.0l-960.0 0l0 -720.0z" clip-rule="nonzero"></path></clipPath><g clip-path="url(#p.0)"><path fill="#000000" fill-opacity="0.0" d="m0 0l960.0 0l0 720.0l-960.0 0z" fill-rule="nonzero"></path><path fill="#000000" fill-opacity="0.0" d="m525.895 465.95538c20.32367 0 30.4859 -4.7874146 40.647278 -9.574799c10.161438 -4.7874146 20.322021 -9.574799 40.644043 -9.574799" fill-rule="nonzero"></path><path stroke="#0b5394" stroke-width="4.0" stroke-linejoin="round" stroke-linecap="butt" d="m525.895 465.95538c20.32367 0 30.4859 -4.7874146 40.647278 -9.574799c5.0807495 -2.3937073 10.161255 -4.7874146 16.51184 -6.582672c1.5876465 -0.44882202 3.2546387 -0.86026 5.020935 -1.2249146c0.8831177 -0.18234253 1.7910156 -0.3529663 2.7262573 -0.5107422c0.46759033 -0.07891846 0.9420166 -0.15460205 1.423584 -0.2268982c0.24078369 -0.036193848 0.4833374 -0.071502686 0.7277832 -0.10595703l0.5515747 -0.075286865" fill-rule="evenodd"></path><path fill="#0b5394" stroke="#0b5394" stroke-width="4.0" stroke-linecap="butt" d="m593.5043 447.65414l-4.2113037 4.768097l12.057007 -5.2545776l-12.61377 -3.7248535z" fill-rule="evenodd"></path><path fill="#ffffff" d="m251.78273 121.74202c-4.4757996 -27.58197 10.218674 -54.886513 37.848038 -70.327354c27.629364 -15.440842 63.348083 -16.310017 91.99942 -2.2387047l0 0c10.148651 -16.038437 28.724243 -27.111923 50.10782 -29.87079c21.383545 -2.7588673 43.063354 3.1209393 58.481384 15.860815l0 0c8.645569 -14.541227 25.621613 -24.3111 44.904083 -25.84269c19.28241 -1.5315914 38.142212 5.391861 49.88678 18.313507l0 0c15.619934 -15.412767 40.471375 -21.902111 63.801086 -16.660084c23.329712 5.242028 40.94757 21.273926 45.230225 41.15866l0 0c19.136108 4.3773766 35.07605 15.505085 43.701538 30.508114c8.625488 15.003029 9.090393 32.409637 1.2745972 47.722565l0 0c18.84491 20.56688 23.253418 47.972275 11.580383 71.98883c-11.673096 24.01654 -37.67395 41.03598 -68.29944 44.706833c-0.21588135 22.541153 -14.956909 43.224625 -38.5412 54.077927c-23.58435 10.853302 -52.32904 10.18161 -75.15454 -1.756134c-9.722595 26.996857 -37.08893 46.8609 -70.275604 51.01007c-33.186707 4.1491394 -66.24426 -8.160431 -84.89047 -31.610504c-22.856201 11.558441 -50.28189 14.888092 -76.09024 9.2378845c-25.80835 -5.650238 -47.82538 -19.804382 -61.08438 -39.26956l0 0c-23.356033 2.2921448 -45.93814 -7.8557434 -56.538986 -25.407257c-10.600845 -17.551544 -6.963791 -38.770493 9.106125 -53.126022l0 0c-20.835297 -10.28363 -31.466766 -30.689865 -26.35048 -50.57762c5.116272 -19.887756 24.820923 -34.75039 48.838715 -36.837585z" fill-rule="nonzero"></path><path fill="#ffffff" d="m373.55566 393.75986c0 5.2604675 -4.2644653 9.524933 -9.524933 9.524933c-5.2604675 0 -9.524933 -4.2644653 -9.524933 -9.524933c0 -5.2604675 4.2644653 -9.524933 9.524933 -9.524933c5.2604675 0 9.524933 4.2644653 9.524933 9.524933z" fill-rule="nonzero"></path><path fill="#ffffff" d="m389.37677 382.12454c0 10.520966 -8.528931 19.049866 -19.049866 19.049866c-10.520966 0 -19.049866 -8.5289 -19.049866 -19.049866c0 -10.520935 8.5289 -19.049866 19.049866 -19.049866c10.520935 0 19.049866 8.528931 19.049866 19.049866z" fill-rule="nonzero"></path><path fill="#ffffff" d="m414.264 353.73505c0 15.781433 -12.793396 28.574799 -28.574799 28.574799c-15.781433 0 -28.57483 -12.7933655 -28.57483 -28.574799c0 -15.781433 12.793396 -28.574799 28.57483 -28.574799c15.781403 0 28.574799 12.7933655 28.574799 28.574799z" fill-rule="nonzero"></path><path fill="#000000" fill-opacity="0.0" d="m261.97427 215.19592l0 0c-11.35965 0.74568176 -22.718079 -1.4556885 -32.550247 -6.3085175m61.269333 75.34523c-4.567932 1.5248108 -9.35614 2.5400085 -14.24115 3.0194092m136.95251 30.153076l0 0c-3.435669 -4.320801 -6.3121643 -8.937958 -8.580536 -13.772766m167.2615 -20.57129c-0.505188 5.124878 -1.6536255 10.190491 -3.4261475 15.112305m71.552246 -108.486176l0 0c25.754211 10.5099945 42.006836 32.482758 41.77704 56.48062m56.76593 -116.63631c-4.1708374 8.171616 -10.538086 15.420563 -18.6026 21.178482m-26.036987 -99.76204l0 0c0.71069336 3.2999458 1.0396729 6.649494 0.98223877 10.002213m-119.78772 -21.669304l0 0c2.4239502 -4.6144257 5.634094 -8.910915 9.530518 -12.755682m-98.66589 18.83354l0 0c0.9888611 -3.8133774 2.5393372 -7.5087395 4.6156616 -11.000961m-109.22626 14.738548l0 0c6.0625916 2.9774704 11.671326 6.5611877 16.702972 10.672428m-143.56613 73.20605l0 0c-1.3234253 -3.6727142 -2.2981567 -7.4274445 -2.915039 -11.229042" fill-rule="nonzero"></path><path stroke="#4a86e8" stroke-width="2.0" stroke-linejoin="round" stroke-linecap="butt" stroke-dasharray="8.0,6.0" d="m251.78273 121.74202c-4.4757996 -27.58197 10.218674 -54.886513 37.848038 -70.327354c27.629364 -15.440842 63.348083 -16.310017 91.99942 -2.2387047l0 0c10.148651 -16.038437 28.724243 -27.111923 50.10782 -29.87079c21.383545 -2.7588673 43.063354 3.1209393 58.481384 15.860815l0 0c8.645569 -14.541227 25.621613 -24.3111 44.904083 -25.84269c19.28241 -1.5315914 38.142212 5.391861 49.88678 18.313507l0 0c15.619934 -15.412767 40.471375 -21.902111 63.801086 -16.660084c23.329712 5.242028 40.94757 21.273926 45.230225 41.15866l0 0c19.136108 4.3773766 35.07605 15.505085 43.701538 30.508114c8.625488 15.003029 9.090393 32.409637 1.2745972 47.722565l0 0c18.84491 20.56688 23.253418 47.972275 11.580383 71.98883c-11.673096 24.01654 -37.67395 41.03598 -68.29944 44.706833c-0.21588135 22.541153 -14.956909 43.224625 -38.5412 54.077927c-23.58435 10.853302 -52.32904 10.18161 -75.15454 -1.756134c-9.722595 26.996857 -37.08893 46.8609 -70.275604 51.01007c-33.186707 4.1491394 -66.24426 -8.160431 -84.89047 -31.610504c-22.856201 11.558441 -50.28189 14.888092 -76.09024 9.2378845c-25.80835 -5.650238 -47.82538 -19.804382 -61.08438 -39.26956l0 0c-23.356033 2.2921448 -45.93814 -7.8557434 -56.538986 -25.407257c-10.600845 -17.551544 -6.963791 -38.770493 9.106125 -53.126022l0 0c-20.835297 -10.28363 -31.466766 -30.689865 -26.35048 -50.57762c5.116272 -19.887756 24.820923 -34.75039 48.838715 -36.837585z" fill-rule="nonzero"></path><path stroke="#4a86e8" stroke-width="2.0" stroke-linejoin="round" stroke-linecap="butt" stroke-dasharray="8.0,6.0" d="m373.55566 393.75986c0 5.2604675 -4.2644653 9.524933 -9.524933 9.524933c-5.2604675 0 -9.524933 -4.2644653 -9.524933 -9.524933c0 -5.2604675 4.2644653 -9.524933 9.524933 -9.524933c5.2604675 0 9.524933 4.2644653 9.524933 9.524933z" fill-rule="nonzero"></path><path stroke="#4a86e8" stroke-width="2.0" stroke-linejoin="round" stroke-linecap="butt" stroke-dasharray="8.0,6.0" d="m389.37677 382.12454c0 10.520966 -8.528931 19.049866 -19.049866 19.049866c-10.520966 0 -19.049866 -8.5289 -19.049866 -19.049866c0 -10.520935 8.5289 -19.049866 19.049866 -19.049866c10.520935 0 19.049866 8.528931 19.049866 19.049866z" fill-rule="nonzero"></path><path stroke="#4a86e8" stroke-width="2.0" stroke-linejoin="round" stroke-linecap="butt" stroke-dasharray="8.0,6.0" d="m414.264 353.73505c0 15.781433 -12.793396 28.574799 -28.574799 28.574799c-15.781433 0 -28.57483 -12.7933655 -28.57483 -28.574799c0 -15.781433 12.793396 -28.574799 28.57483 -28.574799c15.781403 0 28.574799 12.7933655 28.574799 28.574799z" fill-rule="nonzero"></path><path stroke="#4a86e8" stroke-width="2.0" stroke-linejoin="round" stroke-linecap="butt" stroke-dasharray="8.0,6.0" d="m261.97427 215.19592l0 0c-11.35965 0.74568176 -22.718079 -1.4556885 -32.550247 -6.3085175m61.269333 75.34523c-4.567932 1.5248108 -9.35614 2.5400085 -14.24115 3.0194092m136.95251 30.153076l0 0c-3.435669 -4.320801 -6.3121643 -8.937958 -8.580536 -13.772766m167.2615 -20.57129c-0.505188 5.124878 -1.6536255 10.190491 -3.4261475 15.112305m71.552246 -108.486176l0 0c25.754211 10.5099945 42.006836 32.482758 41.77704 56.48062m56.76593 -116.63631c-4.1708374 8.171616 -10.538086 15.420563 -18.6026 21.178482m-26.036987 -99.76204l0 0c0.71069336 3.2999458 1.0396729 6.649494 0.98223877 10.002213m-119.78772 -21.669304l0 0c2.4239502 -4.6144257 5.634094 -8.910915 9.530518 -12.755682m-98.66589 18.83354l0 0c0.9888611 -3.8133774 2.5393372 -7.5087395 4.6156616 -11.000961m-109.22626 14.738548l0 0c6.0625916 2.9774704 11.671326 6.5611877 16.702972 10.672428m-143.56613 73.20605l0 0c-1.3234253 -3.6727142 -2.2981567 -7.4274445 -2.915039 -11.229042" fill-rule="nonzero"></path><path fill="#4a86e8" d="m419.0475 178.42345l0 -11.296875l-4.03125 0l0 -2.296875l10.8125 0l0 2.296875l-4.03125 0l0 11.296875l-2.75 0zm10.927246 -13.59375l0 5.0q1.25 -1.484375 3.015625 -1.484375q0.890625 0 1.609375 0.34375q0.734375 0.328125 1.09375 0.84375q0.375 0.515625 0.5 1.15625q0.140625 0.625 0.140625 1.953125l0 5.78125l-2.609375 0l0 -5.203125q0 -1.546875 -0.15625 -1.96875q-0.140625 -0.421875 -0.515625 -0.65625q-0.375 -0.25 -0.9375 -0.25q-0.65625 0 -1.171875 0.3125q-0.5 0.3125 -0.734375 0.953125q-0.234375 0.640625 -0.234375 1.875l0 4.9375l-2.609375 0l0 -13.59375l2.609375 0zm14.489716 10.453125l2.609375 0.4375q-0.5 1.4375 -1.59375 2.1875q-1.078125 0.734375 -2.703125 0.734375q-2.5625 0 -3.796875 -1.671875q-0.96875 -1.34375 -0.96875 -3.40625q0 -2.4375 1.265625 -3.828125q1.28125 -1.390625 3.25 -1.390625q2.1875 0 3.453125 1.453125q1.28125 1.453125 1.234375 4.453125l-6.53125 0q0.015625 1.15625 0.625 1.8125q0.609375 0.640625 1.5 0.640625q0.609375 0 1.03125 -0.328125q0.421875 -0.34375 0.625 -1.09375zm0.15625 -2.625q-0.03125 -1.140625 -0.59375 -1.71875q-0.546875 -0.59375 -1.34375 -0.59375q-0.859375 0 -1.40625 0.625q-0.5625 0.609375 -0.546875 1.6875l3.890625 0zm18.418396 0.765625l2.671875 0.84375q-0.609375 2.21875 -2.046875 3.3125q-1.421875 1.078125 -3.609375 1.078125q-2.703125 0 -4.453125 -1.84375q-1.734375 -1.859375 -1.734375 -5.078125q0 -3.390625 1.75 -5.265625q1.75 -1.875 4.609375 -1.875q2.5 0 4.046875 1.46875q0.9375 0.875 1.390625 2.5l-2.71875 0.65625q-0.234375 -1.0625 -1.0 -1.671875q-0.765625 -0.609375 -1.859375 -0.609375q-1.515625 0 -2.453125 1.09375q-0.9375 1.078125 -0.9375 3.5q0 2.578125 0.921875 3.6875q0.921875 1.09375 2.40625 1.09375q1.109375 0 1.890625 -0.6875q0.78125 -0.703125 1.125 -2.203125zm4.7542114 5.0l0 -13.59375l2.609375 0l0 13.59375l-2.609375 0zm4.5895386 -5.0625q0 -1.296875 0.640625 -2.515625q0.640625 -1.21875 1.8125 -1.859375q1.171875 -0.640625 2.609375 -0.640625q2.25 0 3.671875 1.453125q1.421875 1.453125 1.421875 3.671875q0 2.234375 -1.4375 3.703125q-1.4375 1.46875 -3.625 1.46875q-1.359375 0 -2.59375 -0.609375q-1.21875 -0.609375 -1.859375 -1.796875q-0.640625 -1.1875 -0.640625 -2.875zm2.671875 0.140625q0 1.46875 0.6875 2.25q0.703125 0.765625 1.71875 0.765625q1.015625 0 1.703125 -0.765625q0.703125 -0.78125 0.703125 -2.265625q0 -1.453125 -0.703125 -2.234375q-0.6875 -0.78125 -1.703125 -0.78125q-1.015625 0 -1.71875 0.78125q-0.6875 0.78125 -0.6875 2.25zm15.802246 4.921875l0 -1.46875q-0.53125 0.78125 -1.40625 1.234375q-0.875 0.453125 -1.859375 0.453125q-0.984375 0 -1.78125 -0.4375q-0.78125 -0.4375 -1.140625 -1.21875q-0.34375 -0.796875 -0.34375 -2.1875l0 -6.234375l2.609375 0l0 4.53125q0 2.078125 0.140625 2.546875q0.140625 0.46875 0.515625 0.75q0.390625 0.265625 0.96875 0.265625q0.671875 0 1.203125 -0.359375q0.53125 -0.375 0.71875 -0.90625q0.1875 -0.546875 0.1875 -2.671875l0 -4.15625l2.609375 0l0 9.859375l-2.421875 0zm13.958466 0l-2.421875 0l0 -1.453125q-0.609375 0.84375 -1.4375 1.265625q-0.8125 0.40625 -1.640625 0.40625q-1.703125 0 -2.921875 -1.359375q-1.203125 -1.375 -1.203125 -3.828125q0 -2.5 1.171875 -3.796875q1.1875 -1.3125 2.984375 -1.3125q1.65625 0 2.859375 1.375l0 -4.890625l2.609375 0l0 13.59375zm-6.96875 -5.140625q0 1.578125 0.4375 2.28125q0.640625 1.015625 1.765625 1.015625q0.90625 0 1.53125 -0.765625q0.625 -0.765625 0.625 -2.28125q0 -1.703125 -0.609375 -2.4375q-0.609375 -0.75 -1.5625 -0.75q-0.9375 0 -1.5625 0.734375q-0.625 0.734375 -0.625 2.203125z" fill-rule="nonzero"></path><path fill="#d9d2e9" d="m551.90027 196.35236l0 0c0 2.658142 -2.1548462 4.8130035 -4.8129883 4.8130035l0 -4.8130035c0 1.329071 -1.0774536 2.4065094 -2.4064941 2.4065094c-1.3291016 0 -2.4064941 -1.0774384 -2.4064941 -2.4065094l0 4.8130035l-178.56891 0l0 0c-2.658142 0 -4.8129883 2.1548462 -4.8129883 4.8129883l0 57.755905c0 2.658142 2.1548462 4.8129883 4.8129883 4.8129883c2.658142 0 4.8129883 -2.1548462 4.8129883 -4.8129883l0 -4.8129883l178.56891 0c2.658142 0 4.8129883 -2.1548462 4.8129883 -4.8130035zm-188.19489 14.43898c2.658142 0 4.8129883 -2.1548462 4.8129883 -4.8129883c0 -1.329071 -1.0774231 -2.4064941 -2.4064941 -2.4064941c-1.329071 0 -2.4064941 1.0774231 -2.4064941 2.4064941z" fill-rule="nonzero"></path><path fill="#ada7ba" d="m363.70538 210.79134c2.658142 0 4.8129883 -2.1548462 4.8129883 -4.8129883c0 -1.329071 -1.0774231 -2.4064941 -2.4064941 -2.4064941c-1.329071 0 -2.4064941 1.0774231 -2.4064941 2.4064941zm183.3819 -9.625977c2.658142 0 4.8129883 -2.1548615 4.8129883 -4.8130035c0 -2.658142 -2.1548462 -4.8129883 -4.8129883 -4.8129883c-2.658142 0 -4.8129883 2.1548462 -4.8129883 4.8129883c0 1.329071 1.0773926 2.4065094 2.4064941 2.4065094c1.3290405 0 2.4064941 -1.0774384 2.4064941 -2.4065094z" fill-rule="nonzero"></path><path fill="#000000" fill-opacity="0.0" d="m358.8924 205.97835c0 -2.658142 2.1548462 -4.8129883 4.8129883 -4.8129883l178.56891 0l0 -4.8130035l0 0c0 -2.658142 2.1548462 -4.8129883 4.8129883 -4.8129883c2.658142 0 4.8129883 2.1548462 4.8129883 4.8129883l0 57.755905c0 2.6581573 -2.1548462 4.8130035 -4.8129883 4.8130035l-178.56891 0l0 4.8129883c0 2.658142 -2.1548462 4.8129883 -4.8129883 4.8129883c-2.658142 0 -4.8129883 -2.1548462 -4.8129883 -4.8129883zm183.3819 -4.8129883l4.8129883 0c2.658142 0 4.8129883 -2.1548615 4.8129883 -4.8130035m-4.8129883 4.8130035l0 -4.8130035c0 1.329071 -1.0774536 2.4065094 -2.4064941 2.4065094c-1.3291016 0 -2.4064941 -1.0774384 -2.4064941 -2.4065094m-178.56891 14.43898l0 -4.8129883l0 0c0 -1.329071 1.0774231 -2.4064941 2.4064941 -2.4064941c1.329071 0 2.4064941 1.0774231 2.4064941 2.4064941c0 2.658142 -2.1548462 4.8129883 -4.8129883 4.8129883c-2.658142 0 -4.8129883 -2.1548462 -4.8129883 -4.8129883m9.625977 0l0 52.942917" fill-rule="nonzero"></path><path stroke="#9900ff" stroke-width="2.0" stroke-linejoin="round" stroke-linecap="butt" d="m358.8924 205.97835c0 -2.658142 2.1548462 -4.8129883 4.8129883 -4.8129883l178.56891 0l0 -4.8130035l0 0c0 -2.658142 2.1548462 -4.8129883 4.8129883 -4.8129883c2.658142 0 4.8129883 2.1548462 4.8129883 4.8129883l0 57.755905c0 2.6581573 -2.1548462 4.8130035 -4.8129883 4.8130035l-178.56891 0l0 4.8129883c0 2.658142 -2.1548462 4.8129883 -4.8129883 4.8129883c-2.658142 0 -4.8129883 -2.1548462 -4.8129883 -4.8129883zm183.3819 -4.8129883l4.8129883 0c2.658142 0 4.8129883 -2.1548615 4.8129883 -4.8130035m-4.8129883 4.8130035l0 -4.8130035c0 1.329071 -1.0774536 2.4065094 -2.4064941 2.4065094c-1.3291016 0 -2.4064941 -1.0774384 -2.4064941 -2.4065094m-178.56891 14.43898l0 -4.8129883l0 0c0 -1.329071 1.0774231 -2.4064941 2.4064941 -2.4064941c1.329071 0 2.4064941 1.0774231 2.4064941 2.4064941c0 2.658142 -2.1548462 4.8129883 -4.8129883 4.8129883c-2.658142 0 -4.8129883 -2.1548462 -4.8129883 -4.8129883m9.625977 0l0 52.942917" fill-rule="nonzero"></path><path fill="#000000" d="m388.77774 225.9633l0 -13.59375l5.125 0q1.359375 0 2.078125 0.125q1.0 0.171875 1.671875 0.640625q0.671875 0.46875 1.078125 1.3125q0.421875 0.84375 0.421875 1.84375q0 1.734375 -1.109375 2.9375q-1.09375 1.203125 -3.984375 1.203125l-3.484375 0l0 5.53125l-1.796875 0zm1.796875 -7.140625l3.515625 0q1.75 0 2.46875 -0.640625q0.734375 -0.65625 0.734375 -1.828125q0 -0.859375 -0.4375 -1.46875q-0.421875 -0.609375 -1.125 -0.796875q-0.453125 -0.125 -1.671875 -0.125l-3.484375 0l0 4.859375zm16.881073 7.140625l0 -1.453125q-1.140625 1.671875 -3.125 1.671875q-0.859375 0 -1.625 -0.328125q-0.75 -0.34375 -1.125 -0.84375q-0.359375 -0.5 -0.515625 -1.234375q-0.09375 -0.5 -0.09375 -1.5625l0 -6.109375l1.671875 0l0 5.46875q0 1.3125 0.09375 1.765625q0.15625 0.65625 0.671875 1.03125q0.515625 0.375 1.265625 0.375q0.75 0 1.40625 -0.375q0.65625 -0.390625 0.921875 -1.046875q0.28125 -0.671875 0.28125 -1.9375l0 -5.28125l1.671875 0l0 9.859375l-1.5 0zm5.469452 0l-1.546875 0l0 -13.59375l1.65625 0l0 4.84375q1.0625 -1.328125 2.703125 -1.328125q0.90625 0 1.71875 0.375q0.8125 0.359375 1.328125 1.03125q0.53125 0.65625 0.828125 1.59375q0.296875 0.9375 0.296875 2.0q0 2.53125 -1.25 3.921875q-1.25 1.375 -3.0 1.375q-1.75 0 -2.734375 -1.453125l0 1.234375zm-0.015625 -5.0q0 1.765625 0.46875 2.5625q0.796875 1.28125 2.140625 1.28125q1.09375 0 1.890625 -0.9375q0.796875 -0.953125 0.796875 -2.84375q0 -1.921875 -0.765625 -2.84375q-0.765625 -0.921875 -1.84375 -0.921875q-1.09375 0 -1.890625 0.953125q-0.796875 0.953125 -0.796875 2.75zm8.813232 5.0l0 -13.59375l1.671875 0l0 13.59375l-1.671875 0zm4.191681 -11.6875l0 -1.90625l1.671875 0l0 1.90625l-1.671875 0zm0 11.6875l0 -9.859375l1.671875 0l0 9.859375l-1.671875 0zm10.566711 -3.609375l1.640625 0.21875q-0.265625 1.6875 -1.375 2.65625q-1.109375 0.953125 -2.734375 0.953125q-2.015625 0 -3.25 -1.3125q-1.21875 -1.328125 -1.21875 -3.796875q0 -1.59375 0.515625 -2.78125q0.53125 -1.203125 1.609375 -1.796875q1.09375 -0.609375 2.359375 -0.609375q1.609375 0 2.625 0.8125q1.015625 0.8125 1.3125 2.3125l-1.625 0.25q-0.234375 -1.0 -0.828125 -1.5q-0.59375 -0.5 -1.421875 -0.5q-1.265625 0 -2.0625 0.90625q-0.78125 0.90625 -0.78125 2.859375q0 1.984375 0.765625 2.890625q0.765625 0.890625 1.984375 0.890625q0.984375 0 1.640625 -0.59375q0.65625 -0.609375 0.84375 -1.859375zm14.652039 -1.71875l0 -1.609375l5.765625 0l0 5.046875q-1.328125 1.0625 -2.75 1.59375q-1.40625 0.53125 -2.890625 0.53125q-2.0 0 -3.640625 -0.859375q-1.625 -0.859375 -2.46875 -2.484375q-0.828125 -1.625 -0.828125 -3.625q0 -1.984375 0.828125 -3.703125q0.828125 -1.71875 2.390625 -2.546875q1.5625 -0.84375 3.59375 -0.84375q1.46875 0 2.65625 0.484375q1.203125 0.46875 1.875 1.328125q0.671875 0.84375 1.03125 2.21875l-1.625 0.4375q-0.3125 -1.03125 -0.765625 -1.625q-0.453125 -0.59375 -1.296875 -0.953125q-0.84375 -0.359375 -1.875 -0.359375q-1.234375 0 -2.140625 0.375q-0.890625 0.375 -1.453125 1.0q-0.546875 0.609375 -0.84375 1.34375q-0.53125 1.25 -0.53125 2.734375q0 1.8125 0.625 3.046875q0.640625 1.21875 1.828125 1.8125q1.203125 0.59375 2.546875 0.59375q1.171875 0 2.28125 -0.453125q1.109375 -0.453125 1.6875 -0.953125l0 -2.53125l-4.0 0zm11.605194 5.328125l0 -12.0l-4.46875 0l0 -1.59375l10.765625 0l0 1.59375l-4.5 0l0 12.0l-1.796875 0zm8.036591 0l0 -13.59375l9.171875 0l0 1.59375l-7.375 0l0 4.21875l6.375 0l0 1.609375l-6.375 0l0 6.171875l-1.796875 0zm10.692871 -4.375l1.6875 -0.140625q0.125 1.015625 0.5625 1.671875q0.4375 0.65625 1.359375 1.0625q0.9375 0.40625 2.09375 0.40625q1.03125 0 1.8125 -0.3125q0.796875 -0.3125 1.1875 -0.84375q0.390625 -0.53125 0.390625 -1.15625q0 -0.640625 -0.375 -1.109375q-0.375 -0.484375 -1.234375 -0.8125q-0.546875 -0.21875 -2.421875 -0.65625q-1.875 -0.453125 -2.625 -0.859375q-0.96875 -0.515625 -1.453125 -1.265625q-0.46875 -0.75 -0.46875 -1.6875q0 -1.03125 0.578125 -1.921875q0.59375 -0.90625 1.703125 -1.359375q1.125 -0.46875 2.5 -0.46875q1.515625 0 2.671875 0.484375q1.15625 0.484375 1.765625 1.4375q0.625 0.9375 0.671875 2.140625l-1.71875 0.125q-0.140625 -1.28125 -0.953125 -1.9375q-0.796875 -0.671875 -2.359375 -0.671875q-1.625 0 -2.375 0.609375q-0.75 0.59375 -0.75 1.4375q0 0.734375 0.53125 1.203125q0.515625 0.46875 2.703125 0.96875q2.203125 0.5 3.015625 0.875q1.1875 0.546875 1.75 1.390625q0.578125 0.828125 0.578125 1.921875q0 1.09375 -0.625 2.0625q-0.625 0.953125 -1.796875 1.484375q-1.15625 0.53125 -2.609375 0.53125q-1.84375 0 -3.09375 -0.53125q-1.25 -0.546875 -1.96875 -1.625q-0.703125 -1.078125 -0.734375 -2.453125zm18.329987 4.375l0 -13.59375l9.171875 0l0 1.59375l-7.375 0l0 4.21875l6.375 0l0 1.609375l-6.375 0l0 6.171875l-1.796875 0zm11.099121 -11.6875l0 -1.90625l1.6718445 0l0 1.90625l-1.6718445 0zm0 11.6875l0 -9.859375l1.6718445 0l0 9.859375l-1.6718445 0zm4.097931 0l0 -13.59375l1.671875 0l0 13.59375l-1.671875 0zm10.926086 -3.171875l1.71875 0.21875q-0.40625 1.5 -1.515625 2.34375q-1.09375 0.828125 -2.8125 0.828125q-2.15625 0 -3.421875 -1.328125q-1.265625 -1.328125 -1.265625 -3.734375q0 -2.484375 1.265625 -3.859375q1.28125 -1.375 3.328125 -1.375q1.984375 0 3.234375 1.34375q1.25 1.34375 1.25 3.796875q0 0.140625 -0.015625 0.4375l-7.34375 0q0.09375 1.625 0.921875 2.484375q0.828125 0.859375 2.0625 0.859375q0.90625 0 1.546875 -0.46875q0.65625 -0.484375 1.046875 -1.546875zm-5.484375 -2.703125l5.5 0q-0.109375 -1.234375 -0.625 -1.859375q-0.796875 -0.96875 -2.078125 -0.96875q-1.140625 0 -1.9375 0.78125q-0.78125 0.765625 -0.859375 2.046875z" fill-rule="nonzero"></path><path fill="#000000" d="m437.88153 251.9633q-1.375 -1.75 -2.328125 -4.078125q-0.953125 -2.34375 -0.953125 -4.84375q0 -2.21875 0.703125 -4.234375q0.84375 -2.34375 2.578125 -4.671875l1.203125 0q-1.125 1.921875 -1.484375 2.75q-0.5625 1.28125 -0.890625 2.671875q-0.40625 1.734375 -0.40625 3.484375q0 4.46875 2.78125 8.921875l-1.203125 0zm2.368927 -15.109375l0.421875 -1.3125q1.484375 0.515625 2.140625 0.90625q-0.171875 -1.6875 -0.171875 -2.3125l1.34375 0q-0.03125 0.90625 -0.21875 2.296875q0.953125 -0.484375 2.1875 -0.890625l0.421875 1.3125q-1.171875 0.390625 -2.296875 0.53125q0.5625 0.484375 1.59375 1.75l-1.109375 0.78125q-0.546875 -0.734375 -1.28125 -1.984375q-0.6875 1.296875 -1.203125 1.984375l-1.09375 -0.78125q1.078125 -1.328125 1.53125 -1.75q-1.1875 -0.234375 -2.265625 -0.53125zm8.385254 11.109375l0 -1.90625l1.90625 0l0 1.90625l-1.90625 0zm3.839569 0l0 -1.359375l6.265625 -7.1875q-1.0625 0.046875 -1.875 0.046875l-4.015625 0l0 -1.359375l8.046875 0l0 1.109375l-5.34375 6.25l-1.015625 1.140625q1.109375 -0.078125 2.09375 -0.078125l4.5625 0l0 1.4375l-8.71875 0zm10.21875 -11.6875l0 -1.90625l1.671875 0l0 1.90625l-1.671875 0zm0 11.6875l0 -9.859375l1.671875 0l0 9.859375l-1.671875 0zm4.129181 3.78125l0 -13.640625l1.53125 0l0 1.28125q0.53125 -0.75 1.203125 -1.125q0.6875 -0.375 1.640625 -0.375q1.265625 0 2.234375 0.65625q0.96875 0.640625 1.453125 1.828125q0.5 1.1875 0.5 2.59375q0 1.515625 -0.546875 2.734375q-0.546875 1.203125 -1.578125 1.84375q-1.03125 0.640625 -2.171875 0.640625q-0.84375 0 -1.515625 -0.34375q-0.65625 -0.359375 -1.078125 -0.890625l0 4.796875l-1.671875 0zm1.515625 -8.65625q0 1.90625 0.765625 2.8125q0.78125 0.90625 1.875 0.90625q1.109375 0 1.890625 -0.9375q0.796875 -0.9375 0.796875 -2.921875q0 -1.875 -0.78125 -2.8125q-0.765625 -0.9375 -1.84375 -0.9375q-1.0625 0 -1.890625 1.0q-0.8125 1.0 -0.8125 2.890625zm9.953857 8.875l-1.1875 0q2.765625 -4.453125 2.765625 -8.921875q0 -1.734375 -0.390625 -3.453125q-0.328125 -1.390625 -0.890625 -2.671875q-0.359375 -0.84375 -1.484375 -2.78125l1.1875 0q1.75 2.328125 2.578125 4.671875q0.71875 2.015625 0.71875 4.234375q0 2.5 -0.96875 4.84375q-0.953125 2.328125 -2.328125 4.078125z" fill-rule="nonzero"></path><path fill="#000000" fill-opacity="0.0" d="m455.39633 258.92126c0 44.53885 -48.897644 68.01077 -97.79529 89.0777c-48.897644 21.066956 -97.79526 39.72888 -97.79526 79.45773" fill-rule="nonzero"></path><path stroke="#9900ff" stroke-width="4.0" stroke-linejoin="round" stroke-linecap="butt" d="m455.39633 258.92126c0 44.53885 -48.897644 68.01077 -97.79529 89.0777c-24.448822 10.533478 -48.897644 20.465698 -67.23425 32.73065c-9.168304 6.132477 -16.808563 12.848145 -22.156738 20.513733c-2.6740723 3.8327942 -4.7751465 7.9031067 -6.2077026 12.256683l-0.13101196 0.40481567" fill-rule="evenodd"></path><path fill="#9900ff" stroke="#9900ff" stroke-width="4.0" stroke-linecap="butt" d="m261.87137 413.90488l-3.769165 -5.1247864l2.5846863 12.895752l6.309265 -11.540131z" fill-rule="evenodd"></path><path fill="#c9daf8" d="m591.18896 405.13544l0 0c0 -7.0885315 5.746399 -12.8349 12.8349 -12.8349l128.31445 0c3.4040527 0 6.66864 1.3522339 9.075684 3.7592468c2.4069824 2.407013 3.7592163 5.671631 3.7592163 9.075653l0 51.338074c0 7.088501 -5.746399 12.8349 -12.8349 12.8349l-128.31445 0c-7.088501 0 -12.8349 -5.746399 -12.8349 -12.8349z" fill-rule="nonzero"></path><path stroke="#0b5394" stroke-width="2.0" stroke-linejoin="round" stroke-linecap="butt" d="m591.18896 405.13544l0 0c0 -7.0885315 5.746399 -12.8349 12.8349 -12.8349l128.31445 0c3.4040527 0 6.66864 1.3522339 9.075684 3.7592468c2.4069824 2.407013 3.7592163 5.671631 3.7592163 9.075653l0 51.338074c0 7.088501 -5.746399 12.8349 -12.8349 12.8349l-128.31445 0c-7.088501 0 -12.8349 -5.746399 -12.8349 -12.8349z" fill-rule="nonzero"></path><path fill="#d9ead3" d="m371.91077 440.28635l0 0c0 -7.0885315 5.7463684 -12.8349 12.8349 -12.8349l128.31445 0c3.4039917 0 6.66864 1.3522339 9.075623 3.7592468c2.4070435 2.407013 3.7592773 5.671631 3.7592773 9.075653l0 51.338074c0 7.088501 -5.746399 12.8349 -12.8349 12.8349l-128.31445 0c-7.0885315 0 -12.8349 -5.746399 -12.8349 -12.8349z" fill-rule="nonzero"></path><path stroke="#38761d" stroke-width="2.0" stroke-linejoin="round" stroke-linecap="butt" d="m371.91077 440.28635l0 0c0 -7.0885315 5.7463684 -12.8349 12.8349 -12.8349l128.31445 0c3.4039917 0 6.66864 1.3522339 9.075623 3.7592468c2.4070435 2.407013 3.7592773 5.671631 3.7592773 9.075653l0 51.338074c0 7.088501 -5.746399 12.8349 -12.8349 12.8349l-128.31445 0c-7.0885315 0 -12.8349 -5.746399 -12.8349 -12.8349z" fill-rule="nonzero"></path><path fill="#000000" d="m418.73434 472.87537l0 -13.59375l5.125 0q1.359375 0 2.078125 0.125q1.0 0.171875 1.671875 0.640625q0.671875 0.46875 1.078125 1.3125q0.421875 0.84375 0.421875 1.84375q0 1.734375 -1.109375 2.9375q-1.09375 1.203125 -3.984375 1.203125l-3.484375 0l0 5.53125l-1.796875 0zm1.796875 -7.140625l3.515625 0q1.75 0 2.46875 -0.640625q0.734375 -0.65625 0.734375 -1.828125q0 -0.859375 -0.4375 -1.46875q-0.421875 -0.609375 -1.125 -0.796875q-0.453125 -0.125 -1.671875 -0.125l-3.484375 0l0 4.859375zm16.865448 5.921875q-0.9375 0.796875 -1.796875 1.125q-0.859375 0.3125 -1.84375 0.3125q-1.609375 0 -2.484375 -0.78125q-0.875 -0.796875 -0.875 -2.03125q0 -0.734375 0.328125 -1.328125q0.328125 -0.59375 0.859375 -0.953125q0.53125 -0.359375 1.203125 -0.546875q0.5 -0.140625 1.484375 -0.25q2.03125 -0.25 2.984375 -0.578125q0 -0.34375 0 -0.4375q0 -1.015625 -0.46875 -1.4375q-0.640625 -0.5625 -1.90625 -0.5625q-1.171875 0 -1.734375 0.40625q-0.5625 0.40625 -0.828125 1.46875l-1.640625 -0.234375q0.234375 -1.046875 0.734375 -1.6875q0.515625 -0.640625 1.46875 -0.984375q0.96875 -0.359375 2.25 -0.359375q1.265625 0 2.046875 0.296875q0.78125 0.296875 1.15625 0.75q0.375 0.453125 0.515625 1.140625q0.09375 0.421875 0.09375 1.53125l0 2.234375q0 2.328125 0.09375 2.953125q0.109375 0.609375 0.4375 1.171875l-1.75 0q-0.265625 -0.515625 -0.328125 -1.21875zm-0.140625 -3.71875q-0.90625 0.359375 -2.734375 0.625q-1.03125 0.140625 -1.453125 0.328125q-0.421875 0.1875 -0.65625 0.546875q-0.234375 0.359375 -0.234375 0.796875q0 0.671875 0.5 1.125q0.515625 0.4375 1.484375 0.4375q0.96875 0 1.71875 -0.421875q0.75 -0.4375 1.109375 -1.15625q0.265625 -0.578125 0.265625 -1.671875l0 -0.609375zm4.0788574 4.9375l0 -9.859375l1.5 0l0 1.40625q1.09375 -1.625 3.140625 -1.625q0.890625 0 1.640625 0.328125q0.75 0.3125 1.109375 0.84375q0.375 0.515625 0.53125 1.21875q0.09375 0.46875 0.09375 1.625l0 6.0625l-1.671875 0l0 -6.0q0 -1.015625 -0.203125 -1.515625q-0.1875 -0.515625 -0.6875 -0.8125q-0.5 -0.296875 -1.171875 -0.296875q-1.0625 0 -1.84375 0.671875q-0.765625 0.671875 -0.765625 2.578125l0 5.375l-1.671875 0zm16.766327 0l0 -1.25q-0.9375 1.46875 -2.75 1.46875q-1.171875 0 -2.171875 -0.640625q-0.984375 -0.65625 -1.53125 -1.8125q-0.53125 -1.171875 -0.53125 -2.6875q0 -1.46875 0.484375 -2.671875q0.5 -1.203125 1.46875 -1.84375q0.984375 -0.640625 2.203125 -0.640625q0.890625 0 1.578125 0.375q0.703125 0.375 1.140625 0.984375l0 -4.875l1.65625 0l0 13.59375l-1.546875 0zm-5.28125 -4.921875q0 1.890625 0.796875 2.828125q0.8125 0.9375 1.890625 0.9375q1.09375 0 1.859375 -0.890625q0.765625 -0.890625 0.765625 -2.734375q0 -2.015625 -0.78125 -2.953125q-0.78125 -0.953125 -1.921875 -0.953125q-1.109375 0 -1.859375 0.90625q-0.75 0.90625 -0.75 2.859375zm15.703857 3.703125q-0.9375 0.796875 -1.796875 1.125q-0.859375 0.3125 -1.84375 0.3125q-1.609375 0 -2.484375 -0.78125q-0.875 -0.796875 -0.875 -2.03125q0 -0.734375 0.328125 -1.328125q0.328125 -0.59375 0.859375 -0.953125q0.53125 -0.359375 1.203125 -0.546875q0.5 -0.140625 1.484375 -0.25q2.03125 -0.25 2.984375 -0.578125q0 -0.34375 0 -0.4375q0 -1.015625 -0.46875 -1.4375q-0.640625 -0.5625 -1.90625 -0.5625q-1.171875 0 -1.734375 0.40625q-0.5625 0.40625 -0.828125 1.46875l-1.640625 -0.234375q0.234375 -1.046875 0.734375 -1.6875q0.515625 -0.640625 1.46875 -0.984375q0.96875 -0.359375 2.25 -0.359375q1.265625 0 2.046875 0.296875q0.78125 0.296875 1.15625 0.75q0.375 0.453125 0.515625 1.140625q0.09375 0.421875 0.09375 1.53125l0 2.234375q0 2.328125 0.09375 2.953125q0.109375 0.609375 0.4375 1.171875l-1.75 0q-0.265625 -0.515625 -0.328125 -1.21875zm-0.140625 -3.71875q-0.90625 0.359375 -2.734375 0.625q-1.03125 0.140625 -1.453125 0.328125q-0.421875 0.1875 -0.65625 0.546875q-0.234375 0.359375 -0.234375 0.796875q0 0.671875 0.5 1.125q0.515625 0.4375 1.484375 0.4375q0.96875 0 1.71875 -0.421875q0.75 -0.4375 1.109375 -1.15625q0.265625 -0.578125 0.265625 -1.671875l0 -0.609375zm3.406952 2.0l1.65625 -0.265625q0.140625 1.0 0.765625 1.53125q0.640625 0.515625 1.78125 0.515625q1.15625 0 1.703125 -0.46875q0.5625 -0.46875 0.5625 -1.09375q0 -0.5625 -0.484375 -0.890625q-0.34375 -0.21875 -1.703125 -0.5625q-1.84375 -0.46875 -2.5625 -0.796875q-0.703125 -0.34375 -1.078125 -0.9375q-0.359375 -0.609375 -0.359375 -1.328125q0 -0.65625 0.296875 -1.21875q0.3125 -0.5625 0.828125 -0.9375q0.390625 -0.28125 1.0625 -0.484375q0.671875 -0.203125 1.4375 -0.203125q1.171875 0 2.046875 0.34375q0.875 0.328125 1.28125 0.90625q0.421875 0.5625 0.578125 1.515625l-1.625 0.21875q-0.109375 -0.75 -0.65625 -1.171875q-0.53125 -0.4375 -1.5 -0.4375q-1.15625 0 -1.640625 0.390625q-0.484375 0.375 -0.484375 0.875q0 0.328125 0.203125 0.59375q0.203125 0.265625 0.640625 0.4375q0.25 0.09375 1.46875 0.4375q1.765625 0.46875 2.46875 0.765625q0.703125 0.296875 1.09375 0.875q0.40625 0.578125 0.40625 1.4375q0 0.828125 -0.484375 1.578125q-0.484375 0.734375 -1.40625 1.140625q-0.921875 0.390625 -2.078125 0.390625q-1.921875 0 -2.9375 -0.796875q-1.0 -0.796875 -1.28125 -2.359375z" fill-rule="nonzero"></path><path fill="#c9daf8" d="m607.18896 421.13544l0 0c0 -7.0885315 5.746399 -12.8349 12.8349 -12.8349l128.31445 0c3.4040527 0 6.66864 1.3522339 9.075684 3.7592468c2.4069824 2.407013 3.7592163 5.671631 3.7592163 9.075653l0 51.338074c0 7.088501 -5.746399 12.8349 -12.8349 12.8349l-128.31445 0c-7.088501 0 -12.8349 -5.746399 -12.8349 -12.8349z" fill-rule="nonzero"></path><path stroke="#0b5394" stroke-width="2.0" stroke-linejoin="round" stroke-linecap="butt" d="m607.18896 421.13544l0 0c0 -7.0885315 5.746399 -12.8349 12.8349 -12.8349l128.31445 0c3.4040527 0 6.66864 1.3522339 9.075684 3.7592468c2.4069824 2.407013 3.7592163 5.671631 3.7592163 9.075653l0 51.338074c0 7.088501 -5.746399 12.8349 -12.8349 12.8349l-128.31445 0c-7.088501 0 -12.8349 -5.746399 -12.8349 -12.8349z" fill-rule="nonzero"></path><path fill="#c9daf8" d="m623.18896 437.13544l0 0c0 -7.0885315 5.746399 -12.8349 12.8349 -12.8349l128.31445 0c3.4040527 0 6.66864 1.3522339 9.075684 3.7592468c2.4069824 2.407013 3.7592163 5.671631 3.7592163 9.075653l0 51.338074c0 7.088501 -5.746399 12.8349 -12.8349 12.8349l-128.31445 0c-7.088501 0 -12.8349 -5.746399 -12.8349 -12.8349z" fill-rule="nonzero"></path><path stroke="#0b5394" stroke-width="2.0" stroke-linejoin="round" stroke-linecap="butt" d="m623.18896 437.13544l0 0c0 -7.0885315 5.746399 -12.8349 12.8349 -12.8349l128.31445 0c3.4040527 0 6.66864 1.3522339 9.075684 3.7592468c2.4069824 2.407013 3.7592163 5.671631 3.7592163 9.075653l0 51.338074c0 7.088501 -5.746399 12.8349 -12.8349 12.8349l-128.31445 0c-7.088501 0 -12.8349 -5.746399 -12.8349 -12.8349z" fill-rule="nonzero"></path><path fill="#000000" d="m672.0876 458.72446l0 -13.59375l1.84375 0l7.140625 10.671875l0 -10.671875l1.71875 0l0 13.59375l-1.84375 0l-7.140625 -10.6875l0 10.6875l-1.71875 0zm19.722961 0l0 -1.453125q-1.140625 1.671875 -3.125 1.671875q-0.859375 0 -1.625 -0.328125q-0.75 -0.34375 -1.125 -0.84375q-0.359375 -0.5 -0.515625 -1.234375q-0.09375 -0.5 -0.09375 -1.5625l0 -6.109375l1.671875 0l0 5.46875q0 1.3125 0.09375 1.765625q0.15625 0.65625 0.671875 1.03125q0.515625 0.375 1.265625 0.375q0.75 0 1.40625 -0.375q0.65625 -0.390625 0.921875 -1.046875q0.28125 -0.671875 0.28125 -1.9375l0 -5.28125l1.671875 0l0 9.859375l-1.5 0zm3.9225464 0l0 -9.859375l1.5 0l0 1.390625q0.453125 -0.71875 1.21875 -1.15625q0.78125 -0.453125 1.765625 -0.453125q1.09375 0 1.796875 0.453125q0.703125 0.453125 0.984375 1.28125q1.171875 -1.734375 3.046875 -1.734375q1.46875 0 2.25 0.8125q0.796875 0.8125 0.796875 2.5l0 6.765625l-1.671875 0l0 -6.203125q0 -1.0 -0.15625 -1.4375q-0.15625 -0.453125 -0.59375 -0.71875q-0.421875 -0.265625 -1.0 -0.265625q-1.03125 0 -1.71875 0.6875q-0.6875 0.6875 -0.6875 2.21875l0 5.71875l-1.671875 0l0 -6.40625q0 -1.109375 -0.40625 -1.65625q-0.40625 -0.5625 -1.34375 -0.5625q-0.703125 0 -1.3125 0.375q-0.59375 0.359375 -0.859375 1.078125q-0.265625 0.71875 -0.265625 2.0625l0 5.109375l-1.671875 0zm15.5408325 3.78125l0 -13.640625l1.53125 0l0 1.28125q0.53125 -0.75 1.203125 -1.125q0.6875 -0.375 1.640625 -0.375q1.265625 0 2.234375 0.65625q0.96875 0.640625 1.453125 1.828125q0.5 1.1875 0.5 2.59375q0 1.515625 -0.546875 2.734375q-0.546875 1.203125 -1.578125 1.84375q-1.03125 0.640625 -2.171875 0.640625q-0.84375 0 -1.515625 -0.34375q-0.65625 -0.359375 -1.078125 -0.890625l0 4.796875l-1.671875 0zm1.515625 -8.65625q0 1.90625 0.765625 2.8125q0.78125 0.90625 1.875 0.90625q1.109375 0 1.890625 -0.9375q0.796875 -0.9375 0.796875 -2.921875q0 -1.875 -0.78125 -2.8125q-0.765625 -0.9375 -1.84375 -0.9375q-1.0625 0 -1.890625 1.0q-0.8125 1.0 -0.8125 2.890625zm8.781982 8.671875l-0.171875 -1.5625q0.546875 0.140625 0.953125 0.140625q0.546875 0 0.875 -0.1875q0.34375 -0.1875 0.5625 -0.515625q0.15625 -0.25 0.5 -1.25q0.046875 -0.140625 0.15625 -0.40625l-3.734375 -9.875l1.796875 0l2.046875 5.71875q0.40625 1.078125 0.71875 2.28125q0.28125 -1.15625 0.6875 -2.25l2.09375 -5.75l1.671875 0l-3.75 10.03125q-0.59375 1.625 -0.9375 2.234375q-0.4375 0.828125 -1.015625 1.203125q-0.578125 0.390625 -1.375 0.390625q-0.484375 0 -1.078125 -0.203125z" fill-rule="nonzero"></path><path fill="#000000" d="m649.668 475.95883l1.796875 0.453125q-0.5625 2.21875 -2.03125 3.390625q-1.46875 1.15625 -3.59375 1.15625q-2.203125 0 -3.578125 -0.890625q-1.375 -0.90625 -2.09375 -2.59375q-0.71875 -1.703125 -0.71875 -3.65625q0 -2.125 0.796875 -3.703125q0.8125 -1.578125 2.3125 -2.390625q1.5 -0.828125 3.296875 -0.828125q2.046875 0 3.4375 1.046875q1.390625 1.03125 1.9375 2.90625l-1.765625 0.421875q-0.46875 -1.484375 -1.375 -2.15625q-0.90625 -0.6875 -2.265625 -0.6875q-1.5625 0 -2.625 0.75q-1.046875 0.75 -1.484375 2.03125q-0.421875 1.265625 -0.421875 2.609375q0 1.734375 0.5 3.03125q0.515625 1.28125 1.578125 1.921875q1.078125 0.640625 2.3125 0.640625q1.515625 0 2.5625 -0.859375q1.046875 -0.875 1.421875 -2.59375zm2.9260864 -0.15625q0 -2.734375 1.53125 -4.0625q1.265625 -1.09375 3.09375 -1.09375q2.03125 0 3.3125 1.34375q1.296875 1.328125 1.296875 3.671875q0 1.90625 -0.578125 3.0q-0.5625 1.078125 -1.65625 1.6875q-1.078125 0.59375 -2.375 0.59375q-2.0625 0 -3.34375 -1.328125q-1.28125 -1.328125 -1.28125 -3.8125zm1.71875 0q0 1.890625 0.828125 2.828125q0.828125 0.9375 2.078125 0.9375q1.25 0 2.0625 -0.9375q0.828125 -0.953125 0.828125 -2.890625q0 -1.828125 -0.828125 -2.765625q-0.828125 -0.9375 -2.0625 -0.9375q-1.25 0 -2.078125 0.9375q-0.828125 0.9375 -0.828125 2.828125zm9.250671 4.921875l0 -13.59375l1.671875 0l0 13.59375l-1.671875 0zm10.629211 0l0 -1.453125q-1.140625 1.671875 -3.125 1.671875q-0.859375 0 -1.625 -0.328125q-0.75 -0.34375 -1.125 -0.84375q-0.359375 -0.5 -0.515625 -1.234375q-0.09375 -0.5 -0.09375 -1.5625l0 -6.109375l1.671875 0l0 5.46875q0 1.3125 0.09375 1.765625q0.15625 0.65625 0.671875 1.03125q0.515625 0.375 1.265625 0.375q0.75 0 1.40625 -0.375q0.65625 -0.390625 0.921875 -1.046875q0.28125 -0.671875 0.28125 -1.9375l0 -5.28125l1.671875 0l0 9.859375l-1.5 0zm3.9226074 0l0 -9.859375l1.5 0l0 1.390625q0.453125 -0.71875 1.21875 -1.15625q0.78125 -0.453125 1.765625 -0.453125q1.09375 0 1.796875 0.453125q0.703125 0.453125 0.984375 1.28125q1.171875 -1.734375 3.046875 -1.734375q1.46875 0 2.25 0.8125q0.796875 0.8125 0.796875 2.5l0 6.765625l-1.671875 0l0 -6.203125q0 -1.0 -0.15625 -1.4375q-0.15625 -0.453125 -0.59375 -0.71875q-0.421875 -0.265625 -1.0 -0.265625q-1.03125 0 -1.71875 0.6875q-0.6875 0.6875 -0.6875 2.21875l0 5.71875l-1.671875 0l0 -6.40625q0 -1.109375 -0.40625 -1.65625q-0.40625 -0.5625 -1.34375 -0.5625q-0.703125 0 -1.3125 0.375q-0.59375 0.359375 -0.859375 1.078125q-0.265625 0.71875 -0.265625 2.0625l0 5.109375l-1.671875 0zm15.5407715 0l0 -9.859375l1.5 0l0 1.40625q1.09375 -1.625 3.140625 -1.625q0.890625 0 1.640625 0.328125q0.75 0.3125 1.109375 0.84375q0.375 0.515625 0.53125 1.21875q0.09375 0.46875 0.09375 1.625l0 6.0625l-1.671875 0l0 -6.0q0 -1.015625 -0.203125 -1.515625q-0.1875 -0.515625 -0.6875 -0.8125q-0.5 -0.296875 -1.171875 -0.296875q-1.0625 0 -1.84375 0.671875q-0.765625 0.671875 -0.765625 2.578125l0 5.375l-1.671875 0zm14.277771 0l5.234375 -13.59375l1.9375 0l5.5625 13.59375l-2.046875 0l-1.59375 -4.125l-5.6875 0l-1.484375 4.125l-1.921875 0zm3.921875 -5.578125l4.609375 0l-1.40625 -3.78125q-0.65625 -1.703125 -0.96875 -2.8125q-0.265625 1.3125 -0.734375 2.59375l-1.5 4.0zm9.7873535 5.578125l0 -9.859375l1.5 0l0 1.5q0.578125 -1.046875 1.0625 -1.375q0.484375 -0.34375 1.078125 -0.34375q0.84375 0 1.71875 0.546875l-0.578125 1.546875q-0.609375 -0.359375 -1.234375 -0.359375q-0.546875 0 -0.984375 0.328125q-0.421875 0.328125 -0.609375 0.90625q-0.28125 0.890625 -0.28125 1.953125l0 5.15625l-1.671875 0zm6.2126465 0l0 -9.859375l1.5 0l0 1.5q0.578125 -1.046875 1.0625 -1.375q0.484375 -0.34375 1.078125 -0.34375q0.84375 0 1.71875 0.546875l-0.578125 1.546875q-0.609375 -0.359375 -1.234375 -0.359375q-0.546875 0 -0.984375 0.328125q-0.421875 0.328125 -0.609375 0.90625q-0.28125 0.890625 -0.28125 1.953125l0 5.15625l-1.671875 0zm12.6658325 -1.21875q-0.9375 0.796875 -1.796875 1.125q-0.859375 0.3125 -1.84375 0.3125q-1.609375 0 -2.484375 -0.78125q-0.875 -0.796875 -0.875 -2.03125q0 -0.734375 0.328125 -1.328125q0.328125 -0.59375 0.859375 -0.953125q0.53125 -0.359375 1.203125 -0.546875q0.5 -0.140625 1.484375 -0.25q2.03125 -0.25 2.984375 -0.578125q0 -0.34375 0 -0.4375q0 -1.015625 -0.46875 -1.4375q-0.640625 -0.5625 -1.90625 -0.5625q-1.171875 0 -1.734375 0.40625q-0.5625 0.40625 -0.828125 1.46875l-1.640625 -0.234375q0.234375 -1.046875 0.734375 -1.6875q0.515625 -0.640625 1.46875 -0.984375q0.96875 -0.359375 2.25 -0.359375q1.265625 0 2.046875 0.296875q0.78125 0.296875 1.15625 0.75q0.375 0.453125 0.515625 1.140625q0.09375 0.421875 0.09375 1.53125l0 2.234375q0 2.328125 0.09375 2.953125q0.109375 0.609375 0.4375 1.171875l-1.75 0q-0.265625 -0.515625 -0.328125 -1.21875zm-0.140625 -3.71875q-0.90625 0.359375 -2.734375 0.625q-1.03125 0.140625 -1.453125 0.328125q-0.421875 0.1875 -0.65625 0.546875q-0.234375 0.359375 -0.234375 0.796875q0 0.671875 0.5 1.125q0.515625 0.4375 1.484375 0.4375q0.96875 0 1.71875 -0.421875q0.75 -0.4375 1.109375 -1.15625q0.265625 -0.578125 0.265625 -1.671875l0 -0.609375zm4.0007324 8.734375l-0.171875 -1.5625q0.546875 0.140625 0.953125 0.140625q0.546875 0 0.875 -0.1875q0.34375 -0.1875 0.5625 -0.515625q0.15625 -0.25 0.5 -1.25q0.046875 -0.140625 0.15625 -0.40625l-3.734375 -9.875l1.796875 0l2.046875 5.71875q0.40625 1.078125 0.71875 2.28125q0.28125 -1.15625 0.6875 -2.25l2.09375 -5.75l1.671875 0l-3.75 10.03125q-0.59375 1.625 -0.9375 2.234375q-0.4375 0.828125 -1.015625 1.203125q-0.578125 0.390625 -1.375 0.390625q-0.484375 0 -1.078125 -0.203125zm8.734375 -6.734375l1.65625 -0.265625q0.140625 1.0 0.765625 1.53125q0.640625 0.515625 1.78125 0.515625q1.15625 0 1.703125 -0.46875q0.5625 -0.46875 0.5625 -1.09375q0 -0.5625 -0.484375 -0.890625q-0.34375 -0.21875 -1.703125 -0.5625q-1.84375 -0.46875 -2.5625 -0.796875q-0.703125 -0.34375 -1.078125 -0.9375q-0.359375 -0.609375 -0.359375 -1.328125q0 -0.65625 0.296875 -1.21875q0.3125 -0.5625 0.828125 -0.9375q0.390625 -0.28125 1.0625 -0.484375q0.671875 -0.203125 1.4375 -0.203125q1.171875 0 2.046875 0.34375q0.875 0.328125 1.28125 0.90625q0.421875 0.5625 0.578125 1.515625l-1.625 0.21875q-0.109375 -0.75 -0.65625 -1.171875q-0.53125 -0.4375 -1.5 -0.4375q-1.15625 0 -1.640625 0.390625q-0.484375 0.375 -0.484375 0.875q0 0.328125 0.203125 0.59375q0.203125 0.265625 0.640625 0.4375q0.25 0.09375 1.46875 0.4375q1.765625 0.46875 2.46875 0.765625q0.703125 0.296875 1.09375 0.875q0.40625 0.578125 0.40625 1.4375q0 0.828125 -0.484375 1.578125q-0.484375 0.734375 -1.40625 1.140625q-0.921875 0.390625 -2.078125 0.390625q-1.921875 0 -2.9375 -0.796875q-1.0 -0.796875 -1.28125 -2.359375z" fill-rule="nonzero"></path><path fill="#d9ead3" d="m182.82677 440.28635l0 0c0 -7.0885315 5.7463837 -12.8349 12.8349 -12.8349l128.31447 0c3.4040222 0 6.6686096 1.3522339 9.075623 3.7592468c2.407013 2.407013 3.7592773 5.671631 3.7592773 9.075653l0 51.338074c0 7.088501 -5.746399 12.8349 -12.8349 12.8349l-128.31447 0c-7.088516 0 -12.8349 -5.746399 -12.8349 -12.8349z" fill-rule="nonzero"></path><path stroke="#38761d" stroke-width="2.0" stroke-linejoin="round" stroke-linecap="butt" d="m182.82677 440.28635l0 0c0 -7.0885315 5.7463837 -12.8349 12.8349 -12.8349l128.31447 0c3.4040222 0 6.6686096 1.3522339 9.075623 3.7592468c2.407013 2.407013 3.7592773 5.671631 3.7592773 9.075653l0 51.338074c0 7.088501 -5.746399 12.8349 -12.8349 12.8349l-128.31447 0c-7.088516 0 -12.8349 -5.746399 -12.8349 -12.8349z" fill-rule="nonzero"></path><path fill="#000000" d="m241.89095 472.87537l-3.609375 -13.59375l1.84375 0l2.0625 8.90625q0.34375 1.40625 0.578125 2.78125q0.515625 -2.171875 0.609375 -2.515625l2.59375 -9.171875l2.171875 0l1.953125 6.875q0.734375 2.5625 1.046875 4.8125q0.265625 -1.28125 0.6875 -2.953125l2.125 -8.734375l1.8125 0l-3.734375 13.59375l-1.734375 0l-2.859375 -10.359375q-0.359375 -1.296875 -0.421875 -1.59375q-0.21875 0.9375 -0.40625 1.59375l-2.890625 10.359375l-1.828125 0zm14.718033 0.8125l1.609375 0.25q0.109375 0.75 0.578125 1.09375q0.609375 0.453125 1.6875 0.453125q1.171875 0 1.796875 -0.46875q0.625 -0.453125 0.859375 -1.28125q0.125 -0.515625 0.109375 -2.15625q-1.09375 1.296875 -2.71875 1.296875q-2.03125 0 -3.15625 -1.46875q-1.109375 -1.46875 -1.109375 -3.515625q0 -1.40625 0.515625 -2.59375q0.515625 -1.203125 1.484375 -1.84375q0.96875 -0.65625 2.265625 -0.65625q1.75 0 2.875 1.40625l0 -1.1875l1.546875 0l0 8.515625q0 2.3125 -0.46875 3.265625q-0.46875 0.96875 -1.484375 1.515625q-1.015625 0.5625 -2.5 0.5625q-1.765625 0 -2.859375 -0.796875q-1.078125 -0.796875 -1.03125 -2.390625zm1.375 -5.921875q0 1.953125 0.765625 2.84375q0.78125 0.890625 1.9375 0.890625q1.140625 0 1.921875 -0.890625q0.78125 -0.890625 0.78125 -2.78125q0 -1.8125 -0.8125 -2.71875q-0.796875 -0.921875 -1.921875 -0.921875q-1.109375 0 -1.890625 0.90625q-0.78125 0.890625 -0.78125 2.671875zm16.047607 1.9375l1.71875 0.21875q-0.40625 1.5 -1.515625 2.34375q-1.09375 0.828125 -2.8125 0.828125q-2.15625 0 -3.421875 -1.328125q-1.265625 -1.328125 -1.265625 -3.734375q0 -2.484375 1.265625 -3.859375q1.28125 -1.375 3.328125 -1.375q1.984375 0 3.234375 1.34375q1.25 1.34375 1.25 3.796875q0 0.140625 -0.015625 0.4375l-7.34375 0q0.09375 1.625 0.921875 2.484375q0.828125 0.859375 2.0625 0.859375q0.90625 0 1.546875 -0.46875q0.65625 -0.484375 1.046875 -1.546875zm-5.484375 -2.703125l5.5 0q-0.109375 -1.234375 -0.625 -1.859375q-0.796875 -0.96875 -2.078125 -0.96875q-1.140625 0 -1.9375 0.78125q-0.78125 0.765625 -0.859375 2.046875zm12.766327 4.375l0.234375 1.484375q-0.703125 0.140625 -1.265625 0.140625q-0.90625 0 -1.40625 -0.28125q-0.5 -0.296875 -0.703125 -0.75q-0.203125 -0.46875 -0.203125 -1.984375l0 -5.65625l-1.234375 0l0 -1.3125l1.234375 0l0 -2.4375l1.65625 -1.0l0 3.4375l1.6875 0l0 1.3125l-1.6875 0l0 5.75q0 0.71875 0.078125 0.921875q0.09375 0.203125 0.296875 0.328125q0.203125 0.125 0.578125 0.125q0.265625 0 0.734375 -0.078125z" fill-rule="nonzero"></path><path fill="#000000" fill-opacity="0.0" d="m336.81104 465.95538l35.08661 0" fill-rule="nonzero"></path><path stroke="#38761d" stroke-width="2.0" stroke-linejoin="round" stroke-linecap="butt" d="m336.81104 465.95538l23.086609 0" fill-rule="evenodd"></path><path fill="#38761d" stroke="#38761d" stroke-width="2.0" stroke-linecap="butt" d="m359.89764 469.25885l9.076202 -3.3034668l-9.076202 -3.3034668z" fill-rule="evenodd"></path><path fill="#fce5cd" d="m111.85827 566.2808c0 11.497986 164.82266 20.818909 368.14172 20.818909c203.31909 0 368.14172 -9.320923 368.14172 -20.818909l0 124.91339c0 11.497986 -164.82263 20.818909 -368.14172 20.818909c-203.31906 0 -368.14172 -9.320923 -368.14172 -20.818909z" fill-rule="nonzero"></path><path fill="#fdefe1" d="m111.85827 566.2808c0 -11.497925 164.82266 -20.818909 368.14172 -20.818909c203.31909 0 368.14172 9.320984 368.14172 20.818909l0 0c0 11.497986 -164.82263 20.818909 -368.14172 20.818909c-203.31906 0 -368.14172 -9.320923 -368.14172 -20.818909z" fill-rule="nonzero"></path><path fill="#000000" fill-opacity="0.0" d="m848.1417 566.2808l0 0c0 11.497986 -164.82263 20.818909 -368.14172 20.818909c-203.31906 0 -368.14172 -9.320923 -368.14172 -20.818909c0 -11.497925 164.82266 -20.818909 368.14172 -20.818909c203.31909 0 368.14172 9.320984 368.14172 20.818909l0 124.91339c0 11.497986 -164.82263 20.818909 -368.14172 20.818909c-203.31906 0 -368.14172 -9.320923 -368.14172 -20.818909l0 -124.91339" fill-rule="nonzero"></path><path stroke="#b45f06" stroke-width="2.0" stroke-linejoin="round" stroke-linecap="butt" stroke-dasharray="8.0,6.0" d="m848.1417 566.2808l0 0c0 11.497986 -164.82263 20.818909 -368.14172 20.818909c-203.31906 0 -368.14172 -9.320923 -368.14172 -20.818909c0 -11.497925 164.82266 -20.818909 368.14172 -20.818909c203.31909 0 368.14172 9.320984 368.14172 20.818909l0 124.91339c0 11.497986 -164.82263 20.818909 -368.14172 20.818909c-203.31906 0 -368.14172 -9.320923 -368.14172 -20.818909l0 -124.91339" fill-rule="nonzero"></path><path fill="#000000" fill-opacity="0.0" d="m700.1811 501.3084c0 27.603638 -109.2677 40.20331 -218.53543 55.207275c-109.2677 15.003906 -218.53543 32.41211 -218.53543 64.82422" fill-rule="nonzero"></path><path stroke="#cc0000" stroke-width="4.0" stroke-linejoin="round" stroke-linecap="butt" d="m700.1811 501.3084c0 27.603638 -109.2677 40.20331 -218.53543 55.207275c-54.63385 7.501953 -109.2677 15.60498 -150.2431 25.884033c-20.487701 5.1395264 -37.56079 10.823059 -49.511932 17.247498c-2.987793 1.6060791 -5.6554565 3.258484 -7.976349 4.960266c-1.1604309 0.8508911 -2.2341614 1.7141113 -3.217865 2.590088c-0.4918518 0.43798828 -0.96118164 0.8791504 -1.4075928 1.3235474c-0.11160278 0.111083984 -0.22180176 0.22241211 -0.3305359 0.33392334l-0.057281494 0.059631348" fill-rule="evenodd"></path><path fill="#cc0000" stroke="#cc0000" stroke-width="4.0" stroke-linecap="butt" d="m268.901 608.9147l-2.177063 -5.977478l-1.1435242 13.102417l9.298065 -9.302002z" fill-rule="evenodd"></path><path fill="#f4cccc" d="m359.61154 616.5361l0 0c0 2.658142 -2.1548462 4.8129883 -4.8129883 4.8129883l0 -4.8129883c0 1.3291016 -1.0774231 2.4064941 -2.4064941 2.4064941c-1.329071 0 -2.4064941 -1.0773926 -2.4064941 -2.4064941l0 4.8129883l-178.5689 0l0 0c-2.658142 0 -4.8130035 2.1548462 -4.8130035 4.8129883l0 57.75592c0 2.658142 2.1548615 4.8129883 4.8130035 4.8129883c2.658142 0 4.8129883 -2.1548462 4.8129883 -4.8129883l0 -4.8129883l178.5689 0c2.658142 0 4.8129883 -2.1548462 4.8129883 -4.8129883zm-188.19487 14.438965c2.658142 0 4.8129883 -2.1548462 4.8129883 -4.8129883c0 -1.3290405 -1.0774231 -2.4064941 -2.4064941 -2.4064941c-1.329071 0 -2.4064941 1.0774536 -2.4064941 2.4064941z" fill-rule="nonzero"></path><path fill="#c3a3a3" d="m171.41667 630.97504c2.658142 0 4.8129883 -2.1548462 4.8129883 -4.8129883c0 -1.3290405 -1.0774231 -2.4064941 -2.4064941 -2.4064941c-1.329071 0 -2.4064941 1.0774536 -2.4064941 2.4064941zm183.38188 -9.625977c2.658142 0 4.8129883 -2.1548462 4.8129883 -4.8129883c0 -2.658142 -2.1548462 -4.8129883 -4.8129883 -4.8129883c-2.658142 0 -4.8129883 2.1548462 -4.8129883 4.8129883c0 1.3291016 1.0774231 2.4064941 2.4064941 2.4064941c1.329071 0 2.4064941 -1.0773926 2.4064941 -2.4064941z" fill-rule="nonzero"></path><path fill="#000000" fill-opacity="0.0" d="m166.60367 626.16205c0 -2.658142 2.1548615 -4.8129883 4.8130035 -4.8129883l178.5689 0l0 -4.8129883l0 0c0 -2.658142 2.1548462 -4.8129883 4.8129883 -4.8129883c2.658142 0 4.8129883 2.1548462 4.8129883 4.8129883l0 57.75592c0 2.658142 -2.1548462 4.8129883 -4.8129883 4.8129883l-178.5689 0l0 4.8129883c0 2.658142 -2.1548462 4.8129883 -4.8129883 4.8129883c-2.658142 0 -4.8130035 -2.1548462 -4.8130035 -4.8129883zm183.3819 -4.8129883l4.8129883 0c2.658142 0 4.8129883 -2.1548462 4.8129883 -4.8129883m-4.8129883 4.8129883l0 -4.8129883c0 1.3291016 -1.0774231 2.4064941 -2.4064941 2.4064941c-1.329071 0 -2.4064941 -1.0773926 -2.4064941 -2.4064941m-178.5689 14.438965l0 -4.8129883l0 0c0 -1.3290405 1.0774231 -2.4064941 2.4064941 -2.4064941c1.329071 0 2.4064941 1.0774536 2.4064941 2.4064941c0 2.658142 -2.1548462 4.8129883 -4.8129883 4.8129883c-2.658142 0 -4.8130035 -2.1548462 -4.8130035 -4.8129883m9.625992 0l0 52.942932" fill-rule="nonzero"></path><path stroke="#cc0000" stroke-width="2.0" stroke-linejoin="round" stroke-linecap="butt" d="m166.60367 626.16205c0 -2.658142 2.1548615 -4.8129883 4.8130035 -4.8129883l178.5689 0l0 -4.8129883l0 0c0 -2.658142 2.1548462 -4.8129883 4.8129883 -4.8129883c2.658142 0 4.8129883 2.1548462 4.8129883 4.8129883l0 57.75592c0 2.658142 -2.1548462 4.8129883 -4.8129883 4.8129883l-178.5689 0l0 4.8129883c0 2.658142 -2.1548462 4.8129883 -4.8129883 4.8129883c-2.658142 0 -4.8130035 -2.1548462 -4.8130035 -4.8129883zm183.3819 -4.8129883l4.8129883 0c2.658142 0 4.8129883 -2.1548462 4.8129883 -4.8129883m-4.8129883 4.8129883l0 -4.8129883c0 1.3291016 -1.0774231 2.4064941 -2.4064941 2.4064941c-1.329071 0 -2.4064941 -1.0773926 -2.4064941 -2.4064941m-178.5689 14.438965l0 -4.8129883l0 0c0 -1.3290405 1.0774231 -2.4064941 2.4064941 -2.4064941c1.329071 0 2.4064941 1.0774536 2.4064941 2.4064941c0 2.658142 -2.1548462 4.8129883 -4.8129883 4.8129883c-2.658142 0 -4.8130035 -2.1548462 -4.8130035 -4.8129883m9.625992 0l0 52.942932" fill-rule="nonzero"></path><path fill="#000000" d="m199.40468 646.14703l0 -12.0l-4.46875 0l0 -1.59375l10.765625 0l0 1.59375l-4.5 0l0 12.0l-1.796875 0zm7.708481 0l0 -9.859375l1.5 0l0 1.5q0.578125 -1.046875 1.0625 -1.375q0.484375 -0.34375 1.078125 -0.34375q0.84375 0 1.71875 0.546875l-0.578125 1.546875q-0.609375 -0.359375 -1.234375 -0.359375q-0.546875 0 -0.984375 0.328125q-0.421875 0.328125 -0.609375 0.90625q-0.28125 0.890625 -0.28125 1.953125l0 5.15625l-1.671875 0zm6.243927 -11.6875l0 -1.90625l1.671875 0l0 1.90625l-1.671875 0zm0 11.6875l0 -9.859375l1.671875 0l0 9.859375l-1.671875 0zm4.129196 3.78125l0 -13.640625l1.53125 0l0 1.28125q0.53125 -0.75 1.203125 -1.125q0.6875 -0.375 1.640625 -0.375q1.265625 0 2.234375 0.65625q0.96875 0.640625 1.453125 1.828125q0.5 1.1875 0.5 2.59375q0 1.515625 -0.546875 2.734375q-0.546875 1.203125 -1.578125 1.84375q-1.03125 0.640625 -2.171875 0.640625q-0.84375 0 -1.515625 -0.34375q-0.65625 -0.359375 -1.078125 -0.890625l0 4.796875l-1.671875 0zm1.515625 -8.65625q0 1.90625 0.765625 2.8125q0.78125 0.90625 1.875 0.90625q1.109375 0 1.890625 -0.9375q0.796875 -0.9375 0.796875 -2.921875q0 -1.875 -0.78125 -2.8125q-0.765625 -0.9375 -1.84375 -0.9375q-1.0625 0 -1.890625 1.0q-0.8125 1.0 -0.8125 2.890625zm8.188217 1.9375l1.65625 -0.265625q0.140625 1.0 0.765625 1.53125q0.640625 0.515625 1.78125 0.515625q1.15625 0 1.703125 -0.46875q0.5625 -0.46875 0.5625 -1.09375q0 -0.5625 -0.484375 -0.890625q-0.34375 -0.21875 -1.703125 -0.5625q-1.84375 -0.46875 -2.5625 -0.796875q-0.703125 -0.34375 -1.078125 -0.9375q-0.359375 -0.609375 -0.359375 -1.328125q0 -0.65625 0.296875 -1.21875q0.3125 -0.5625 0.828125 -0.9375q0.390625 -0.28125 1.0625 -0.484375q0.671875 -0.203125 1.4375 -0.203125q1.171875 0 2.046875 0.34375q0.875 0.328125 1.28125 0.90625q0.421875 0.5625 0.578125 1.515625l-1.625 0.21875q-0.109375 -0.75 -0.65625 -1.171875q-0.53125 -0.4375 -1.5 -0.4375q-1.15625 0 -1.640625 0.390625q-0.484375 0.375 -0.484375 0.875q0 0.328125 0.203125 0.59375q0.203125 0.265625 0.640625 0.4375q0.25 0.09375 1.46875 0.4375q1.765625 0.46875 2.46875 0.765625q0.703125 0.296875 1.09375 0.875q0.40625 0.578125 0.40625 1.4375q0 0.828125 -0.484375 1.578125q-0.484375 0.734375 -1.40625 1.140625q-0.921875 0.390625 -2.078125 0.390625q-1.921875 0 -2.9375 -0.796875q-1.0 -0.796875 -1.28125 -2.359375zm21.620804 1.71875q-0.9375 0.796875 -1.796875 1.125q-0.859375 0.3125 -1.84375 0.3125q-1.609375 0 -2.484375 -0.78125q-0.875 -0.796875 -0.875 -2.03125q0 -0.734375 0.328125 -1.328125q0.328125 -0.59375 0.859375 -0.953125q0.53125 -0.359375 1.203125 -0.546875q0.5 -0.140625 1.484375 -0.25q2.03125 -0.25 2.984375 -0.578125q0 -0.34375 0 -0.4375q0 -1.015625 -0.46875 -1.4375q-0.640625 -0.5625 -1.90625 -0.5625q-1.171875 0 -1.734375 0.40625q-0.5625 0.40625 -0.828125 1.46875l-1.640625 -0.234375q0.234375 -1.046875 0.734375 -1.6875q0.515625 -0.640625 1.46875 -0.984375q0.96875 -0.359375 2.25 -0.359375q1.265625 0 2.046875 0.296875q0.78125 0.296875 1.15625 0.75q0.375 0.453125 0.515625 1.140625q0.09375 0.421875 0.09375 1.53125l0 2.234375q0 2.328125 0.09375 2.953125q0.109375 0.609375 0.4375 1.171875l-1.75 0q-0.265625 -0.515625 -0.328125 -1.21875zm-0.140625 -3.71875q-0.90625 0.359375 -2.734375 0.625q-1.03125 0.140625 -1.453125 0.328125q-0.421875 0.1875 -0.65625 0.546875q-0.234375 0.359375 -0.234375 0.796875q0 0.671875 0.5 1.125q0.515625 0.4375 1.484375 0.4375q0.96875 0 1.71875 -0.421875q0.75 -0.4375 1.109375 -1.15625q0.265625 -0.578125 0.265625 -1.671875l0 -0.609375zm4.078842 4.9375l0 -9.859375l1.5 0l0 1.40625q1.09375 -1.625 3.140625 -1.625q0.890625 0 1.640625 0.328125q0.75 0.3125 1.109375 0.84375q0.375 0.515625 0.53125 1.21875q0.09375 0.46875 0.09375 1.625l0 6.0625l-1.671875 0l0 -6.0q0 -1.015625 -0.203125 -1.515625q-0.1875 -0.515625 -0.6875 -0.8125q-0.5 -0.296875 -1.171875 -0.296875q-1.0625 0 -1.84375 0.671875q-0.765625 0.671875 -0.765625 2.578125l0 5.375l-1.671875 0zm16.766327 0l0 -1.25q-0.9375 1.46875 -2.75 1.46875q-1.171875 0 -2.171875 -0.640625q-0.984375 -0.65625 -1.53125 -1.8125q-0.53125 -1.171875 -0.53125 -2.6875q0 -1.46875 0.484375 -2.671875q0.5 -1.203125 1.46875 -1.84375q0.984375 -0.640625 2.203125 -0.640625q0.890625 0 1.578125 0.375q0.703125 0.375 1.140625 0.984375l0 -4.875l1.65625 0l0 13.59375l-1.546875 0zm-5.28125 -4.921875q0 1.890625 0.796875 2.828125q0.8125 0.9375 1.890625 0.9375q1.09375 0 1.859375 -0.890625q0.765625 -0.890625 0.765625 -2.734375q0 -2.015625 -0.78125 -2.953125q-0.78125 -0.953125 -1.921875 -0.953125q-1.109375 0 -1.859375 0.90625q-0.75 0.90625 -0.75 2.859375zm14.699646 4.921875l0 -13.59375l6.03125 0q1.8125 0 2.75 0.359375q0.953125 0.359375 1.515625 1.296875q0.5625 0.921875 0.5625 2.046875q0 1.453125 -0.9375 2.453125q-0.921875 0.984375 -2.890625 1.25q0.71875 0.34375 1.09375 0.671875q0.78125 0.734375 1.484375 1.8125l2.375 3.703125l-2.265625 0l-1.796875 -2.828125q-0.796875 -1.21875 -1.3125 -1.875q-0.5 -0.65625 -0.90625 -0.90625q-0.40625 -0.265625 -0.8125 -0.359375q-0.3125 -0.078125 -1.015625 -0.078125l-2.078125 0l0 6.046875l-1.796875 0zm1.796875 -7.59375l3.859375 0q1.234375 0 1.921875 -0.25q0.703125 -0.265625 1.0625 -0.828125q0.375 -0.5625 0.375 -1.21875q0 -0.96875 -0.703125 -1.578125q-0.703125 -0.625 -2.21875 -0.625l-4.296875 0l0 4.5zm10.801086 2.671875q0 -2.734375 1.53125 -4.0625q1.265625 -1.09375 3.09375 -1.09375q2.03125 0 3.3125 1.34375q1.296875 1.328125 1.296875 3.671875q0 1.90625 -0.578125 3.0q-0.5625 1.078125 -1.65625 1.6875q-1.078125 0.59375 -2.375 0.59375q-2.0625 0 -3.34375 -1.328125q-1.28125 -1.328125 -1.28125 -3.8125zm1.71875 0q0 1.890625 0.828125 2.828125q0.828125 0.9375 2.078125 0.9375q1.25 0 2.0625 -0.9375q0.828125 -0.953125 0.828125 -2.890625q0 -1.828125 -0.828125 -2.765625q-0.828125 -0.9375 -2.0625 -0.9375q-1.25 0 -2.078125 0.9375q-0.828125 0.9375 -0.828125 2.828125zm15.735077 4.921875l0 -1.453125q-1.140625 1.671875 -3.125 1.671875q-0.859375 0 -1.625 -0.328125q-0.75 -0.34375 -1.125 -0.84375q-0.359375 -0.5 -0.515625 -1.234375q-0.09375 -0.5 -0.09375 -1.5625l0 -6.109375l1.671875 0l0 5.46875q0 1.3125 0.09375 1.765625q0.15625 0.65625 0.671875 1.03125q0.515625 0.375 1.265625 0.375q0.75 0 1.40625 -0.375q0.65625 -0.390625 0.921875 -1.046875q0.28125 -0.671875 0.28125 -1.9375l0 -5.28125l1.671875 0l0 9.859375l-1.5 0zm7.5788574 -1.5l0.234375 1.484375q-0.703125 0.140625 -1.265625 0.140625q-0.90625 0 -1.40625 -0.28125q-0.5 -0.296875 -0.703125 -0.75q-0.203125 -0.46875 -0.203125 -1.984375l0 -5.65625l-1.234375 0l0 -1.3125l1.234375 0l0 -2.4375l1.65625 -1.0l0 3.4375l1.6875 0l0 1.3125l-1.6875 0l0 5.75q0 0.71875 0.078125 0.921875q0.09375 0.203125 0.296875 0.328125q0.203125 0.125 0.578125 0.125q0.265625 0 0.734375 -0.078125zm8.277039 -1.671875l1.71875 0.21875q-0.40625 1.5 -1.515625 2.34375q-1.09375 0.828125 -2.8125 0.828125q-2.15625 0 -3.421875 -1.328125q-1.265625 -1.328125 -1.265625 -3.734375q0 -2.484375 1.265625 -3.859375q1.28125 -1.375 3.328125 -1.375q1.984375 0 3.234375 1.34375q1.25 1.34375 1.25 3.796875q0 0.140625 -0.015625 0.4375l-7.34375 0q0.09375 1.625 0.921875 2.484375q0.828125 0.859375 2.0625 0.859375q0.90625 0 1.546875 -0.46875q0.65625 -0.484375 1.046875 -1.546875zm-5.484375 -2.703125l5.5 0q-0.109375 -1.234375 -0.625 -1.859375q-0.796875 -0.96875 -2.078125 -0.96875q-1.140625 0 -1.9375 0.78125q-0.78125 0.765625 -0.859375 2.046875zm8.438232 2.9375l1.65625 -0.265625q0.140625 1.0 0.765625 1.53125q0.640625 0.515625 1.78125 0.515625q1.15625 0 1.703125 -0.46875q0.5625 -0.46875 0.5625 -1.09375q0 -0.5625 -0.484375 -0.890625q-0.34375 -0.21875 -1.703125 -0.5625q-1.84375 -0.46875 -2.5625 -0.796875q-0.703125 -0.34375 -1.078125 -0.9375q-0.359375 -0.609375 -0.359375 -1.328125q0 -0.65625 0.296875 -1.21875q0.3125 -0.5625 0.828125 -0.9375q0.390625 -0.28125 1.0625 -0.484375q0.671875 -0.203125 1.4375 -0.203125q1.171875 0 2.046875 0.34375q0.875 0.328125 1.28125 0.90625q0.421875 0.5625 0.578125 1.515625l-1.625 0.21875q-0.109375 -0.75 -0.65625 -1.171875q-0.53125 -0.4375 -1.5 -0.4375q-1.15625 0 -1.640625 0.390625q-0.484375 0.375 -0.484375 0.875q0 0.328125 0.203125 0.59375q0.203125 0.265625 0.640625 0.4375q0.25 0.09375 1.46875 0.4375q1.765625 0.46875 2.46875 0.765625q0.703125 0.296875 1.09375 0.875q0.40625 0.578125 0.40625 1.4375q0 0.828125 -0.484375 1.578125q-0.484375 0.734375 -1.40625 1.140625q-0.921875 0.390625 -2.078125 0.390625q-1.921875 0 -2.9375 -0.796875q-1.0 -0.796875 -1.28125 -2.359375z" fill-rule="nonzero"></path><path fill="#000000" d="m247.66522 672.14703q-1.375 -1.75 -2.328125 -4.078125q-0.953125 -2.34375 -0.953125 -4.84375q0 -2.21875 0.703125 -4.234375q0.84375 -2.34375 2.578125 -4.671875l1.203125 0q-1.125 1.921875 -1.484375 2.75q-0.5625 1.28125 -0.890625 2.671875q-0.40625 1.734375 -0.40625 3.484375q0 4.46875 2.78125 8.921875l-1.203125 0zm2.368927 -15.109375l0.421875 -1.3125q1.484375 0.515625 2.140625 0.90625q-0.171875 -1.6875 -0.171875 -2.3125l1.34375 0q-0.03125 0.90625 -0.21875 2.296875q0.953125 -0.484375 2.1875 -0.890625l0.421875 1.3125q-1.171875 0.390625 -2.296875 0.53125q0.5625 0.484375 1.59375 1.75l-1.109375 0.78125q-0.546875 -0.734375 -1.28125 -1.984375q-0.6875 1.296875 -1.203125 1.984375l-1.09375 -0.78125q1.078125 -1.328125 1.53125 -1.75q-1.1875 -0.234375 -2.265625 -0.53125zm8.385254 11.109375l0 -1.90625l1.90625 0l0 1.90625l-1.90625 0zm4.417694 0.8125l1.609375 0.25q0.109375 0.75 0.578125 1.09375q0.609375 0.453125 1.6875 0.453125q1.171875 0 1.796875 -0.46875q0.625 -0.453125 0.859375 -1.28125q0.125 -0.515625 0.109375 -2.15625q-1.09375 1.296875 -2.71875 1.296875q-2.03125 0 -3.15625 -1.46875q-1.109375 -1.46875 -1.109375 -3.515625q0 -1.40625 0.515625 -2.59375q0.515625 -1.203125 1.484375 -1.84375q0.96875 -0.65625 2.265625 -0.65625q1.75 0 2.875 1.40625l0 -1.1875l1.546875 0l0 8.515625q0 2.3125 -0.46875 3.265625q-0.46875 0.96875 -1.484375 1.515625q-1.015625 0.5625 -2.5 0.5625q-1.765625 0 -2.859375 -0.796875q-1.078125 -0.796875 -1.03125 -2.390625zm1.375 -5.921875q0 1.953125 0.765625 2.84375q0.78125 0.890625 1.9375 0.890625q1.140625 0 1.921875 -0.890625q0.78125 -0.890625 0.78125 -2.78125q0 -1.8125 -0.8125 -2.71875q-0.796875 -0.921875 -1.921875 -0.921875q-1.109375 0 -1.890625 0.90625q-0.78125 0.890625 -0.78125 2.671875zm8.422577 5.109375l0 -1.359375l6.265625 -7.1875q-1.0625 0.046875 -1.875 0.046875l-4.015625 0l0 -1.359375l8.046875 0l0 1.109375l-5.34375 6.25l-1.015625 1.140625q1.109375 -0.078125 2.09375 -0.078125l4.5625 0l0 1.4375l-8.71875 0zm11.296875 4.0l-1.1875 0q2.765625 -4.453125 2.765625 -8.921875q0 -1.734375 -0.390625 -3.453125q-0.328125 -1.390625 -0.890625 -2.671875q-0.359375 -0.84375 -1.484375 -2.78125l1.1875 0q1.75 2.328125 2.578125 4.671875q0.71875 2.015625 0.71875 4.234375q0 2.5 -0.96875 4.84375q-0.953125 2.328125 -2.328125 4.078125z" fill-rule="nonzero"></path><path fill="#f4cccc" d="m566.5696 600.5374l0 0c0 2.658142 -2.1548462 4.8129883 -4.8129883 4.8129883l0 -4.8129883c0 1.3290405 -1.0774536 2.4064941 -2.4065552 2.4064941c-1.3290405 0 -2.4064941 -1.0774536 -2.4064941 -2.4064941l0 4.8129883l-178.56888 0l0 0c-2.658142 0 -4.8129883 2.1548462 -4.8129883 4.8129883l0 57.75592c0 2.658142 2.1548462 4.8129883 4.8129883 4.8129883c2.658142 0 4.8129883 -2.1548462 4.8129883 -4.8129883l0 -4.8129883l178.56894 0c2.658142 0 4.8129883 -2.1548462 4.8129883 -4.8129883zm-188.19492 14.438965c2.658142 0 4.8129883 -2.1548462 4.8129883 -4.8129883c0 -1.3291016 -1.0774231 -2.4064941 -2.4064941 -2.4064941c-1.329071 0 -2.4064941 1.0773926 -2.4064941 2.4064941z" fill-rule="nonzero"></path><path fill="#c3a3a3" d="m378.37466 614.9764c2.658142 0 4.8129883 -2.1548462 4.8129883 -4.8129883c0 -1.3291016 -1.0774231 -2.4064941 -2.4064941 -2.4064941c-1.329071 0 -2.4064941 1.0773926 -2.4064941 2.4064941zm183.38193 -9.625977c2.658142 0 4.8129883 -2.1548462 4.8129883 -4.8129883c0 -2.658142 -2.1548462 -4.8129883 -4.8129883 -4.8129883c-2.658142 0 -4.8130493 2.1548462 -4.8130493 4.8129883c0 1.3290405 1.0774536 2.4064941 2.4064941 2.4064941c1.3291016 0 2.4065552 -1.0774536 2.4065552 -2.4064941z" fill-rule="nonzero"></path><path fill="#000000" fill-opacity="0.0" d="m373.56168 610.1634c0 -2.658142 2.1548462 -4.8129883 4.8129883 -4.8129883l178.56888 0l0 -4.8129883l0 0c0 -2.658142 2.1549072 -4.8129883 4.8130493 -4.8129883c2.658142 0 4.8129883 2.1548462 4.8129883 4.8129883l0 57.75592c0 2.658142 -2.1548462 4.8129883 -4.8129883 4.8129883l-178.56894 0l0 4.8129883c0 2.658142 -2.1548462 4.8129883 -4.8129883 4.8129883c-2.658142 0 -4.8129883 -2.1548462 -4.8129883 -4.8129883zm183.38187 -4.8129883l4.8130493 0c2.658142 0 4.8129883 -2.1548462 4.8129883 -4.8129883m-4.8129883 4.8129883l0 -4.8129883c0 1.3290405 -1.0774536 2.4064941 -2.4065552 2.4064941c-1.3290405 0 -2.4064941 -1.0774536 -2.4064941 -2.4064941m-178.56888 14.438965l0 -4.8129883l0 0c0 -1.3291016 1.0774231 -2.4064941 2.4064941 -2.4064941c1.329071 0 2.4064941 1.0773926 2.4064941 2.4064941c0 2.658142 -2.1548462 4.8129883 -4.8129883 4.8129883c-2.658142 0 -4.8129883 -2.1548462 -4.8129883 -4.8129883m9.625977 0l0 52.942932" fill-rule="nonzero"></path><path stroke="#cc0000" stroke-width="2.0" stroke-linejoin="round" stroke-linecap="butt" d="m373.56168 610.1634c0 -2.658142 2.1548462 -4.8129883 4.8129883 -4.8129883l178.56888 0l0 -4.8129883l0 0c0 -2.658142 2.1549072 -4.8129883 4.8130493 -4.8129883c2.658142 0 4.8129883 2.1548462 4.8129883 4.8129883l0 57.75592c0 2.658142 -2.1548462 4.8129883 -4.8129883 4.8129883l-178.56894 0l0 4.8129883c0 2.658142 -2.1548462 4.8129883 -4.8129883 4.8129883c-2.658142 0 -4.8129883 -2.1548462 -4.8129883 -4.8129883zm183.38187 -4.8129883l4.8130493 0c2.658142 0 4.8129883 -2.1548462 4.8129883 -4.8129883m-4.8129883 4.8129883l0 -4.8129883c0 1.3290405 -1.0774536 2.4064941 -2.4065552 2.4064941c-1.3290405 0 -2.4064941 -1.0774536 -2.4064941 -2.4064941m-178.56888 14.438965l0 -4.8129883l0 0c0 -1.3291016 1.0774231 -2.4064941 2.4064941 -2.4064941c1.329071 0 2.4064941 1.0773926 2.4064941 2.4064941c0 2.658142 -2.1548462 4.8129883 -4.8129883 4.8129883c-2.658142 0 -4.8129883 -2.1548462 -4.8129883 -4.8129883m9.625977 0l0 52.942932" fill-rule="nonzero"></path><path fill="#000000" d="m454.62323 645.1483q-1.375 -1.75 -2.328125 -4.078125q-0.953125 -2.34375 -0.953125 -4.84375q0 -2.21875 0.703125 -4.234375q0.84375 -2.34375 2.578125 -4.671875l1.203125 0q-1.125 1.921875 -1.484375 2.75q-0.5625 1.28125 -0.890625 2.671875q-0.40625 1.734375 -0.40625 3.484375q0 4.46875 2.78125 8.921875l-1.203125 0zm2.368927 -15.109375l0.421875 -1.3125q1.484375 0.515625 2.140625 0.90625q-0.171875 -1.6875 -0.171875 -2.3125l1.34375 0q-0.03125 0.90625 -0.21875 2.296875q0.953125 -0.484375 2.1875 -0.890625l0.421875 1.3125q-1.171875 0.390625 -2.296875 0.53125q0.5625 0.484375 1.59375 1.75l-1.109375 0.78125q-0.546875 -0.734375 -1.28125 -1.984375q-0.6875 1.296875 -1.203125 1.984375l-1.09375 -0.78125q1.078125 -1.328125 1.53125 -1.75q-1.1875 -0.234375 -2.265625 -0.53125zm8.385254 11.109375l0 -1.90625l1.90625 0l0 1.90625l-1.90625 0zm4.417694 0.8125l1.609375 0.25q0.109375 0.75 0.578125 1.09375q0.609375 0.453125 1.6875 0.453125q1.171875 0 1.796875 -0.46875q0.625 -0.453125 0.859375 -1.28125q0.125 -0.515625 0.109375 -2.15625q-1.09375 1.296875 -2.71875 1.296875q-2.03125 0 -3.15625 -1.46875q-1.109375 -1.46875 -1.109375 -3.515625q0 -1.40625 0.515625 -2.59375q0.515625 -1.203125 1.484375 -1.84375q0.96875 -0.65625 2.265625 -0.65625q1.75 0 2.875 1.40625l0 -1.1875l1.546875 0l0 8.515625q0 2.3125 -0.46875 3.265625q-0.46875 0.96875 -1.484375 1.515625q-1.015625 0.5625 -2.5 0.5625q-1.765625 0 -2.859375 -0.796875q-1.078125 -0.796875 -1.03125 -2.390625zm1.375 -5.921875q0 1.953125 0.765625 2.84375q0.78125 0.890625 1.9375 0.890625q1.140625 0 1.921875 -0.890625q0.78125 -0.890625 0.78125 -2.78125q0 -1.8125 -0.8125 -2.71875q-0.796875 -0.921875 -1.921875 -0.921875q-1.109375 0 -1.890625 0.90625q-0.78125 0.890625 -0.78125 2.671875zm8.422577 5.109375l0 -1.359375l6.265625 -7.1875q-1.0625 0.046875 -1.875 0.046875l-4.015625 0l0 -1.359375l8.046875 0l0 1.109375l-5.34375 6.25l-1.015625 1.140625q1.109375 -0.078125 2.09375 -0.078125l4.5625 0l0 1.4375l-8.71875 0zm11.296875 4.0l-1.1875 0q2.765625 -4.453125 2.765625 -8.921875q0 -1.734375 -0.390625 -3.453125q-0.328125 -1.390625 -0.890625 -2.671875q-0.359375 -0.84375 -1.484375 -2.78125l1.1875 0q1.75 2.328125 2.578125 4.671875q0.71875 2.015625 0.71875 4.234375q0 2.5 -0.96875 4.84375q-0.953125 2.328125 -2.328125 4.078125z" fill-rule="nonzero"></path><path fill="#f4cccc" d="m582.5696 616.5374l0 0c0 2.658142 -2.1548462 4.8129883 -4.8129883 4.8129883l0 -4.8129883c0 1.3290405 -1.0774536 2.4064941 -2.4065552 2.4064941c-1.3290405 0 -2.4064941 -1.0774536 -2.4064941 -2.4064941l0 4.8129883l-178.56888 0l0 0c-2.658142 0 -4.8129883 2.1548462 -4.8129883 4.8129883l0 57.75592c0 2.658142 2.1548462 4.8129883 4.8129883 4.8129883c2.658142 0 4.8129883 -2.1548462 4.8129883 -4.8129883l0 -4.8129883l178.56894 0c2.658142 0 4.8129883 -2.1548462 4.8129883 -4.8129883zm-188.19492 14.438965c2.658142 0 4.8129883 -2.1548462 4.8129883 -4.8129883c0 -1.3291016 -1.0774231 -2.4064941 -2.4064941 -2.4064941c-1.329071 0 -2.4064941 1.0773926 -2.4064941 2.4064941z" fill-rule="nonzero"></path><path fill="#c3a3a3" d="m394.37466 630.9764c2.658142 0 4.8129883 -2.1548462 4.8129883 -4.8129883c0 -1.3291016 -1.0774231 -2.4064941 -2.4064941 -2.4064941c-1.329071 0 -2.4064941 1.0773926 -2.4064941 2.4064941zm183.38193 -9.625977c2.658142 0 4.8129883 -2.1548462 4.8129883 -4.8129883c0 -2.658142 -2.1548462 -4.8129883 -4.8129883 -4.8129883c-2.658142 0 -4.8130493 2.1548462 -4.8130493 4.8129883c0 1.3290405 1.0774536 2.4064941 2.4064941 2.4064941c1.3291016 0 2.4065552 -1.0774536 2.4065552 -2.4064941z" fill-rule="nonzero"></path><path fill="#000000" fill-opacity="0.0" d="m389.56168 626.1634c0 -2.658142 2.1548462 -4.8129883 4.8129883 -4.8129883l178.56888 0l0 -4.8129883l0 0c0 -2.658142 2.1549072 -4.8129883 4.8130493 -4.8129883c2.658142 0 4.8129883 2.1548462 4.8129883 4.8129883l0 57.75592c0 2.658142 -2.1548462 4.8129883 -4.8129883 4.8129883l-178.56894 0l0 4.8129883c0 2.658142 -2.1548462 4.8129883 -4.8129883 4.8129883c-2.658142 0 -4.8129883 -2.1548462 -4.8129883 -4.8129883zm183.38187 -4.8129883l4.8130493 0c2.658142 0 4.8129883 -2.1548462 4.8129883 -4.8129883m-4.8129883 4.8129883l0 -4.8129883c0 1.3290405 -1.0774536 2.4064941 -2.4065552 2.4064941c-1.3290405 0 -2.4064941 -1.0774536 -2.4064941 -2.4064941m-178.56888 14.438965l0 -4.8129883l0 0c0 -1.3291016 1.0774231 -2.4064941 2.4064941 -2.4064941c1.329071 0 2.4064941 1.0773926 2.4064941 2.4064941c0 2.658142 -2.1548462 4.8129883 -4.8129883 4.8129883c-2.658142 0 -4.8129883 -2.1548462 -4.8129883 -4.8129883m9.625977 0l0 52.942932" fill-rule="nonzero"></path><path stroke="#cc0000" stroke-width="2.0" stroke-linejoin="round" stroke-linecap="butt" d="m389.56168 626.1634c0 -2.658142 2.1548462 -4.8129883 4.8129883 -4.8129883l178.56888 0l0 -4.8129883l0 0c0 -2.658142 2.1549072 -4.8129883 4.8130493 -4.8129883c2.658142 0 4.8129883 2.1548462 4.8129883 4.8129883l0 57.75592c0 2.658142 -2.1548462 4.8129883 -4.8129883 4.8129883l-178.56894 0l0 4.8129883c0 2.658142 -2.1548462 4.8129883 -4.8129883 4.8129883c-2.658142 0 -4.8129883 -2.1548462 -4.8129883 -4.8129883zm183.38187 -4.8129883l4.8130493 0c2.658142 0 4.8129883 -2.1548462 4.8129883 -4.8129883m-4.8129883 4.8129883l0 -4.8129883c0 1.3290405 -1.0774536 2.4064941 -2.4065552 2.4064941c-1.3290405 0 -2.4064941 -1.0774536 -2.4064941 -2.4064941m-178.56888 14.438965l0 -4.8129883l0 0c0 -1.3291016 1.0774231 -2.4064941 2.4064941 -2.4064941c1.329071 0 2.4064941 1.0773926 2.4064941 2.4064941c0 2.658142 -2.1548462 4.8129883 -4.8129883 4.8129883c-2.658142 0 -4.8129883 -2.1548462 -4.8129883 -4.8129883m9.625977 0l0 52.942932" fill-rule="nonzero"></path><path fill="#f4cccc" d="m598.5696 632.5374l0 0c0 2.658142 -2.1548462 4.8129883 -4.8129883 4.8129883l0 -4.8129883c0 1.3290405 -1.0774536 2.4064941 -2.4065552 2.4064941c-1.3290405 0 -2.4064941 -1.0774536 -2.4064941 -2.4064941l0 4.8129883l-178.56888 0l0 0c-2.658142 0 -4.8129883 2.1548462 -4.8129883 4.8129883l0 57.75592c0 2.658142 2.1548462 4.8129883 4.8129883 4.8129883c2.658142 0 4.8129883 -2.1548462 4.8129883 -4.8129883l0 -4.8129883l178.56894 0c2.658142 0 4.8129883 -2.1548462 4.8129883 -4.8129883zm-188.19492 14.438965c2.658142 0 4.8129883 -2.1548462 4.8129883 -4.8129883c0 -1.3291016 -1.0774231 -2.4064941 -2.4064941 -2.4064941c-1.329071 0 -2.4064941 1.0773926 -2.4064941 2.4064941z" fill-rule="nonzero"></path><path fill="#c3a3a3" d="m410.37466 646.9764c2.658142 0 4.8129883 -2.1548462 4.8129883 -4.8129883c0 -1.3291016 -1.0774231 -2.4064941 -2.4064941 -2.4064941c-1.329071 0 -2.4064941 1.0773926 -2.4064941 2.4064941zm183.38193 -9.625977c2.658142 0 4.8129883 -2.1548462 4.8129883 -4.8129883c0 -2.658142 -2.1548462 -4.8129883 -4.8129883 -4.8129883c-2.658142 0 -4.8130493 2.1548462 -4.8130493 4.8129883c0 1.3290405 1.0774536 2.4064941 2.4064941 2.4064941c1.3291016 0 2.4065552 -1.0774536 2.4065552 -2.4064941z" fill-rule="nonzero"></path><path fill="#000000" fill-opacity="0.0" d="m405.56168 642.1634c0 -2.658142 2.1548462 -4.8129883 4.8129883 -4.8129883l178.56888 0l0 -4.8129883l0 0c0 -2.658142 2.1549072 -4.8129883 4.8130493 -4.8129883c2.658142 0 4.8129883 2.1548462 4.8129883 4.8129883l0 57.75592c0 2.658142 -2.1548462 4.8129883 -4.8129883 4.8129883l-178.56894 0l0 4.8129883c0 2.658142 -2.1548462 4.8129883 -4.8129883 4.8129883c-2.658142 0 -4.8129883 -2.1548462 -4.8129883 -4.8129883zm183.38187 -4.8129883l4.8130493 0c2.658142 0 4.8129883 -2.1548462 4.8129883 -4.8129883m-4.8129883 4.8129883l0 -4.8129883c0 1.3290405 -1.0774536 2.4064941 -2.4065552 2.4064941c-1.3290405 0 -2.4064941 -1.0774536 -2.4064941 -2.4064941m-178.56888 14.438965l0 -4.8129883l0 0c0 -1.3291016 1.0774231 -2.4064941 2.4064941 -2.4064941c1.329071 0 2.4064941 1.0773926 2.4064941 2.4064941c0 2.658142 -2.1548462 4.8129883 -4.8129883 4.8129883c-2.658142 0 -4.8129883 -2.1548462 -4.8129883 -4.8129883m9.625977 0l0 52.942932" fill-rule="nonzero"></path><path stroke="#cc0000" stroke-width="2.0" stroke-linejoin="round" stroke-linecap="butt" d="m405.56168 642.1634c0 -2.658142 2.1548462 -4.8129883 4.8129883 -4.8129883l178.56888 0l0 -4.8129883l0 0c0 -2.658142 2.1549072 -4.8129883 4.8130493 -4.8129883c2.658142 0 4.8129883 2.1548462 4.8129883 4.8129883l0 57.75592c0 2.658142 -2.1548462 4.8129883 -4.8129883 4.8129883l-178.56894 0l0 4.8129883c0 2.658142 -2.1548462 4.8129883 -4.8129883 4.8129883c-2.658142 0 -4.8129883 -2.1548462 -4.8129883 -4.8129883zm183.38187 -4.8129883l4.8130493 0c2.658142 0 4.8129883 -2.1548462 4.8129883 -4.8129883m-4.8129883 4.8129883l0 -4.8129883c0 1.3290405 -1.0774536 2.4064941 -2.4065552 2.4064941c-1.3290405 0 -2.4064941 -1.0774536 -2.4064941 -2.4064941m-178.56888 14.438965l0 -4.8129883l0 0c0 -1.3291016 1.0774231 -2.4064941 2.4064941 -2.4064941c1.329071 0 2.4064941 1.0773926 2.4064941 2.4064941c0 2.658142 -2.1548462 4.8129883 -4.8129883 4.8129883c-2.658142 0 -4.8129883 -2.1548462 -4.8129883 -4.8129883m9.625977 0l0 52.942932" fill-rule="nonzero"></path><path fill="#000000" d="m435.33865 657.7733l1.6875 -0.140625q0.125 1.015625 0.5625 1.671875q0.4375 0.65625 1.359375 1.0625q0.9375 0.40625 2.09375 0.40625q1.03125 0 1.8125 -0.3125q0.796875 -0.3125 1.1875 -0.84375q0.390625 -0.53125 0.390625 -1.15625q0 -0.640625 -0.375 -1.109375q-0.375 -0.484375 -1.234375 -0.8125q-0.546875 -0.21875 -2.421875 -0.65625q-1.875 -0.453125 -2.625 -0.859375q-0.96875 -0.515625 -1.453125 -1.265625q-0.46875 -0.75 -0.46875 -1.6875q0 -1.03125 0.578125 -1.921875q0.59375 -0.90625 1.703125 -1.359375q1.125 -0.46875 2.5 -0.46875q1.515625 0 2.671875 0.484375q1.15625 0.484375 1.765625 1.4375q0.625 0.9375 0.671875 2.140625l-1.71875 0.125q-0.140625 -1.28125 -0.953125 -1.9375q-0.796875 -0.671875 -2.359375 -0.671875q-1.625 0 -2.375 0.609375q-0.75 0.59375 -0.75 1.4375q0 0.734375 0.53125 1.203125q0.515625 0.46875 2.703125 0.96875q2.203125 0.5 3.015625 0.875q1.1875 0.546875 1.75 1.390625q0.578125 0.828125 0.578125 1.921875q0 1.09375 -0.625 2.0625q-0.625 0.953125 -1.796875 1.484375q-1.15625 0.53125 -2.609375 0.53125q-1.84375 0 -3.09375 -0.53125q-1.25 -0.546875 -1.96875 -1.625q-0.703125 -1.078125 -0.734375 -2.453125zm16.490448 2.875l0.234375 1.484375q-0.703125 0.140625 -1.265625 0.140625q-0.90625 0 -1.40625 -0.28125q-0.5 -0.296875 -0.703125 -0.75q-0.203125 -0.46875 -0.203125 -1.984375l0 -5.65625l-1.234375 0l0 -1.3125l1.234375 0l0 -2.4375l1.65625 -1.0l0 3.4375l1.6875 0l0 1.3125l-1.6875 0l0 5.75q0 0.71875 0.078125 0.921875q0.09375 0.203125 0.296875 0.328125q0.203125 0.125 0.578125 0.125q0.265625 0 0.734375 -0.078125zm0.9020691 -3.421875q0 -2.734375 1.53125 -4.0625q1.265625 -1.09375 3.09375 -1.09375q2.03125 0 3.3125 1.34375q1.296875 1.328125 1.296875 3.671875q0 1.90625 -0.578125 3.0q-0.5625 1.078125 -1.65625 1.6875q-1.078125 0.59375 -2.375 0.59375q-2.0625 0 -3.34375 -1.328125q-1.28125 -1.328125 -1.28125 -3.8125zm1.71875 0q0 1.890625 0.828125 2.828125q0.828125 0.9375 2.078125 0.9375q1.25 0 2.0625 -0.9375q0.828125 -0.953125 0.828125 -2.890625q0 -1.828125 -0.828125 -2.765625q-0.828125 -0.9375 -2.0625 -0.9375q-1.25 0 -2.078125 0.9375q-0.828125 0.9375 -0.828125 2.828125zm9.281952 8.703125l0 -13.640625l1.53125 0l0 1.28125q0.53125 -0.75 1.203125 -1.125q0.6875 -0.375 1.640625 -0.375q1.265625 0 2.234375 0.65625q0.96875 0.640625 1.453125 1.828125q0.5 1.1875 0.5 2.59375q0 1.515625 -0.546875 2.734375q-0.546875 1.203125 -1.578125 1.84375q-1.03125 0.640625 -2.171875 0.640625q-0.84375 0 -1.515625 -0.34375q-0.65625 -0.359375 -1.078125 -0.890625l0 4.796875l-1.671875 0zm1.515625 -8.65625q0 1.90625 0.765625 2.8125q0.78125 0.90625 1.875 0.90625q1.109375 0 1.890625 -0.9375q0.796875 -0.9375 0.796875 -2.921875q0 -1.875 -0.78125 -2.8125q-0.765625 -0.9375 -1.84375 -0.9375q-1.0625 0 -1.890625 1.0q-0.8125 1.0 -0.8125 2.890625zm8.188232 1.9375l1.65625 -0.265625q0.140625 1.0 0.765625 1.53125q0.640625 0.515625 1.78125 0.515625q1.15625 0 1.703125 -0.46875q0.5625 -0.46875 0.5625 -1.09375q0 -0.5625 -0.484375 -0.890625q-0.34375 -0.21875 -1.703125 -0.5625q-1.84375 -0.46875 -2.5625 -0.796875q-0.703125 -0.34375 -1.078125 -0.9375q-0.359375 -0.609375 -0.359375 -1.328125q0 -0.65625 0.296875 -1.21875q0.3125 -0.5625 0.828125 -0.9375q0.390625 -0.28125 1.0625 -0.484375q0.671875 -0.203125 1.4375 -0.203125q1.171875 0 2.046875 0.34375q0.875 0.328125 1.28125 0.90625q0.421875 0.5625 0.578125 1.515625l-1.625 0.21875q-0.109375 -0.75 -0.65625 -1.171875q-0.53125 -0.4375 -1.5 -0.4375q-1.15625 0 -1.640625 0.390625q-0.484375 0.375 -0.484375 0.875q0 0.328125 0.203125 0.59375q0.203125 0.265625 0.640625 0.4375q0.25 0.09375 1.46875 0.4375q1.765625 0.46875 2.46875 0.765625q0.703125 0.296875 1.09375 0.875q0.40625 0.578125 0.40625 1.4375q0 0.828125 -0.484375 1.578125q-0.484375 0.734375 -1.40625 1.140625q-0.921875 0.390625 -2.078125 0.390625q-1.921875 0 -2.9375 -0.796875q-1.0 -0.796875 -1.28125 -2.359375zm21.620789 1.71875q-0.9375 0.796875 -1.796875 1.125q-0.859375 0.3125 -1.84375 0.3125q-1.609375 0 -2.484375 -0.78125q-0.875 -0.796875 -0.875 -2.03125q0 -0.734375 0.328125 -1.328125q0.328125 -0.59375 0.859375 -0.953125q0.53125 -0.359375 1.203125 -0.546875q0.5 -0.140625 1.484375 -0.25q2.03125 -0.25 2.984375 -0.578125q0 -0.34375 0 -0.4375q0 -1.015625 -0.46875 -1.4375q-0.640625 -0.5625 -1.90625 -0.5625q-1.171875 0 -1.734375 0.40625q-0.5625 0.40625 -0.828125 1.46875l-1.640625 -0.234375q0.234375 -1.046875 0.734375 -1.6875q0.515625 -0.640625 1.46875 -0.984375q0.96875 -0.359375 2.25 -0.359375q1.265625 0 2.046875 0.296875q0.78125 0.296875 1.15625 0.75q0.375 0.453125 0.515625 1.140625q0.09375 0.421875 0.09375 1.53125l0 2.234375q0 2.328125 0.09375 2.953125q0.109375 0.609375 0.4375 1.171875l-1.75 0q-0.265625 -0.515625 -0.328125 -1.21875zm-0.140625 -3.71875q-0.90625 0.359375 -2.734375 0.625q-1.03125 0.140625 -1.453125 0.328125q-0.421875 0.1875 -0.65625 0.546875q-0.234375 0.359375 -0.234375 0.796875q0 0.671875 0.5 1.125q0.515625 0.4375 1.484375 0.4375q0.96875 0 1.71875 -0.421875q0.75 -0.4375 1.109375 -1.15625q0.265625 -0.578125 0.265625 -1.671875l0 -0.609375zm4.0788574 4.9375l0 -9.859375l1.5 0l0 1.40625q1.09375 -1.625 3.140625 -1.625q0.890625 0 1.640625 0.328125q0.75 0.3125 1.109375 0.84375q0.375 0.515625 0.53125 1.21875q0.09375 0.46875 0.09375 1.625l0 6.0625l-1.671875 0l0 -6.0q0 -1.015625 -0.203125 -1.515625q-0.1875 -0.515625 -0.6875 -0.8125q-0.5 -0.296875 -1.171875 -0.296875q-1.0625 0 -1.84375 0.671875q-0.765625 0.671875 -0.765625 2.578125l0 5.375l-1.671875 0zm16.766357 0l0 -1.25q-0.9375 1.46875 -2.75 1.46875q-1.1719055 0 -2.1719055 -0.640625q-0.984375 -0.65625 -1.53125 -1.8125q-0.53125 -1.171875 -0.53125 -2.6875q0 -1.46875 0.484375 -2.671875q0.5 -1.203125 1.46875 -1.84375q0.984375 -0.640625 2.2031555 -0.640625q0.890625 0 1.578125 0.375q0.703125 0.375 1.140625 0.984375l0 -4.875l1.65625 0l0 13.59375l-1.546875 0zm-5.2812805 -4.921875q0 1.890625 0.796875 2.828125q0.8125305 0.9375 1.8906555 0.9375q1.09375 0 1.859375 -0.890625q0.765625 -0.890625 0.765625 -2.734375q0 -2.015625 -0.78125 -2.953125q-0.78125 -0.953125 -1.921875 -0.953125q-1.1094055 0 -1.8594055 0.90625q-0.75 0.90625 -0.75 2.859375zm18.121552 4.921875l0 -12.0l-4.46875 0l0 -1.59375l10.765625 0l0 1.59375l-4.5 0l0 12.0l-1.796875 0zm7.739685 -11.6875l0 -1.90625l1.671875 0l0 1.90625l-1.671875 0zm0 11.6875l0 -9.859375l1.671875 0l0 9.859375l-1.671875 0zm4.1292114 0l0 -9.859375l1.5 0l0 1.390625q0.453125 -0.71875 1.21875 -1.15625q0.78125 -0.453125 1.765625 -0.453125q1.09375 0 1.796875 0.453125q0.703125 0.453125 0.984375 1.28125q1.171875 -1.734375 3.046875 -1.734375q1.46875 0 2.25 0.8125q0.796875 0.8125 0.796875 2.5l0 6.765625l-1.671875 0l0 -6.203125q0 -1.0 -0.15625 -1.4375q-0.15625 -0.453125 -0.59375 -0.71875q-0.421875 -0.265625 -1.0 -0.265625q-1.03125 0 -1.71875 0.6875q-0.6875 0.6875 -0.6875 2.21875l0 5.71875l-1.671875 0l0 -6.40625q0 -1.109375 -0.40625 -1.65625q-0.40625 -0.5625 -1.34375 -0.5625q-0.703125 0 -1.3125 0.375q-0.59375 0.359375 -0.859375 1.078125q-0.265625 0.71875 -0.265625 2.0625l0 5.109375l-1.671875 0zm22.290833 -3.171875l1.71875 0.21875q-0.40625 1.5 -1.515625 2.34375q-1.09375 0.828125 -2.8125 0.828125q-2.15625 0 -3.421875 -1.328125q-1.265625 -1.328125 -1.265625 -3.734375q0 -2.484375 1.265625 -3.859375q1.28125 -1.375 3.328125 -1.375q1.984375 0 3.234375 1.34375q1.25 1.34375 1.25 3.796875q0 0.140625 -0.015625 0.4375l-7.34375 0q0.09375 1.625 0.921875 2.484375q0.828125 0.859375 2.0625 0.859375q0.90625 0 1.546875 -0.46875q0.65625 -0.484375 1.046875 -1.546875zm-5.484375 -2.703125l5.5 0q-0.109375 -1.234375 -0.625 -1.859375q-0.796875 -0.96875 -2.078125 -0.96875q-1.140625 0 -1.9375 0.78125q-0.78125 0.765625 -0.859375 2.046875zm8.438171 2.9375l1.65625 -0.265625q0.140625 1.0 0.765625 1.53125q0.640625 0.515625 1.78125 0.515625q1.15625 0 1.703125 -0.46875q0.5625 -0.46875 0.5625 -1.09375q0 -0.5625 -0.484375 -0.890625q-0.34375 -0.21875 -1.703125 -0.5625q-1.84375 -0.46875 -2.5625 -0.796875q-0.703125 -0.34375 -1.078125 -0.9375q-0.359375 -0.609375 -0.359375 -1.328125q0 -0.65625 0.296875 -1.21875q0.3125 -0.5625 0.828125 -0.9375q0.390625 -0.28125 1.0625 -0.484375q0.671875 -0.203125 1.4375 -0.203125q1.171875 0 2.046875 0.34375q0.875 0.328125 1.28125 0.90625q0.421875 0.5625 0.578125 1.515625l-1.625 0.21875q-0.109375 -0.75 -0.65625 -1.171875q-0.53125 -0.4375 -1.5 -0.4375q-1.15625 0 -1.640625 0.390625q-0.484375 0.375 -0.484375 0.875q0 0.328125 0.203125 0.59375q0.203125 0.265625 0.640625 0.4375q0.25 0.09375 1.46875 0.4375q1.765625 0.46875 2.46875 0.765625q0.703125 0.296875 1.09375 0.875q0.40625 0.578125 0.40625 1.4375q0 0.828125 -0.484375 1.578125q-0.484375 0.734375 -1.40625 1.140625q-0.921875 0.390625 -2.078125 0.390625q-1.921875 0 -2.9375 -0.796875q-1.0 -0.796875 -1.28125 -2.359375z" fill-rule="nonzero"></path><path fill="#000000" d="m486.62323 688.1483q-1.375 -1.75 -2.328125 -4.078125q-0.953125 -2.34375 -0.953125 -4.84375q0 -2.21875 0.703125 -4.234375q0.84375 -2.34375 2.578125 -4.671875l1.203125 0q-1.125 1.921875 -1.484375 2.75q-0.5625 1.28125 -0.890625 2.671875q-0.40625 1.734375 -0.40625 3.484375q0 4.46875 2.78125 8.921875l-1.203125 0zm2.368927 -15.109375l0.421875 -1.3125q1.484375 0.515625 2.140625 0.90625q-0.171875 -1.6875 -0.171875 -2.3125l1.34375 0q-0.03125 0.90625 -0.21875 2.296875q0.953125 -0.484375 2.1875 -0.890625l0.421875 1.3125q-1.171875 0.390625 -2.296875 0.53125q0.5625 0.484375 1.59375 1.75l-1.109375 0.78125q-0.546875 -0.734375 -1.28125 -1.984375q-0.6875 1.296875 -1.203125 1.984375l-1.09375 -0.78125q1.078125 -1.328125 1.53125 -1.75q-1.1875 -0.234375 -2.265625 -0.53125zm8.385254 11.109375l0 -1.90625l1.90625 0l0 1.90625l-1.90625 0zm4.417694 0.8125l1.609375 0.25q0.109375 0.75 0.578125 1.09375q0.609375 0.453125 1.6875 0.453125q1.171875 0 1.796875 -0.46875q0.625 -0.453125 0.859375 -1.28125q0.125 -0.515625 0.109375 -2.15625q-1.09375 1.296875 -2.71875 1.296875q-2.03125 0 -3.15625 -1.46875q-1.109375 -1.46875 -1.109375 -3.515625q0 -1.40625 0.515625 -2.59375q0.515625 -1.203125 1.484375 -1.84375q0.96875 -0.65625 2.265625 -0.65625q1.75 0 2.875 1.40625l0 -1.1875l1.546875 0l0 8.515625q0 2.3125 -0.46875 3.265625q-0.46875 0.96875 -1.484375 1.515625q-1.015625 0.5625 -2.5 0.5625q-1.765625 0 -2.859375 -0.796875q-1.078125 -0.796875 -1.03125 -2.390625zm1.375 -5.921875q0 1.953125 0.765625 2.84375q0.78125 0.890625 1.9375 0.890625q1.140625 0 1.921875 -0.890625q0.78125 -0.890625 0.78125 -2.78125q0 -1.8125 -0.8125 -2.71875q-0.796875 -0.921875 -1.921875 -0.921875q-1.109375 0 -1.890625 0.90625q-0.78125 0.890625 -0.78125 2.671875zm8.422577 5.109375l0 -1.359375l6.2656555 -7.1875q-1.0625 0.046875 -1.875 0.046875l-4.0156555 0l0 -1.359375l8.0469055 0l0 1.109375l-5.34375 6.25l-1.015625 1.140625q1.109375 -0.078125 2.09375 -0.078125l4.5625 0l0 1.4375l-8.7187805 0zm11.2969055 4.0l-1.1875 0q2.765625 -4.453125 2.765625 -8.921875q0 -1.734375 -0.390625 -3.453125q-0.328125 -1.390625 -0.890625 -2.671875q-0.359375 -0.84375 -1.484375 -2.78125l1.1875 0q1.75 2.328125 2.578125 4.671875q0.71875 2.015625 0.71875 4.234375q0 2.5 -0.96875 4.84375q-0.953125 2.328125 -2.328125 4.078125z" fill-rule="nonzero"></path><path fill="#f4cccc" d="m807.57745 616.5374l0 0c0 2.658142 -2.1548462 4.8129883 -4.8129883 4.8129883l0 -4.8129883c0 1.3290405 -1.0774536 2.4064941 -2.4065552 2.4064941c-1.3290405 0 -2.4064941 -1.0774536 -2.4064941 -2.4064941l0 4.8129883l-178.56885 0l0 0c-2.658142 0 -4.8129883 2.1548462 -4.8129883 4.8129883l0 57.75592c0 2.658142 2.1548462 4.8129883 4.8129883 4.8129883c2.658142 0 4.8129883 -2.1548462 4.8129883 -4.8129883l0 -4.8129883l178.56891 0c2.658142 0 4.8129883 -2.1548462 4.8129883 -4.8129883zm-188.19489 14.438965c2.658142 0 4.8129883 -2.1548462 4.8129883 -4.8129883c0 -1.3291016 -1.0774536 -2.4064941 -2.4064941 -2.4064941c-1.3291016 0 -2.4064941 1.0773926 -2.4064941 2.4064941z" fill-rule="nonzero"></path><path fill="#c3a3a3" d="m619.38257 630.9764c2.658142 0 4.8129883 -2.1548462 4.8129883 -4.8129883c0 -1.3291016 -1.0774536 -2.4064941 -2.4064941 -2.4064941c-1.3291016 0 -2.4064941 1.0773926 -2.4064941 2.4064941zm183.3819 -9.625977c2.658142 0 4.8129883 -2.1548462 4.8129883 -4.8129883c0 -2.658142 -2.1548462 -4.8129883 -4.8129883 -4.8129883c-2.658142 0 -4.8130493 2.1548462 -4.8130493 4.8129883c0 1.3290405 1.0774536 2.4064941 2.4064941 2.4064941c1.3291016 0 2.4065552 -1.0774536 2.4065552 -2.4064941z" fill-rule="nonzero"></path><path fill="#000000" fill-opacity="0.0" d="m614.5696 626.1634c0 -2.658142 2.1548462 -4.8129883 4.8129883 -4.8129883l178.56885 0l0 -4.8129883l0 0c0 -2.658142 2.1549072 -4.8129883 4.8130493 -4.8129883c2.658142 0 4.8129883 2.1548462 4.8129883 4.8129883l0 57.75592c0 2.658142 -2.1548462 4.8129883 -4.8129883 4.8129883l-178.56891 0l0 4.8129883c0 2.658142 -2.1548462 4.8129883 -4.8129883 4.8129883c-2.658142 0 -4.8129883 -2.1548462 -4.8129883 -4.8129883zm183.38184 -4.8129883l4.8130493 0c2.658142 0 4.8129883 -2.1548462 4.8129883 -4.8129883m-4.8129883 4.8129883l0 -4.8129883c0 1.3290405 -1.0774536 2.4064941 -2.4065552 2.4064941c-1.3290405 0 -2.4064941 -1.0774536 -2.4064941 -2.4064941m-178.56885 14.438965l0 -4.8129883l0 0c0 -1.3291016 1.0773926 -2.4064941 2.4064941 -2.4064941c1.3290405 0 2.4064941 1.0773926 2.4064941 2.4064941c0 2.658142 -2.1548462 4.8129883 -4.8129883 4.8129883c-2.658142 0 -4.8129883 -2.1548462 -4.8129883 -4.8129883m9.625977 0l0 52.942932" fill-rule="nonzero"></path><path stroke="#cc0000" stroke-width="2.0" stroke-linejoin="round" stroke-linecap="butt" d="m614.5696 626.1634c0 -2.658142 2.1548462 -4.8129883 4.8129883 -4.8129883l178.56885 0l0 -4.8129883l0 0c0 -2.658142 2.1549072 -4.8129883 4.8130493 -4.8129883c2.658142 0 4.8129883 2.1548462 4.8129883 4.8129883l0 57.75592c0 2.658142 -2.1548462 4.8129883 -4.8129883 4.8129883l-178.56891 0l0 4.8129883c0 2.658142 -2.1548462 4.8129883 -4.8129883 4.8129883c-2.658142 0 -4.8129883 -2.1548462 -4.8129883 -4.8129883zm183.38184 -4.8129883l4.8130493 0c2.658142 0 4.8129883 -2.1548462 4.8129883 -4.8129883m-4.8129883 4.8129883l0 -4.8129883c0 1.3290405 -1.0774536 2.4064941 -2.4065552 2.4064941c-1.3290405 0 -2.4064941 -1.0774536 -2.4064941 -2.4064941m-178.56885 14.438965l0 -4.8129883l0 0c0 -1.3291016 1.0773926 -2.4064941 2.4064941 -2.4064941c1.3290405 0 2.4064941 1.0773926 2.4064941 2.4064941c0 2.658142 -2.1548462 4.8129883 -4.8129883 4.8129883c-2.658142 0 -4.8129883 -2.1548462 -4.8129883 -4.8129883m9.625977 0l0 52.942932" fill-rule="nonzero"></path><path fill="#000000" d="m670.28876 657.1483l0 -13.59375l1.796875 0l0 6.734375l6.765625 -6.734375l2.4375 0l-5.703125 5.5l5.953125 8.09375l-2.375 0l-4.84375 -6.890625l-2.234375 2.171875l0 4.71875l-1.796875 0zm12.5216675 0l0 -13.59375l4.6875 0q1.578125 0 2.421875 0.1875q1.15625 0.265625 1.984375 0.96875q1.078125 0.921875 1.609375 2.34375q0.53125 1.40625 0.53125 3.21875q0 1.546875 -0.359375 2.75q-0.359375 1.1875 -0.921875 1.984375q-0.5625 0.78125 -1.234375 1.234375q-0.671875 0.4375 -1.625 0.671875q-0.953125 0.234375 -2.1875 0.234375l-4.90625 0zm1.796875 -1.609375l2.90625 0q1.34375 0 2.109375 -0.25q0.765625 -0.25 1.21875 -0.703125q0.640625 -0.640625 1.0 -1.71875q0.359375 -1.078125 0.359375 -2.625q0 -2.125 -0.703125 -3.265625q-0.703125 -1.15625 -1.703125 -1.546875q-0.71875 -0.28125 -2.328125 -0.28125l-2.859375 0l0 10.390625zm10.816711 -2.46875l0 -1.6875l5.125 0l0 1.6875l-5.125 0zm10.5095215 2.578125l0.234375 1.484375q-0.703125 0.140625 -1.265625 0.140625q-0.90625 0 -1.40625 -0.28125q-0.5 -0.296875 -0.703125 -0.75q-0.203125 -0.46875 -0.203125 -1.984375l0 -5.65625l-1.234375 0l0 -1.3125l1.234375 0l0 -2.4375l1.65625 -1.0l0 3.4375l1.6875 0l0 1.3125l-1.6875 0l0 5.75q0 0.71875 0.078125 0.921875q0.09375 0.203125 0.296875 0.328125q0.203125 0.125 0.578125 0.125q0.265625 0 0.734375 -0.078125zm1.5114746 1.5l0 -9.859375l1.5 0l0 1.5q0.578125 -1.046875 1.0625 -1.375q0.484375 -0.34375 1.078125 -0.34375q0.84375 0 1.71875 0.546875l-0.578125 1.546875q-0.609375 -0.359375 -1.234375 -0.359375q-0.546875 0 -0.984375 0.328125q-0.421875 0.328125 -0.609375 0.90625q-0.28125 0.890625 -0.28125 1.953125l0 5.15625l-1.671875 0zm12.9782715 -3.171875l1.71875 0.21875q-0.40625 1.5 -1.515625 2.34375q-1.09375 0.828125 -2.8125 0.828125q-2.15625 0 -3.421875 -1.328125q-1.265625 -1.328125 -1.265625 -3.734375q0 -2.484375 1.265625 -3.859375q1.28125 -1.375 3.328125 -1.375q1.984375 0 3.234375 1.34375q1.25 1.34375 1.25 3.796875q0 0.140625 -0.015625 0.4375l-7.34375 0q0.09375 1.625 0.921875 2.484375q0.828125 0.859375 2.0625 0.859375q0.90625 0 1.546875 -0.46875q0.65625 -0.484375 1.046875 -1.546875zm-5.484375 -2.703125l5.5 0q-0.109375 -1.234375 -0.625 -1.859375q-0.796875 -0.96875 -2.078125 -0.96875q-1.140625 0 -1.9375 0.78125q-0.78125 0.765625 -0.859375 2.046875zm15.860107 2.703125l1.71875 0.21875q-0.40625 1.5 -1.515625 2.34375q-1.09375 0.828125 -2.8125 0.828125q-2.15625 0 -3.421875 -1.328125q-1.265625 -1.328125 -1.265625 -3.734375q0 -2.484375 1.265625 -3.859375q1.28125 -1.375 3.328125 -1.375q1.984375 0 3.234375 1.34375q1.25 1.34375 1.25 3.796875q0 0.140625 -0.015625 0.4375l-7.34375 0q0.09375 1.625 0.921875 2.484375q0.828125 0.859375 2.0625 0.859375q0.90625 0 1.546875 -0.46875q0.65625 -0.484375 1.046875 -1.546875zm-5.484375 -2.703125l5.5 0q-0.109375 -1.234375 -0.625 -1.859375q-0.796875 -0.96875 -2.078125 -0.96875q-1.140625 0 -1.9375 0.78125q-0.78125 0.765625 -0.859375 2.046875zm9.578857 5.875l0 -1.90625l1.90625 0l0 1.90625l-1.90625 0zm4.4176636 0.8125l1.609375 0.25q0.109375 0.75 0.578125 1.09375q0.609375 0.453125 1.6875 0.453125q1.171875 0 1.796875 -0.46875q0.625 -0.453125 0.859375 -1.28125q0.125 -0.515625 0.109375 -2.15625q-1.09375 1.296875 -2.71875 1.296875q-2.03125 0 -3.15625 -1.46875q-1.109375 -1.46875 -1.109375 -3.515625q0 -1.40625 0.515625 -2.59375q0.515625 -1.203125 1.484375 -1.84375q0.96875 -0.65625 2.265625 -0.65625q1.75 0 2.875 1.40625l0 -1.1875l1.546875 0l0 8.515625q0 2.3125 -0.46875 3.265625q-0.46875 0.96875 -1.484375 1.515625q-1.015625 0.5625 -2.5 0.5625q-1.765625 0 -2.859375 -0.796875q-1.078125 -0.796875 -1.03125 -2.390625zm1.375 -5.921875q0 1.953125 0.765625 2.84375q0.78125 0.890625 1.9375 0.890625q1.140625 0 1.921875 -0.890625q0.78125 -0.890625 0.78125 -2.78125q0 -1.8125 -0.8125 -2.71875q-0.796875 -0.921875 -1.921875 -0.921875q-1.109375 0 -1.890625 0.90625q-0.78125 0.890625 -0.78125 2.671875zm8.422607 5.109375l0 -1.359375l6.265625 -7.1875q-1.0625 0.046875 -1.875 0.046875l-4.015625 0l0 -1.359375l8.046875 0l0 1.109375l-5.34375 6.25l-1.015625 1.140625q1.109375 -0.078125 2.09375 -0.078125l4.5625 0l0 1.4375l-8.71875 0z" fill-rule="nonzero"></path><path fill="#000000" fill-opacity="0.0" d="m700.1811 501.3084c0 27.604248 -53.527527 40.20453 -107.055115 55.208496c-53.527527 15.003906 -107.055115 32.4115 -107.055115 64.823" fill-rule="nonzero"></path><path stroke="#cc0000" stroke-width="4.0" stroke-linejoin="round" stroke-linecap="butt" d="m700.1811 501.3084c0 27.604248 -53.527527 40.20453 -107.055115 55.208496c-26.763794 7.501953 -53.527527 15.604797 -73.6004 25.883667c-10.036407 5.1394043 -18.400085 10.822815 -24.25467 17.24707c-1.4636536 1.6060181 -2.7704468 3.2584229 -3.9073792 4.960144c-0.56848145 0.8508911 -1.0944824 1.7141113 -1.576355 2.590088c-0.120513916 0.2189331 -0.2381897 0.43878174 -0.3531494 0.65930176l-0.088012695 0.17138672" fill-rule="evenodd"></path><path fill="#cc0000" stroke="#cc0000" stroke-width="4.0" stroke-linecap="butt" d="m489.346 608.02856l-3.293335 -5.44281l1.4152832 13.075867l7.3208313 -10.926453z" fill-rule="evenodd"></path><path fill="#000000" fill-opacity="0.0" d="m700.1811 501.3084c0 27.604248 2.7244263 40.20453 5.4488525 55.208496c2.7243652 15.003906 5.4487915 32.4115 5.4487915 64.823" fill-rule="nonzero"></path><path stroke="#cc0000" stroke-width="4.0" stroke-linejoin="round" stroke-linecap="butt" d="m700.1811 501.3084c0 27.604248 2.7244263 40.20453 5.4488525 55.208496c1.3621826 7.501953 2.7243652 15.604797 3.7460327 25.883667c0.51086426 5.1394043 0.93652344 10.822815 1.2344971 17.24707c0.07446289 1.6060181 0.14099121 3.2584229 0.19891357 4.960144c0.028869629 0.8508911 0.055664062 1.7141113 0.080200195 2.590088l0.010925293 0.43481445" fill-rule="evenodd"></path><path fill="#cc0000" stroke="#cc0000" stroke-width="4.0" stroke-linecap="butt" d="m710.90045 607.6327l-4.5563965 -4.439453l4.6586304 12.299561l4.3372803 -12.416565z" fill-rule="evenodd"></path></g></svg>

